{"glyphs":{"0":{"ha":772,"x_min":51,"x_max":721,"o":"m 386 -17 q 202 27 275 -17 q 90 179 129 71 q 51 476 51 288 q 90 774 51 665 q 202 926 129 882 q 386 969 275 969 q 569 925 496 969 q 682 773 643 881 q 721 476 721 665 q 682 180 721 288 q 569 28 643 72 q 386 -17 496 -17 m 386 85 q 514 128 468 85 q 577 253 560 171 q 594 463 594 335 l 594 476 q 577 693 594 608 q 514 823 560 778 q 386 868 468 868 q 258 825 304 868 q 195 700 213 782 q 178 490 178 618 l 178 476 q 195 260 178 344 q 258 130 213 175 q 386 85 304 85 z "},"1":{"ha":772,"x_min":129,"x_max":726,"o":"m 131 101 l 376 101 l 376 779 l 129 779 l 129 851 q 290 887 196 858 q 451 953 383 915 l 499 953 l 499 101 l 726 101 l 726 0 l 131 0 l 131 101 z "},"2":{"ha":772,"x_min":54,"x_max":708,"o":"m 54 40 q 93 178 54 115 q 187 290 132 242 q 333 404 242 338 q 453 497 407 458 q 529 575 499 535 q 576 703 576 638 q 535 816 576 768 q 393 864 494 864 q 240 813 289 864 q 192 682 192 763 l 192 625 l 69 625 q 67 644 68 629 q 65 681 65 660 q 160 897 65 825 q 400 969 254 969 q 619 901 536 969 q 703 692 703 832 q 661 551 703 617 q 560 434 619 486 q 407 314 501 382 q 298 231 338 264 q 229 165 258 199 q 197 117 210 144 l 708 117 l 708 0 l 54 0 l 54 40 z "},"3":{"ha":772,"x_min":49,"x_max":722,"o":"m 390 -17 q 138 60 226 -17 q 49 269 49 138 l 49 281 l 172 281 l 172 265 q 226 131 172 178 q 379 85 281 85 q 538 129 481 85 q 596 264 596 174 q 534 395 596 357 q 374 433 472 433 l 274 433 l 274 535 l 378 535 q 518 578 461 535 q 575 701 575 621 q 522 826 575 785 q 386 868 468 868 q 246 824 299 868 q 193 696 193 781 l 193 683 l 69 683 l 69 708 q 110 845 69 786 q 222 937 150 904 q 385 969 293 969 q 615 901 529 969 q 701 708 701 833 q 660 578 701 629 q 543 494 618 528 l 543 489 q 674 406 625 465 q 722 256 722 346 q 680 110 722 172 q 563 16 638 49 q 390 -17 488 -17 z "},"4":{"ha":772,"x_min":35,"x_max":726,"o":"m 478 235 l 35 235 l 35 338 q 189 646 125 492 q 290 969 253 800 l 422 969 q 344 720 396 851 q 240 483 293 589 q 154 336 186 378 l 478 336 l 478 649 q 535 828 507 724 l 600 828 l 600 336 l 726 336 l 726 235 l 600 235 l 600 0 l 478 0 l 478 235 z "},"5":{"ha":772,"x_min":50,"x_max":714,"o":"m 383 -17 q 140 67 231 -17 q 50 296 50 151 l 175 296 q 234 142 175 200 q 383 83 293 83 q 532 141 476 83 q 588 311 588 199 q 535 463 588 408 q 394 517 482 517 q 278 487 332 517 q 196 407 225 457 l 83 425 l 122 953 l 664 953 l 664 836 l 224 836 l 201 546 q 419 619 293 619 q 631 540 549 619 q 714 311 714 461 q 626 69 714 156 q 383 -17 538 -17 z "},"6":{"ha":772,"x_min":53,"x_max":719,"o":"m 403 -17 q 141 90 229 -17 q 53 449 53 196 q 92 755 53 640 q 206 919 131 869 q 399 969 282 969 q 616 888 544 969 q 688 674 688 807 l 563 674 q 519 818 563 768 q 392 868 476 868 q 226 778 272 868 q 178 508 181 689 q 281 585 219 558 q 417 613 343 613 q 642 524 564 613 q 719 297 719 436 q 678 131 719 203 q 565 22 638 60 q 403 -17 493 -17 m 393 85 q 542 146 492 85 q 593 303 593 207 q 542 454 593 396 q 393 513 492 513 q 243 452 294 513 q 192 297 192 392 q 243 144 192 204 q 393 85 294 85 z "},"7":{"ha":772,"x_min":51,"x_max":726,"o":"m 200 0 q 547 836 200 386 l 51 836 l 51 953 l 726 953 l 726 879 q 450 482 565 694 q 335 71 335 269 q 336 0 335 33 l 200 0 z "},"8":{"ha":772,"x_min":53,"x_max":718,"o":"m 385 -17 q 135 60 218 -17 q 53 261 53 138 q 210 489 53 428 q 112 578 146 522 q 78 704 78 635 q 113 839 78 779 q 217 934 149 899 q 385 969 286 969 q 552 934 483 969 q 656 839 621 899 q 692 704 692 779 q 658 578 692 635 q 560 489 624 522 q 718 261 718 428 q 635 60 718 138 q 385 -17 553 -17 m 385 538 q 519 582 469 538 q 569 703 569 626 q 520 824 569 779 q 385 868 471 868 q 249 824 299 868 q 200 703 200 779 q 250 582 200 626 q 385 538 300 538 m 385 85 q 538 131 485 85 q 592 261 592 178 q 538 390 592 343 q 385 436 485 436 q 232 390 285 436 q 179 261 179 343 q 232 132 179 179 q 385 85 285 85 z "},"9":{"ha":772,"x_min":53,"x_max":719,"o":"m 374 -17 q 156 65 228 -17 q 85 279 85 146 l 210 279 q 253 135 210 185 q 381 85 296 85 q 546 174 500 85 q 594 444 592 264 q 494 367 554 394 q 363 340 433 340 q 132 428 211 340 q 53 656 53 517 q 94 822 53 750 q 207 931 135 893 q 369 969 279 969 q 631 863 543 969 q 719 504 719 757 q 681 198 719 313 q 566 33 642 83 q 374 -17 490 -17 m 379 440 q 529 501 478 440 q 581 656 581 561 q 529 808 581 749 q 379 868 478 868 q 230 807 281 868 q 179 650 179 746 q 230 499 179 557 q 379 440 281 440 z "},"\u0000":{"ha":0,"x_min":0,"x_max":0,"o":""},"\r":{"ha":386,"x_min":0,"x_max":0,"o":""}," ":{"ha":386,"x_min":0,"x_max":0,"o":""},"A":{"ha":926,"x_min":10,"x_max":917,"o":"m 10 0 l 379 953 l 547 953 l 917 0 l 776 0 l 681 254 l 239 254 l 146 0 l 10 0 m 282 369 l 638 369 l 526 667 l 463 839 l 456 839 l 393 669 l 282 369 z "},"Á":{"ha":926,"x_min":10,"x_max":917,"o":"m 10 0 m 10 0 l 379 953 l 547 953 l 917 0 l 776 0 l 681 254 l 239 254 l 146 0 l 10 0 m 282 369 l 638 369 l 526 667 l 463 839 l 456 839 l 393 669 l 282 369 m 411 1022 l 531 1206 l 664 1206 l 665 1201 l 515 1022 l 411 1022 z "},"Ă":{"ha":926,"x_min":10,"x_max":917,"o":"m 10 0 m 10 0 l 379 953 l 547 953 l 917 0 l 776 0 l 681 254 l 239 254 l 146 0 l 10 0 m 282 369 l 638 369 l 526 667 l 463 839 l 456 839 l 393 669 l 282 369 m 463 1043 q 308 1091 356 1043 q 261 1206 261 1139 l 346 1206 q 463 1132 363 1132 q 549 1154 522 1132 q 581 1206 576 1176 l 665 1206 q 617 1091 665 1139 q 463 1043 569 1043 z "},"Ắ":{"ha":926,"x_min":10,"x_max":917,"o":"m 10 0 m 10 0 l 379 953 l 547 953 l 917 0 l 776 0 l 681 254 l 239 254 l 146 0 l 10 0 m 282 369 l 638 369 l 526 667 l 463 839 l 456 839 l 393 669 l 282 369 m 463 1043 q 308 1091 356 1043 q 261 1206 261 1139 l 346 1206 q 463 1132 363 1132 q 549 1154 522 1132 q 581 1206 576 1176 l 665 1206 q 617 1091 665 1139 q 463 1043 569 1043 m 411 1206 l 531 1389 l 664 1389 l 665 1385 l 515 1206 l 411 1206 z "},"Ặ":{"ha":926,"x_min":10,"x_max":917,"o":"m 10 0 m 10 0 l 379 953 l 547 953 l 917 0 l 776 0 l 681 254 l 239 254 l 146 0 l 10 0 m 282 369 l 638 369 l 526 667 l 463 839 l 456 839 l 393 669 l 282 369 m 463 1043 q 308 1091 356 1043 q 261 1206 261 1139 l 346 1206 q 463 1132 363 1132 q 549 1154 522 1132 q 581 1206 576 1176 l 665 1206 q 617 1091 665 1139 q 463 1043 569 1043 m 403 -240 l 403 -108 l 524 -108 l 524 -240 l 403 -240 z "},"Ằ":{"ha":926,"x_min":10,"x_max":917,"o":"m 10 0 m 10 0 l 379 953 l 547 953 l 917 0 l 776 0 l 681 254 l 239 254 l 146 0 l 10 0 m 282 369 l 638 369 l 526 667 l 463 839 l 456 839 l 393 669 l 282 369 m 463 1043 q 308 1091 356 1043 q 261 1206 261 1139 l 346 1206 q 463 1132 363 1132 q 549 1154 522 1132 q 581 1206 576 1176 l 665 1206 q 617 1091 665 1139 q 463 1043 569 1043 m 407 1206 l 257 1385 l 258 1389 l 392 1389 l 511 1206 l 407 1206 z "},"Ẳ":{"ha":926,"x_min":10,"x_max":917,"o":"m 10 0 m 10 0 l 379 953 l 547 953 l 917 0 l 776 0 l 681 254 l 239 254 l 146 0 l 10 0 m 282 369 l 638 369 l 526 667 l 463 839 l 456 839 l 393 669 l 282 369 m 463 1043 q 308 1091 356 1043 q 261 1206 261 1139 l 346 1206 q 463 1132 363 1132 q 549 1154 522 1132 q 581 1206 576 1176 l 665 1206 q 617 1091 665 1139 q 463 1043 569 1043 m 425 1290 l 443 1290 q 483 1315 483 1290 q 473 1335 483 1329 q 440 1340 463 1340 l 357 1340 l 357 1394 q 457 1406 404 1406 q 546 1387 508 1406 q 583 1322 583 1368 q 560 1267 583 1288 q 503 1244 538 1247 l 503 1206 l 425 1206 l 425 1290 z "},"Ẵ":{"ha":926,"x_min":10,"x_max":917,"o":"m 10 0 m 10 0 l 379 953 l 547 953 l 917 0 l 776 0 l 681 254 l 239 254 l 146 0 l 10 0 m 282 369 l 638 369 l 526 667 l 463 839 l 456 839 l 393 669 l 282 369 m 463 1043 q 308 1091 356 1043 q 261 1206 261 1139 l 346 1206 q 463 1132 363 1132 q 549 1154 522 1132 q 581 1206 576 1176 l 665 1206 q 617 1091 665 1139 q 463 1043 569 1043 m 239 1283 q 268 1387 239 1346 q 357 1428 297 1428 q 408 1422 383 1428 q 467 1406 432 1417 q 564 1385 526 1385 q 603 1428 599 1385 l 693 1428 q 664 1324 693 1365 q 575 1283 635 1283 q 524 1289 549 1283 q 465 1306 500 1294 q 368 1326 406 1326 q 329 1283 333 1326 l 239 1283 z "},"Ǎ":{"ha":926,"x_min":10,"x_max":917,"o":"m 10 0 m 10 0 l 379 953 l 547 953 l 917 0 l 776 0 l 681 254 l 239 254 l 146 0 l 10 0 m 282 369 l 638 369 l 526 667 l 463 839 l 456 839 l 393 669 l 282 369 m 406 1018 l 258 1206 l 383 1206 l 464 1096 l 543 1206 l 668 1206 l 522 1018 l 406 1018 z "},"Â":{"ha":926,"x_min":10,"x_max":917,"o":"m 10 0 m 10 0 l 379 953 l 547 953 l 917 0 l 776 0 l 681 254 l 239 254 l 146 0 l 10 0 m 282 369 l 638 369 l 526 667 l 463 839 l 456 839 l 393 669 l 282 369 m 258 1018 l 406 1206 l 522 1206 l 668 1018 l 543 1018 l 464 1128 l 383 1018 l 258 1018 z "},"Ấ":{"ha":926,"x_min":10,"x_max":917,"o":"m 10 0 m 10 0 l 379 953 l 547 953 l 917 0 l 776 0 l 681 254 l 239 254 l 146 0 l 10 0 m 282 369 l 638 369 l 526 667 l 463 839 l 456 839 l 393 669 l 282 369 m 258 1018 l 406 1206 l 522 1206 l 668 1018 l 543 1018 l 464 1128 l 383 1018 l 258 1018 m 594 1154 l 714 1338 l 847 1338 l 849 1333 l 699 1154 l 594 1154 z "},"Ậ":{"ha":926,"x_min":10,"x_max":917,"o":"m 10 0 m 10 0 l 379 953 l 547 953 l 917 0 l 776 0 l 681 254 l 239 254 l 146 0 l 10 0 m 282 369 l 638 369 l 526 667 l 463 839 l 456 839 l 393 669 l 282 369 m 258 1018 l 406 1206 l 522 1206 l 668 1018 l 543 1018 l 464 1128 l 383 1018 l 258 1018 m 403 -240 l 403 -108 l 524 -108 l 524 -240 l 403 -240 z "},"Ầ":{"ha":926,"x_min":10,"x_max":917,"o":"m 10 0 m 10 0 l 379 953 l 547 953 l 917 0 l 776 0 l 681 254 l 239 254 l 146 0 l 10 0 m 282 369 l 638 369 l 526 667 l 463 839 l 456 839 l 393 669 l 282 369 m 258 1018 l 406 1206 l 522 1206 l 668 1018 l 543 1018 l 464 1128 l 383 1018 l 258 1018 m 650 1154 l 500 1333 l 501 1338 l 635 1338 l 754 1154 l 650 1154 z "},"Ẩ":{"ha":926,"x_min":10,"x_max":917,"o":"m 10 0 m 10 0 l 379 953 l 547 953 l 917 0 l 776 0 l 681 254 l 239 254 l 146 0 l 10 0 m 282 369 l 638 369 l 526 667 l 463 839 l 456 839 l 393 669 l 282 369 m 258 1018 l 406 1206 l 522 1206 l 668 1018 l 543 1018 l 464 1128 l 383 1018 l 258 1018 m 608 1239 l 626 1239 q 667 1264 667 1239 q 656 1283 667 1278 q 624 1289 646 1289 l 540 1289 l 540 1343 q 640 1354 588 1354 q 729 1335 692 1354 q 767 1271 767 1317 q 744 1216 767 1236 q 686 1193 721 1196 l 686 1154 l 608 1154 l 608 1239 z "},"Ẫ":{"ha":926,"x_min":10,"x_max":917,"o":"m 10 0 m 10 0 l 379 953 l 547 953 l 917 0 l 776 0 l 681 254 l 239 254 l 146 0 l 10 0 m 282 369 l 638 369 l 526 667 l 463 839 l 456 839 l 393 669 l 282 369 m 258 1018 l 406 1206 l 522 1206 l 668 1018 l 543 1018 l 464 1128 l 383 1018 l 258 1018 m 239 1283 q 268 1387 239 1346 q 357 1428 297 1428 q 408 1422 383 1428 q 467 1406 432 1417 q 564 1385 526 1385 q 603 1428 599 1385 l 693 1428 q 664 1324 693 1365 q 575 1283 635 1283 q 524 1289 549 1283 q 465 1306 500 1294 q 368 1326 406 1326 q 329 1283 333 1326 l 239 1283 z "},"Ȁ":{"ha":926,"x_min":10,"x_max":917,"o":"m 10 0 m 10 0 l 379 953 l 547 953 l 917 0 l 776 0 l 681 254 l 239 254 l 146 0 l 10 0 m 282 369 l 638 369 l 526 667 l 463 839 l 456 839 l 393 669 l 282 369 m 335 1022 l 218 1201 l 219 1206 l 354 1206 l 440 1022 l 335 1022 m 528 1022 l 411 1201 l 413 1206 l 547 1206 l 633 1022 l 528 1022 z "},"Ä":{"ha":926,"x_min":10,"x_max":917,"o":"m 10 0 m 10 0 l 379 953 l 547 953 l 917 0 l 776 0 l 681 254 l 239 254 l 146 0 l 10 0 m 282 369 l 638 369 l 526 667 l 463 839 l 456 839 l 393 669 l 282 369 m 274 1074 l 274 1206 l 394 1206 l 394 1074 l 274 1074 m 533 1074 l 533 1206 l 654 1206 l 654 1074 l 533 1074 z "},"Ạ":{"ha":926,"x_min":10,"x_max":917,"o":"m 10 0 m 10 0 l 379 953 l 547 953 l 917 0 l 776 0 l 681 254 l 239 254 l 146 0 l 10 0 m 282 369 l 638 369 l 526 667 l 463 839 l 456 839 l 393 669 l 282 369 m 403 -240 l 403 -108 l 524 -108 l 524 -240 l 403 -240 z "},"À":{"ha":926,"x_min":10,"x_max":917,"o":"m 10 0 m 10 0 l 379 953 l 547 953 l 917 0 l 776 0 l 681 254 l 239 254 l 146 0 l 10 0 m 282 369 l 638 369 l 526 667 l 463 839 l 456 839 l 393 669 l 282 369 m 411 1022 l 261 1201 l 263 1206 l 396 1206 l 515 1022 l 411 1022 z "},"Ả":{"ha":926,"x_min":10,"x_max":917,"o":"m 10 0 m 10 0 l 379 953 l 547 953 l 917 0 l 776 0 l 681 254 l 239 254 l 146 0 l 10 0 m 282 369 l 638 369 l 526 667 l 463 839 l 456 839 l 393 669 l 282 369 m 425 1107 l 443 1107 q 483 1132 483 1107 q 473 1151 483 1146 q 440 1157 463 1157 l 357 1157 l 357 1211 q 457 1222 404 1222 q 546 1203 508 1222 q 583 1139 583 1185 q 560 1084 583 1104 q 503 1061 538 1064 l 503 1022 l 425 1022 l 425 1107 z "},"Ȃ":{"ha":926,"x_min":10,"x_max":917,"o":"m 10 0 m 10 0 l 379 953 l 547 953 l 917 0 l 776 0 l 681 254 l 239 254 l 146 0 l 10 0 m 282 369 l 638 369 l 526 667 l 463 839 l 456 839 l 393 669 l 282 369 m 261 1043 q 308 1158 261 1110 q 463 1206 356 1206 q 617 1158 569 1206 q 665 1043 665 1110 l 581 1043 q 549 1094 576 1072 q 463 1117 522 1117 q 346 1043 363 1117 l 261 1043 z "},"Ā":{"ha":926,"x_min":10,"x_max":917,"o":"m 10 0 m 10 0 l 379 953 l 547 953 l 917 0 l 776 0 l 681 254 l 239 254 l 146 0 l 10 0 m 282 369 l 638 369 l 526 667 l 463 839 l 456 839 l 393 669 l 282 369 m 251 1072 l 251 1172 l 675 1172 l 675 1072 l 251 1072 z "},"Ą":{"ha":926,"x_min":10,"x_max":917,"o":"m 829 -253 q 740 -223 778 -253 q 701 -128 701 -193 q 722 -58 701 -87 q 776 0 742 -28 l 681 254 l 239 254 l 146 0 l 10 0 l 379 953 l 547 953 l 917 0 l 867 0 q 825 -47 842 -21 q 808 -100 808 -72 q 825 -147 808 -131 q 872 -162 842 -162 l 917 -162 l 917 -233 q 829 -253 874 -253 m 282 369 l 638 369 l 526 667 l 463 839 l 456 839 l 393 669 l 282 369 z "},"Å":{"ha":926,"x_min":10,"x_max":917,"o":"m 10 0 m 10 0 l 379 953 l 547 953 l 917 0 l 776 0 l 681 254 l 239 254 l 146 0 l 10 0 m 282 369 l 638 369 l 526 667 l 463 839 l 456 839 l 393 669 l 282 369 m 464 988 q 367 1026 403 988 q 331 1121 331 1064 q 367 1216 331 1178 q 464 1254 403 1254 q 561 1216 525 1254 q 597 1121 597 1178 q 561 1026 597 1064 q 464 988 525 988 m 464 1050 q 515 1071 494 1050 q 535 1121 535 1092 q 515 1171 535 1150 q 464 1192 494 1192 q 413 1171 433 1192 q 393 1121 393 1150 q 413 1071 393 1092 q 464 1050 433 1050 z "},"Ǻ":{"ha":926,"x_min":10,"x_max":917,"o":"m 411 1196 l 531 1379 l 664 1379 l 665 1375 l 515 1196 l 411 1196 m 371 932 q 340 976 351 950 q 329 1032 329 1001 q 365 1127 329 1089 q 463 1165 401 1165 q 560 1127 524 1165 q 596 1032 596 1089 q 556 932 596 968 l 917 0 l 776 0 l 681 254 l 239 254 l 146 0 l 10 0 l 371 932 m 463 961 q 513 982 493 961 q 533 1032 533 1003 q 513 1082 533 1061 q 463 1103 493 1103 q 412 1082 432 1103 q 392 1032 392 1061 q 412 982 392 1003 q 463 961 432 961 m 282 369 l 638 369 l 526 667 l 463 839 l 456 839 l 393 669 l 282 369 z "},"Ã":{"ha":926,"x_min":10,"x_max":917,"o":"m 10 0 m 10 0 l 379 953 l 547 953 l 917 0 l 776 0 l 681 254 l 239 254 l 146 0 l 10 0 m 282 369 l 638 369 l 526 667 l 463 839 l 456 839 l 393 669 l 282 369 m 236 1061 q 265 1165 236 1124 q 354 1206 294 1206 q 405 1200 381 1206 q 464 1183 429 1194 q 561 1163 524 1163 q 600 1206 596 1163 l 690 1206 q 661 1102 690 1143 q 572 1061 632 1061 q 522 1067 546 1061 q 463 1083 497 1072 q 365 1104 403 1104 q 326 1061 331 1104 l 236 1061 z "},"Æ":{"ha":1389,"x_min":-1,"x_max":1314,"o":"m -1 0 l 479 953 l 1306 953 l 1306 838 l 688 838 l 769 544 l 1244 544 l 1244 429 l 803 429 l 890 115 l 1314 115 l 1314 0 l 786 0 l 715 254 l 256 254 l 131 0 l -1 0 m 313 369 l 683 369 l 553 838 l 546 838 l 313 369 z "},"Ǽ":{"ha":1389,"x_min":-1,"x_max":1314,"o":"m 0 0 m -1 0 l 479 953 l 1306 953 l 1306 838 l 688 838 l 769 544 l 1244 544 l 1244 429 l 803 429 l 890 115 l 1314 115 l 1314 0 l 786 0 l 715 254 l 256 254 l 131 0 l -1 0 m 313 369 l 683 369 l 553 838 l 546 838 l 313 369 m 642 1022 l 761 1206 l 894 1206 l 896 1201 l 746 1022 l 642 1022 z "},"B":{"ha":926,"x_min":110,"x_max":861,"o":"m 110 953 l 569 953 q 762 889 689 953 q 835 719 835 825 q 790 581 835 639 q 676 500 746 522 l 676 494 q 811 414 761 475 q 861 253 861 353 q 781 63 861 125 q 569 0 701 0 l 110 0 l 110 953 m 543 546 q 657 587 614 546 q 700 693 700 628 q 661 801 700 765 q 554 838 622 838 l 242 838 l 242 546 l 543 546 m 567 115 q 726 269 726 115 q 557 431 726 431 l 242 431 l 242 115 l 567 115 z "},"C":{"ha":1003,"x_min":65,"x_max":939,"o":"m 529 -17 q 182 106 299 -17 q 65 476 65 229 q 182 847 65 724 q 529 969 299 969 q 827 877 715 969 q 939 608 939 785 l 804 608 q 731 794 804 731 q 529 857 658 857 q 282 768 361 857 q 201 479 203 679 l 201 476 q 281 185 201 275 q 529 96 360 96 q 735 158 661 96 q 810 342 810 221 l 939 342 q 828 74 939 164 q 529 -17 717 -17 z "},"Ć":{"ha":1003,"x_min":65,"x_max":939,"o":"m 65 0 m 529 -17 q 182 106 299 -17 q 65 476 65 229 q 182 847 65 724 q 529 969 299 969 q 827 877 715 969 q 939 608 939 785 l 804 608 q 731 794 804 731 q 529 857 658 857 q 282 768 361 857 q 201 479 203 679 l 201 476 q 281 185 201 275 q 529 96 360 96 q 735 158 661 96 q 810 342 810 221 l 939 342 q 828 74 939 164 q 529 -17 717 -17 m 449 1022 l 568 1206 l 701 1206 l 703 1201 l 553 1022 l 449 1022 z "},"Č":{"ha":1003,"x_min":65,"x_max":939,"o":"m 65 0 m 529 -17 q 182 106 299 -17 q 65 476 65 229 q 182 847 65 724 q 529 969 299 969 q 827 877 715 969 q 939 608 939 785 l 804 608 q 731 794 804 731 q 529 857 658 857 q 282 768 361 857 q 201 479 203 679 l 201 476 q 281 185 201 275 q 529 96 360 96 q 735 158 661 96 q 810 342 810 221 l 939 342 q 828 74 939 164 q 529 -17 717 -17 m 443 1018 l 296 1206 l 421 1206 l 501 1096 l 581 1206 l 706 1206 l 560 1018 l 443 1018 z "},"Ç":{"ha":1003,"x_min":65,"x_max":939,"o":"m 529 96 q 735 158 661 96 q 810 342 810 221 l 939 342 q 838 82 939 172 q 564 -15 736 -8 l 558 -50 q 686 -140 686 -58 q 636 -228 686 -203 q 522 -253 586 -253 q 390 -242 450 -253 l 390 -174 l 529 -174 q 572 -166 557 -174 q 586 -140 586 -158 q 574 -115 586 -124 q 532 -107 563 -107 l 461 -107 l 478 -15 q 65 476 65 13 q 182 847 65 724 q 529 969 299 969 q 827 877 715 969 q 939 608 939 785 l 804 608 q 731 794 804 731 q 529 857 658 857 q 282 768 361 857 q 201 479 203 679 l 201 476 q 281 185 201 275 q 529 96 360 96 z "},"Ĉ":{"ha":1003,"x_min":65,"x_max":939,"o":"m 65 0 m 529 -17 q 182 106 299 -17 q 65 476 65 229 q 182 847 65 724 q 529 969 299 969 q 827 877 715 969 q 939 608 939 785 l 804 608 q 731 794 804 731 q 529 857 658 857 q 282 768 361 857 q 201 479 203 679 l 201 476 q 281 185 201 275 q 529 96 360 96 q 735 158 661 96 q 810 342 810 221 l 939 342 q 828 74 939 164 q 529 -17 717 -17 m 296 1018 l 443 1206 l 560 1206 l 706 1018 l 581 1018 l 501 1128 l 421 1018 l 296 1018 z "},"Ċ":{"ha":1003,"x_min":65,"x_max":939,"o":"m 65 0 m 529 -17 q 182 106 299 -17 q 65 476 65 229 q 182 847 65 724 q 529 969 299 969 q 827 877 715 969 q 939 608 939 785 l 804 608 q 731 794 804 731 q 529 857 658 857 q 282 768 361 857 q 201 479 203 679 l 201 476 q 281 185 201 275 q 529 96 360 96 q 735 158 661 96 q 810 342 810 221 l 939 342 q 828 74 939 164 q 529 -17 717 -17 m 440 1074 l 440 1206 l 561 1206 l 561 1074 l 440 1074 z "},"D":{"ha":1003,"x_min":110,"x_max":939,"o":"m 110 953 l 463 953 q 815 835 692 953 q 939 476 939 718 q 815 117 939 235 q 463 0 692 0 l 110 0 l 110 953 m 463 115 q 715 199 628 115 q 803 474 801 282 l 803 476 q 716 753 803 669 q 463 838 629 838 l 242 838 l 242 115 l 463 115 z "},"Ǳ":{"ha":1851,"x_min":110,"x_max":1821,"o":"m 110 0 m 110 953 l 463 953 q 815 835 692 953 q 939 476 939 718 q 815 117 939 235 q 463 0 692 0 l 110 0 l 110 953 m 463 115 q 715 199 628 115 q 803 474 801 282 l 803 476 q 716 753 803 669 q 463 838 629 838 l 242 838 l 242 115 l 463 115 m 1035 0 l 1035 68 l 1607 838 l 1071 838 l 1071 953 l 1808 953 l 1808 885 l 1235 115 l 1821 115 l 1821 0 l 1035 0 z "},"Ǆ":{"ha":1851,"x_min":110,"x_max":1821,"o":"m 110 0 m 110 953 l 463 953 q 815 835 692 953 q 939 476 939 718 q 815 117 939 235 q 463 0 692 0 l 110 0 l 110 953 m 463 115 q 715 199 628 115 q 803 474 801 282 l 803 476 q 716 753 803 669 q 463 838 629 838 l 242 838 l 242 115 l 463 115 m 1035 0 l 1035 68 l 1607 838 l 1071 838 l 1071 953 l 1808 953 l 1808 885 l 1235 115 l 1821 115 l 1821 0 l 1035 0 m 1369 1018 l 1222 1206 l 1347 1206 l 1428 1096 l 1507 1206 l 1632 1206 l 1486 1018 l 1369 1018 z "},"Ð":{"ha":1003,"x_min":7,"x_max":939,"o":"m 463 953 q 815 835 692 953 q 939 476 939 718 q 815 117 939 235 q 463 0 692 0 l 110 0 l 110 450 l 7 450 l 7 538 l 110 538 l 110 953 l 463 953 m 803 476 q 716 753 803 669 q 463 838 629 838 l 242 838 l 242 538 l 482 538 l 482 450 l 242 450 l 242 115 l 463 115 q 715 199 628 115 q 803 474 801 282 l 803 476 z "},"Ď":{"ha":1003,"x_min":110,"x_max":939,"o":"m 110 0 m 110 953 l 463 953 q 815 835 692 953 q 939 476 939 718 q 815 117 939 235 q 463 0 692 0 l 110 0 l 110 953 m 463 115 q 715 199 628 115 q 803 474 801 282 l 803 476 q 716 753 803 669 q 463 838 629 838 l 242 838 l 242 115 l 463 115 m 443 1018 l 296 1206 l 421 1206 l 501 1096 l 581 1206 l 706 1206 l 560 1018 l 443 1018 z "},"Đ":{"ha":1003,"x_min":7,"x_max":939,"o":"m 7 0 m 463 953 q 815 835 692 953 q 939 476 939 718 q 815 117 939 235 q 463 0 692 0 l 110 0 l 110 450 l 7 450 l 7 538 l 110 538 l 110 953 l 463 953 m 803 476 q 716 753 803 669 q 463 838 629 838 l 242 838 l 242 538 l 482 538 l 482 450 l 242 450 l 242 115 l 463 115 q 715 199 628 115 q 803 474 801 282 l 803 476 z "},"Ḍ":{"ha":1003,"x_min":110,"x_max":939,"o":"m 110 0 m 110 953 l 463 953 q 815 835 692 953 q 939 476 939 718 q 815 117 939 235 q 463 0 692 0 l 110 0 l 110 953 m 463 115 q 715 199 628 115 q 803 474 801 282 l 803 476 q 716 753 803 669 q 463 838 629 838 l 242 838 l 242 115 l 463 115 m 440 -240 l 440 -108 l 561 -108 l 561 -240 l 440 -240 z "},"ǲ":{"ha":1697,"x_min":110,"x_max":1663,"o":"m 110 0 m 110 953 l 463 953 q 815 835 692 953 q 939 476 939 718 q 815 117 939 235 q 463 0 692 0 l 110 0 l 110 953 m 463 115 q 715 199 628 115 q 803 474 801 282 l 803 476 q 716 753 803 669 q 463 838 629 838 l 242 838 l 242 115 l 463 115 m 1036 0 l 1036 65 l 1460 629 l 1065 629 l 1065 731 l 1639 731 l 1639 667 l 1214 101 l 1663 101 l 1663 0 l 1036 0 z "},"ǅ":{"ha":1697,"x_min":110,"x_max":1663,"o":"m 110 0 m 110 953 l 463 953 q 815 835 692 953 q 939 476 939 718 q 815 117 939 235 q 463 0 692 0 l 110 0 l 110 953 m 463 115 q 715 199 628 115 q 803 474 801 282 l 803 476 q 716 753 803 669 q 463 838 629 838 l 242 838 l 242 115 l 463 115 m 1036 0 l 1036 65 l 1460 629 l 1065 629 l 1065 731 l 1639 731 l 1639 667 l 1214 101 l 1663 101 l 1663 0 l 1036 0 m 1292 817 l 1144 1004 l 1269 1004 l 1350 894 l 1429 1004 l 1554 1004 l 1408 817 l 1292 817 z "},"E":{"ha":926,"x_min":110,"x_max":851,"o":"m 110 0 l 110 953 l 843 953 l 843 838 l 242 838 l 242 544 l 782 544 l 782 429 l 242 429 l 242 115 l 851 115 l 851 0 l 110 0 z "},"É":{"ha":926,"x_min":110,"x_max":851,"o":"m 110 0 m 110 0 l 110 953 l 843 953 l 843 838 l 242 838 l 242 544 l 782 544 l 782 429 l 242 429 l 242 115 l 851 115 l 851 0 l 110 0 m 411 1022 l 531 1206 l 664 1206 l 665 1201 l 515 1022 l 411 1022 z "},"Ĕ":{"ha":926,"x_min":110,"x_max":851,"o":"m 110 0 m 110 0 l 110 953 l 843 953 l 843 838 l 242 838 l 242 544 l 782 544 l 782 429 l 242 429 l 242 115 l 851 115 l 851 0 l 110 0 m 463 1043 q 308 1091 356 1043 q 261 1206 261 1139 l 346 1206 q 463 1132 363 1132 q 549 1154 522 1132 q 581 1206 576 1176 l 665 1206 q 617 1091 665 1139 q 463 1043 569 1043 z "},"Ě":{"ha":926,"x_min":110,"x_max":851,"o":"m 110 0 m 110 0 l 110 953 l 843 953 l 843 838 l 242 838 l 242 544 l 782 544 l 782 429 l 242 429 l 242 115 l 851 115 l 851 0 l 110 0 m 406 1018 l 258 1206 l 383 1206 l 464 1096 l 543 1206 l 668 1206 l 522 1018 l 406 1018 z "},"Ê":{"ha":926,"x_min":110,"x_max":851,"o":"m 110 0 m 110 0 l 110 953 l 843 953 l 843 838 l 242 838 l 242 544 l 782 544 l 782 429 l 242 429 l 242 115 l 851 115 l 851 0 l 110 0 m 258 1018 l 406 1206 l 522 1206 l 668 1018 l 543 1018 l 464 1128 l 383 1018 l 258 1018 z "},"Ế":{"ha":926,"x_min":110,"x_max":851,"o":"m 110 0 m 110 0 l 110 953 l 843 953 l 843 838 l 242 838 l 242 544 l 782 544 l 782 429 l 242 429 l 242 115 l 851 115 l 851 0 l 110 0 m 258 1018 l 406 1206 l 522 1206 l 668 1018 l 543 1018 l 464 1128 l 383 1018 l 258 1018 m 594 1154 l 714 1338 l 847 1338 l 849 1333 l 699 1154 l 594 1154 z "},"Ệ":{"ha":926,"x_min":110,"x_max":851,"o":"m 110 0 m 110 0 l 110 953 l 843 953 l 843 838 l 242 838 l 242 544 l 782 544 l 782 429 l 242 429 l 242 115 l 851 115 l 851 0 l 110 0 m 258 1018 l 406 1206 l 522 1206 l 668 1018 l 543 1018 l 464 1128 l 383 1018 l 258 1018 m 403 -240 l 403 -108 l 524 -108 l 524 -240 l 403 -240 z "},"Ề":{"ha":926,"x_min":110,"x_max":851,"o":"m 110 0 m 110 0 l 110 953 l 843 953 l 843 838 l 242 838 l 242 544 l 782 544 l 782 429 l 242 429 l 242 115 l 851 115 l 851 0 l 110 0 m 258 1018 l 406 1206 l 522 1206 l 668 1018 l 543 1018 l 464 1128 l 383 1018 l 258 1018 m 650 1154 l 500 1333 l 501 1338 l 635 1338 l 754 1154 l 650 1154 z "},"Ể":{"ha":926,"x_min":110,"x_max":851,"o":"m 110 0 m 110 0 l 110 953 l 843 953 l 843 838 l 242 838 l 242 544 l 782 544 l 782 429 l 242 429 l 242 115 l 851 115 l 851 0 l 110 0 m 258 1018 l 406 1206 l 522 1206 l 668 1018 l 543 1018 l 464 1128 l 383 1018 l 258 1018 m 608 1239 l 626 1239 q 667 1264 667 1239 q 656 1283 667 1278 q 624 1289 646 1289 l 540 1289 l 540 1343 q 640 1354 588 1354 q 729 1335 692 1354 q 767 1271 767 1317 q 744 1216 767 1236 q 686 1193 721 1196 l 686 1154 l 608 1154 l 608 1239 z "},"Ễ":{"ha":926,"x_min":110,"x_max":851,"o":"m 110 0 m 110 0 l 110 953 l 843 953 l 843 838 l 242 838 l 242 544 l 782 544 l 782 429 l 242 429 l 242 115 l 851 115 l 851 0 l 110 0 m 258 1018 l 406 1206 l 522 1206 l 668 1018 l 543 1018 l 464 1128 l 383 1018 l 258 1018 m 239 1283 q 268 1387 239 1346 q 357 1428 297 1428 q 408 1422 383 1428 q 467 1406 432 1417 q 564 1385 526 1385 q 603 1428 599 1385 l 693 1428 q 664 1324 693 1365 q 575 1283 635 1283 q 524 1289 549 1283 q 465 1306 500 1294 q 368 1326 406 1326 q 329 1283 333 1326 l 239 1283 z "},"Ȅ":{"ha":926,"x_min":110,"x_max":851,"o":"m 110 0 m 110 0 l 110 953 l 843 953 l 843 838 l 242 838 l 242 544 l 782 544 l 782 429 l 242 429 l 242 115 l 851 115 l 851 0 l 110 0 m 335 1022 l 218 1201 l 219 1206 l 354 1206 l 440 1022 l 335 1022 m 528 1022 l 411 1201 l 413 1206 l 547 1206 l 633 1022 l 528 1022 z "},"Ë":{"ha":926,"x_min":110,"x_max":851,"o":"m 110 0 m 110 0 l 110 953 l 843 953 l 843 838 l 242 838 l 242 544 l 782 544 l 782 429 l 242 429 l 242 115 l 851 115 l 851 0 l 110 0 m 274 1074 l 274 1206 l 394 1206 l 394 1074 l 274 1074 m 533 1074 l 533 1206 l 654 1206 l 654 1074 l 533 1074 z "},"Ė":{"ha":926,"x_min":110,"x_max":851,"o":"m 110 0 m 110 0 l 110 953 l 843 953 l 843 838 l 242 838 l 242 544 l 782 544 l 782 429 l 242 429 l 242 115 l 851 115 l 851 0 l 110 0 m 403 1074 l 403 1206 l 524 1206 l 524 1074 l 403 1074 z "},"Ẹ":{"ha":926,"x_min":110,"x_max":851,"o":"m 110 0 m 110 0 l 110 953 l 843 953 l 843 838 l 242 838 l 242 544 l 782 544 l 782 429 l 242 429 l 242 115 l 851 115 l 851 0 l 110 0 m 403 -240 l 403 -108 l 524 -108 l 524 -240 l 403 -240 z "},"È":{"ha":926,"x_min":110,"x_max":851,"o":"m 110 0 m 110 0 l 110 953 l 843 953 l 843 838 l 242 838 l 242 544 l 782 544 l 782 429 l 242 429 l 242 115 l 851 115 l 851 0 l 110 0 m 411 1022 l 261 1201 l 263 1206 l 396 1206 l 515 1022 l 411 1022 z "},"Ẻ":{"ha":926,"x_min":110,"x_max":851,"o":"m 110 0 m 110 0 l 110 953 l 843 953 l 843 838 l 242 838 l 242 544 l 782 544 l 782 429 l 242 429 l 242 115 l 851 115 l 851 0 l 110 0 m 425 1107 l 443 1107 q 483 1132 483 1107 q 473 1151 483 1146 q 440 1157 463 1157 l 357 1157 l 357 1211 q 457 1222 404 1222 q 546 1203 508 1222 q 583 1139 583 1185 q 560 1084 583 1104 q 503 1061 538 1064 l 503 1022 l 425 1022 l 425 1107 z "},"Ȇ":{"ha":926,"x_min":110,"x_max":851,"o":"m 110 0 m 110 0 l 110 953 l 843 953 l 843 838 l 242 838 l 242 544 l 782 544 l 782 429 l 242 429 l 242 115 l 851 115 l 851 0 l 110 0 m 261 1043 q 308 1158 261 1110 q 463 1206 356 1206 q 617 1158 569 1206 q 665 1043 665 1110 l 581 1043 q 549 1094 576 1072 q 463 1117 522 1117 q 346 1043 363 1117 l 261 1043 z "},"Ē":{"ha":926,"x_min":110,"x_max":851,"o":"m 110 0 m 110 0 l 110 953 l 843 953 l 843 838 l 242 838 l 242 544 l 782 544 l 782 429 l 242 429 l 242 115 l 851 115 l 851 0 l 110 0 m 251 1072 l 251 1172 l 675 1172 l 675 1072 l 251 1072 z "},"Ę":{"ha":926,"x_min":110,"x_max":851,"o":"m 761 -253 q 668 -224 711 -253 q 625 -131 625 -194 q 713 0 625 -44 l 110 0 l 110 953 l 843 953 l 843 838 l 242 838 l 242 544 l 782 544 l 782 429 l 242 429 l 242 115 l 851 115 l 851 0 q 764 -30 794 0 q 733 -92 733 -60 q 751 -142 733 -122 q 807 -162 769 -162 l 851 -162 l 851 -233 q 761 -253 804 -253 z "},"Ẽ":{"ha":926,"x_min":110,"x_max":851,"o":"m 110 0 m 110 0 l 110 953 l 843 953 l 843 838 l 242 838 l 242 544 l 782 544 l 782 429 l 242 429 l 242 115 l 851 115 l 851 0 l 110 0 m 236 1061 q 265 1165 236 1124 q 354 1206 294 1206 q 405 1200 381 1206 q 464 1183 429 1194 q 561 1163 524 1163 q 600 1206 596 1163 l 690 1206 q 661 1102 690 1143 q 572 1061 632 1061 q 522 1067 546 1061 q 463 1083 497 1072 q 365 1104 403 1104 q 326 1061 331 1104 l 236 1061 z "},"F":{"ha":849,"x_min":110,"x_max":785,"o":"m 110 0 l 110 953 l 785 953 l 785 838 l 242 838 l 242 535 l 735 535 l 735 419 l 242 419 l 242 0 l 110 0 z "},"G":{"ha":1081,"x_min":65,"x_max":982,"o":"m 514 496 l 982 496 l 982 0 l 879 0 l 869 106 q 538 -17 761 -17 q 185 106 304 -17 q 65 476 65 229 q 546 969 65 969 q 863 882 743 969 q 982 628 982 794 l 847 628 q 767 800 847 743 q 546 857 686 857 q 288 768 372 857 q 203 476 203 679 l 203 474 q 287 184 204 272 q 538 96 369 96 q 774 163 699 96 q 850 367 850 229 l 850 381 l 514 381 l 514 496 z "},"Ǵ":{"ha":1081,"x_min":65,"x_max":982,"o":"m 65 0 m 514 496 l 982 496 l 982 0 l 879 0 l 869 106 q 538 -17 761 -17 q 185 106 304 -17 q 65 476 65 229 q 546 969 65 969 q 863 882 743 969 q 982 628 982 794 l 847 628 q 767 800 847 743 q 546 857 686 857 q 288 768 372 857 q 203 476 203 679 l 203 474 q 287 184 204 272 q 538 96 369 96 q 774 163 699 96 q 850 367 850 229 l 850 381 l 514 381 l 514 496 m 488 1022 l 607 1206 l 740 1206 l 742 1201 l 592 1022 l 488 1022 z "},"Ğ":{"ha":1081,"x_min":65,"x_max":982,"o":"m 65 0 m 514 496 l 982 496 l 982 0 l 879 0 l 869 106 q 538 -17 761 -17 q 185 106 304 -17 q 65 476 65 229 q 546 969 65 969 q 863 882 743 969 q 982 628 982 794 l 847 628 q 767 800 847 743 q 546 857 686 857 q 288 768 372 857 q 203 476 203 679 l 203 474 q 287 184 204 272 q 538 96 369 96 q 774 163 699 96 q 850 367 850 229 l 850 381 l 514 381 l 514 496 m 539 1043 q 385 1091 432 1043 q 338 1206 338 1139 l 422 1206 q 539 1132 439 1132 q 626 1154 599 1132 q 657 1206 653 1176 l 742 1206 q 694 1091 742 1139 q 539 1043 646 1043 z "},"Ǧ":{"ha":1081,"x_min":65,"x_max":982,"o":"m 65 0 m 514 496 l 982 496 l 982 0 l 879 0 l 869 106 q 538 -17 761 -17 q 185 106 304 -17 q 65 476 65 229 q 546 969 65 969 q 863 882 743 969 q 982 628 982 794 l 847 628 q 767 800 847 743 q 546 857 686 857 q 288 768 372 857 q 203 476 203 679 l 203 474 q 287 184 204 272 q 538 96 369 96 q 774 163 699 96 q 850 367 850 229 l 850 381 l 514 381 l 514 496 m 482 1018 l 335 1206 l 460 1206 l 540 1096 l 619 1206 l 744 1206 l 599 1018 l 482 1018 z "},"Ĝ":{"ha":1081,"x_min":65,"x_max":982,"o":"m 65 0 m 514 496 l 982 496 l 982 0 l 879 0 l 869 106 q 538 -17 761 -17 q 185 106 304 -17 q 65 476 65 229 q 546 969 65 969 q 863 882 743 969 q 982 628 982 794 l 847 628 q 767 800 847 743 q 546 857 686 857 q 288 768 372 857 q 203 476 203 679 l 203 474 q 287 184 204 272 q 538 96 369 96 q 774 163 699 96 q 850 367 850 229 l 850 381 l 514 381 l 514 496 m 335 1018 l 482 1206 l 599 1206 l 744 1018 l 619 1018 l 540 1128 l 460 1018 l 335 1018 z "},"Ģ":{"ha":1081,"x_min":65,"x_max":982,"o":"m 65 0 m 514 496 l 982 496 l 982 0 l 879 0 l 869 106 q 538 -17 761 -17 q 185 106 304 -17 q 65 476 65 229 q 546 969 65 969 q 863 882 743 969 q 982 628 982 794 l 847 628 q 767 800 847 743 q 546 857 686 857 q 288 768 372 857 q 203 476 203 679 l 203 474 q 287 184 204 272 q 538 96 369 96 q 774 163 699 96 q 850 367 850 229 l 850 381 l 514 381 l 514 496 m 479 -319 l 531 -207 l 479 -207 l 479 -81 l 601 -81 l 601 -197 l 542 -319 l 479 -319 z "},"Ġ":{"ha":1081,"x_min":65,"x_max":982,"o":"m 65 0 m 514 496 l 982 496 l 982 0 l 879 0 l 869 106 q 538 -17 761 -17 q 185 106 304 -17 q 65 476 65 229 q 546 969 65 969 q 863 882 743 969 q 982 628 982 794 l 847 628 q 767 800 847 743 q 546 857 686 857 q 288 768 372 857 q 203 476 203 679 l 203 474 q 287 184 204 272 q 538 96 369 96 q 774 163 699 96 q 850 367 850 229 l 850 381 l 514 381 l 514 496 m 479 1074 l 479 1206 l 600 1206 l 600 1074 l 479 1074 z "},"H":{"ha":1003,"x_min":110,"x_max":893,"o":"m 110 0 l 110 953 l 242 953 l 242 544 l 761 544 l 761 953 l 893 953 l 893 0 l 761 0 l 761 429 l 242 429 l 242 0 l 110 0 z "},"Ħ":{"ha":1003,"x_min":13,"x_max":990,"o":"m 110 0 l 110 731 l 13 731 l 13 831 l 110 831 l 110 953 l 242 953 l 242 831 l 761 831 l 761 953 l 893 953 l 893 831 l 990 831 l 990 731 l 893 731 l 893 0 l 761 0 l 761 429 l 242 429 l 242 0 l 110 0 m 242 544 l 761 544 l 761 731 l 242 731 l 242 544 z "},"Ĥ":{"ha":1003,"x_min":110,"x_max":893,"o":"m 110 0 m 110 0 l 110 953 l 242 953 l 242 544 l 761 544 l 761 953 l 893 953 l 893 0 l 761 0 l 761 429 l 242 429 l 242 0 l 110 0 m 296 1018 l 443 1206 l 560 1206 l 706 1018 l 581 1018 l 501 1128 l 421 1018 l 296 1018 z "},"Ḥ":{"ha":1003,"x_min":110,"x_max":893,"o":"m 110 0 m 110 0 l 110 953 l 242 953 l 242 544 l 761 544 l 761 953 l 893 953 l 893 0 l 761 0 l 761 429 l 242 429 l 242 0 l 110 0 m 440 -240 l 440 -108 l 561 -108 l 561 -240 l 440 -240 z "},"I":{"ha":386,"x_min":128,"x_max":260,"o":"m 128 0 l 128 953 l 260 953 l 260 0 l 128 0 z "},"Ĳ":{"ha":1081,"x_min":128,"x_max":972,"o":"m 128 0 m 128 0 l 128 953 l 260 953 l 260 0 l 128 0 m 699 -17 q 497 53 568 -17 q 426 254 426 122 l 426 289 l 558 289 l 558 247 q 594 134 558 172 q 699 96 631 96 q 804 140 768 96 q 840 269 840 183 l 840 953 l 972 953 l 972 276 q 901 57 972 131 q 699 -17 831 -17 z "},"Í":{"ha":386,"x_min":128,"x_max":394,"o":"m 128 0 m 128 0 l 128 953 l 260 953 l 260 0 l 128 0 m 140 1022 l 260 1206 l 393 1206 l 394 1201 l 244 1022 l 140 1022 z "},"Ĭ":{"ha":386,"x_min":-10,"x_max":394,"o":"m 0 0 m 128 0 l 128 953 l 260 953 l 260 0 l 128 0 m 192 1043 q 38 1091 85 1043 q -10 1206 -10 1139 l 75 1206 q 192 1132 92 1132 q 278 1154 251 1132 q 310 1206 306 1176 l 394 1206 q 347 1091 394 1139 q 192 1043 299 1043 z "},"Ǐ":{"ha":386,"x_min":-12,"x_max":397,"o":"m 0 0 m 128 0 l 128 953 l 260 953 l 260 0 l 128 0 m 135 1018 l -12 1206 l 113 1206 l 193 1096 l 272 1206 l 397 1206 l 251 1018 l 135 1018 z "},"Î":{"ha":386,"x_min":-12,"x_max":397,"o":"m 0 0 m 128 0 l 128 953 l 260 953 l 260 0 l 128 0 m -12 1018 l 135 1206 l 251 1206 l 397 1018 l 272 1018 l 193 1128 l 113 1018 l -12 1018 z "},"Ȉ":{"ha":386,"x_min":-53,"x_max":363,"o":"m 0 0 m 128 0 l 128 953 l 260 953 l 260 0 l 128 0 m 64 1022 l -53 1201 l -51 1206 l 83 1206 l 169 1022 l 64 1022 m 257 1022 l 140 1201 l 142 1206 l 276 1206 l 363 1022 l 257 1022 z "},"Ï":{"ha":386,"x_min":3,"x_max":383,"o":"m 3 0 m 128 0 l 128 953 l 260 953 l 260 0 l 128 0 m 3 1074 l 3 1206 l 124 1206 l 124 1074 l 3 1074 m 263 1074 l 263 1206 l 383 1206 l 383 1074 l 263 1074 z "},"İ":{"ha":386,"x_min":128,"x_max":260,"o":"m 128 0 m 128 0 l 128 953 l 260 953 l 260 0 l 128 0 m 132 1074 l 132 1206 l 253 1206 l 253 1074 l 132 1074 z "},"Ị":{"ha":386,"x_min":128,"x_max":260,"o":"m 128 0 m 128 0 l 128 953 l 260 953 l 260 0 l 128 0 m 132 -240 l 132 -108 l 253 -108 l 253 -240 l 132 -240 z "},"Ì":{"ha":386,"x_min":-10,"x_max":260,"o":"m 0 0 m 128 0 l 128 953 l 260 953 l 260 0 l 128 0 m 140 1022 l -10 1201 l -8 1206 l 125 1206 l 244 1022 l 140 1022 z "},"Ỉ":{"ha":386,"x_min":86,"x_max":313,"o":"m 86 0 m 128 0 l 128 953 l 260 953 l 260 0 l 128 0 m 154 1107 l 172 1107 q 213 1132 213 1107 q 202 1151 213 1146 q 169 1157 192 1157 l 86 1157 l 86 1211 q 186 1222 133 1222 q 275 1203 238 1222 q 313 1139 313 1185 q 290 1084 313 1104 q 232 1061 267 1064 l 232 1022 l 154 1022 l 154 1107 z "},"Ȋ":{"ha":386,"x_min":-10,"x_max":394,"o":"m 0 0 m 128 0 l 128 953 l 260 953 l 260 0 l 128 0 m -10 1043 q 38 1158 -10 1110 q 192 1206 85 1206 q 347 1158 299 1206 q 394 1043 394 1110 l 310 1043 q 278 1094 306 1072 q 192 1117 251 1117 q 75 1043 92 1117 l -10 1043 z "},"Ī":{"ha":386,"x_min":-19,"x_max":404,"o":"m 0 0 m 128 0 l 128 953 l 260 953 l 260 0 l 128 0 m -19 1072 l -19 1172 l 404 1172 l 404 1072 l -19 1072 z "},"Į":{"ha":386,"x_min":57,"x_max":283,"o":"m 283 -174 l 283 -244 q 199 -264 238 -264 q 99 -234 140 -264 q 57 -139 57 -204 q 76 -62 57 -94 q 129 0 94 -31 l 128 0 l 128 953 l 260 953 l 260 0 l 218 0 q 181 -45 197 -19 q 165 -97 165 -71 q 183 -151 165 -129 q 239 -174 201 -174 l 283 -174 z "},"Ĩ":{"ha":386,"x_min":-35,"x_max":419,"o":"m 0 0 m 128 0 l 128 953 l 260 953 l 260 0 l 128 0 m -35 1061 q -6 1165 -35 1124 q 83 1206 24 1206 q 134 1200 110 1206 q 193 1183 158 1194 q 290 1163 253 1163 q 329 1206 325 1163 l 419 1206 q 390 1102 419 1143 q 301 1061 361 1061 q 251 1067 275 1061 q 192 1083 226 1072 q 94 1104 132 1104 q 56 1061 60 1104 l -35 1061 z "},"J":{"ha":694,"x_min":40,"x_max":586,"o":"m 313 -17 q 111 53 182 -17 q 40 254 40 122 l 40 289 l 172 289 l 172 247 q 208 134 172 172 q 313 96 244 96 q 418 140 382 96 q 454 269 454 183 l 454 953 l 586 953 l 586 276 q 515 57 586 131 q 313 -17 444 -17 z "},"Ĵ":{"ha":694,"x_min":40,"x_max":725,"o":"m 40 0 m 313 -17 q 111 53 182 -17 q 40 254 40 122 l 40 289 l 172 289 l 172 247 q 208 134 172 172 q 313 96 244 96 q 418 140 382 96 q 454 269 454 183 l 454 953 l 586 953 l 586 276 q 515 57 586 131 q 313 -17 444 -17 m 315 1018 l 463 1206 l 579 1206 l 725 1018 l 600 1018 l 521 1128 l 440 1018 l 315 1018 z "},"K":{"ha":926,"x_min":110,"x_max":922,"o":"m 110 0 l 110 953 l 242 953 l 242 428 l 746 953 l 910 953 l 547 572 l 922 0 l 765 0 l 456 478 l 242 278 l 242 0 l 110 0 z "},"Ķ":{"ha":926,"x_min":110,"x_max":922,"o":"m 110 0 m 110 0 l 110 953 l 242 953 l 242 428 l 746 953 l 910 953 l 547 572 l 922 0 l 765 0 l 456 478 l 242 278 l 242 0 l 110 0 m 403 -319 l 454 -207 l 403 -207 l 403 -81 l 525 -81 l 525 -197 l 465 -319 l 403 -319 z "},"L":{"ha":772,"x_min":110,"x_max":731,"o":"m 110 0 l 110 953 l 242 953 l 242 115 l 731 115 l 731 0 l 110 0 z "},"Ǉ":{"ha":1467,"x_min":110,"x_max":1358,"o":"m 110 0 m 110 0 l 110 953 l 242 953 l 242 115 l 731 115 l 731 0 l 110 0 m 1085 -17 q 883 53 954 -17 q 813 254 813 122 l 813 289 l 944 289 l 944 247 q 981 134 944 172 q 1085 96 1017 96 q 1190 140 1154 96 q 1226 269 1226 183 l 1226 953 l 1358 953 l 1358 276 q 1288 57 1358 131 q 1085 -17 1217 -17 z "},"Ĺ":{"ha":772,"x_min":110,"x_max":731,"o":"m 110 0 m 110 0 l 110 953 l 242 953 l 242 115 l 731 115 l 731 0 l 110 0 m 124 1022 l 243 1206 l 376 1206 l 378 1201 l 228 1022 l 124 1022 z "},"Ľ":{"ha":772,"x_min":110,"x_max":731,"o":"m 110 0 l 110 953 l 242 953 l 242 115 l 731 115 l 731 0 l 110 0 m 444 681 l 492 826 l 444 826 l 444 953 l 563 953 l 563 836 l 506 681 l 444 681 z "},"Ļ":{"ha":772,"x_min":110,"x_max":731,"o":"m 110 0 m 110 0 l 110 953 l 242 953 l 242 115 l 731 115 l 731 0 l 110 0 m 360 -319 l 411 -207 l 360 -207 l 360 -81 l 482 -81 l 482 -197 l 422 -319 l 360 -319 z "},"Ŀ":{"ha":772,"x_min":110,"x_max":731,"o":"m 110 0 m 110 0 l 110 953 l 242 953 l 242 115 l 731 115 l 731 0 l 110 0 m 488 581 l 488 731 l 626 731 l 626 581 l 488 581 z "},"ǈ":{"ha":1081,"x_min":110,"x_max":988,"o":"m 110 0 m 110 0 l 110 953 l 242 953 l 242 115 l 731 115 l 731 0 l 110 0 m 865 868 l 865 1004 l 988 1004 l 988 868 l 865 868 m 835 -253 q 739 -236 786 -253 l 739 -157 l 800 -157 q 865 -90 865 -157 l 865 731 l 988 731 l 988 -85 q 952 -205 988 -157 q 835 -253 917 -253 z "},"Ł":{"ha":772,"x_min":7,"x_max":731,"o":"m 110 0 l 110 368 l 7 300 l 7 413 l 110 481 l 110 953 l 242 953 l 242 568 l 474 722 l 474 608 l 242 454 l 242 115 l 731 115 l 731 0 l 110 0 z "},"M":{"ha":1157,"x_min":110,"x_max":1047,"o":"m 110 953 l 306 953 l 533 303 q 559 220 546 267 q 576 160 572 174 l 582 160 q 599 224 586 175 q 624 303 613 272 l 853 953 l 1047 953 l 1047 0 l 915 0 l 915 629 l 918 807 l 908 807 q 900 767 907 797 q 885 715 893 738 l 626 0 l 517 0 l 263 715 q 248 766 256 735 q 239 807 240 797 l 231 807 l 233 629 l 233 0 l 110 0 l 110 953 z "},"N":{"ha":1003,"x_min":110,"x_max":893,"o":"m 110 0 l 110 953 l 228 953 l 731 289 l 764 244 l 769 246 l 769 311 l 769 953 l 893 953 l 893 0 l 781 0 l 275 672 l 239 721 l 233 719 l 233 654 l 233 0 l 110 0 z "},"Ǌ":{"ha":1697,"x_min":110,"x_max":1589,"o":"m 110 0 m 110 0 l 110 953 l 228 953 l 731 289 l 764 244 l 769 246 l 769 311 l 769 953 l 893 953 l 893 0 l 781 0 l 275 672 l 239 721 l 233 719 l 233 654 l 233 0 l 110 0 m 1315 -17 q 1114 53 1185 -17 q 1043 254 1043 122 l 1043 289 l 1175 289 l 1175 247 q 1211 134 1175 172 q 1315 96 1247 96 q 1421 140 1385 96 q 1457 269 1457 183 l 1457 953 l 1589 953 l 1589 276 q 1518 57 1589 131 q 1315 -17 1447 -17 z "},"Ń":{"ha":1003,"x_min":110,"x_max":893,"o":"m 110 0 m 110 0 l 110 953 l 228 953 l 731 289 l 764 244 l 769 246 l 769 311 l 769 953 l 893 953 l 893 0 l 781 0 l 275 672 l 239 721 l 233 719 l 233 654 l 233 0 l 110 0 m 449 1022 l 568 1206 l 701 1206 l 703 1201 l 553 1022 l 449 1022 z "},"Ň":{"ha":1003,"x_min":110,"x_max":893,"o":"m 110 0 m 110 0 l 110 953 l 228 953 l 731 289 l 764 244 l 769 246 l 769 311 l 769 953 l 893 953 l 893 0 l 781 0 l 275 672 l 239 721 l 233 719 l 233 654 l 233 0 l 110 0 m 443 1018 l 296 1206 l 421 1206 l 501 1096 l 581 1206 l 706 1206 l 560 1018 l 443 1018 z "},"Ņ":{"ha":1003,"x_min":110,"x_max":893,"o":"m 110 0 m 110 0 l 110 953 l 228 953 l 731 289 l 764 244 l 769 246 l 769 311 l 769 953 l 893 953 l 893 0 l 781 0 l 275 672 l 239 721 l 233 719 l 233 654 l 233 0 l 110 0 m 440 -319 l 492 -207 l 440 -207 l 440 -81 l 563 -81 l 563 -197 l 503 -319 l 440 -319 z "},"Ṅ":{"ha":1003,"x_min":110,"x_max":893,"o":"m 110 0 m 110 0 l 110 953 l 228 953 l 731 289 l 764 244 l 769 246 l 769 311 l 769 953 l 893 953 l 893 0 l 781 0 l 275 672 l 239 721 l 233 719 l 233 654 l 233 0 l 110 0 m 440 1074 l 440 1206 l 561 1206 l 561 1074 l 440 1074 z "},"Ŋ":{"ha":1003,"x_min":110,"x_max":893,"o":"m 740 -253 q 644 -236 692 -253 l 644 -157 l 704 -157 q 769 -90 769 -157 l 769 0 l 278 674 l 258 697 l 239 719 l 233 718 q 236 653 236 674 l 233 0 l 110 0 l 110 953 l 228 953 l 731 289 l 764 244 l 769 246 l 769 311 l 769 953 l 893 953 l 893 -85 q 858 -205 893 -157 q 740 -253 822 -253 z "},"Ɲ":{"ha":1003,"x_min":-15,"x_max":893,"o":"m 81 -253 q -15 -236 32 -253 l -15 -157 l 44 -157 q 110 -90 110 -157 l 110 953 l 228 953 l 731 289 l 764 244 l 769 246 l 769 311 l 769 953 l 893 953 l 893 0 l 781 0 l 294 647 l 239 721 l 233 719 l 233 619 l 233 -85 q 198 -205 233 -157 q 81 -253 163 -253 z "},"ǋ":{"ha":1311,"x_min":110,"x_max":1218,"o":"m 110 0 m 110 0 l 110 953 l 228 953 l 731 289 l 764 244 l 769 246 l 769 311 l 769 953 l 893 953 l 893 0 l 781 0 l 275 672 l 239 721 l 233 719 l 233 654 l 233 0 l 110 0 m 1096 868 l 1096 1004 l 1218 1004 l 1218 868 l 1096 868 m 1065 -253 q 969 -236 1017 -253 l 969 -157 l 1031 -157 q 1096 -90 1096 -157 l 1096 731 l 1218 731 l 1218 -85 q 1183 -205 1218 -157 q 1065 -253 1147 -253 z "},"Ñ":{"ha":1003,"x_min":110,"x_max":893,"o":"m 110 0 m 110 0 l 110 953 l 228 953 l 731 289 l 764 244 l 769 246 l 769 311 l 769 953 l 893 953 l 893 0 l 781 0 l 275 672 l 239 721 l 233 719 l 233 654 l 233 0 l 110 0 m 274 1061 q 303 1165 274 1124 q 392 1206 332 1206 q 442 1200 418 1206 q 501 1183 467 1194 q 599 1163 561 1163 q 638 1206 633 1163 l 728 1206 q 699 1102 728 1143 q 610 1061 669 1061 q 559 1067 583 1061 q 500 1083 535 1072 q 403 1104 440 1104 q 364 1061 368 1104 l 274 1061 z "},"O":{"ha":1081,"x_min":65,"x_max":1017,"o":"m 540 -17 q 190 108 314 -17 q 65 476 65 232 q 190 845 65 721 q 540 969 314 969 q 892 845 768 969 q 1017 476 1017 721 q 892 108 1017 233 q 540 -17 768 -17 m 540 96 q 793 185 706 96 q 881 471 881 275 l 881 476 q 792 766 879 675 q 540 857 704 857 q 290 766 378 857 q 201 476 203 675 l 201 471 q 289 185 201 275 q 540 96 376 96 z "},"Ó":{"ha":1081,"x_min":65,"x_max":1017,"o":"m 65 0 m 540 -17 q 190 108 314 -17 q 65 476 65 232 q 190 845 65 721 q 540 969 314 969 q 892 845 768 969 q 1017 476 1017 721 q 892 108 1017 233 q 540 -17 768 -17 m 540 96 q 793 185 706 96 q 881 471 881 275 l 881 476 q 792 766 879 675 q 540 857 704 857 q 290 766 378 857 q 201 476 203 675 l 201 471 q 289 185 201 275 q 540 96 376 96 m 488 1022 l 607 1206 l 740 1206 l 742 1201 l 592 1022 l 488 1022 z "},"Ŏ":{"ha":1081,"x_min":65,"x_max":1017,"o":"m 65 0 m 540 -17 q 190 108 314 -17 q 65 476 65 232 q 190 845 65 721 q 540 969 314 969 q 892 845 768 969 q 1017 476 1017 721 q 892 108 1017 233 q 540 -17 768 -17 m 540 96 q 793 185 706 96 q 881 471 881 275 l 881 476 q 792 766 879 675 q 540 857 704 857 q 290 766 378 857 q 201 476 203 675 l 201 471 q 289 185 201 275 q 540 96 376 96 m 539 1043 q 385 1091 432 1043 q 338 1206 338 1139 l 422 1206 q 539 1132 439 1132 q 626 1154 599 1132 q 657 1206 653 1176 l 742 1206 q 694 1091 742 1139 q 539 1043 646 1043 z "},"Ǒ":{"ha":1081,"x_min":65,"x_max":1017,"o":"m 65 0 m 540 -17 q 190 108 314 -17 q 65 476 65 232 q 190 845 65 721 q 540 969 314 969 q 892 845 768 969 q 1017 476 1017 721 q 892 108 1017 233 q 540 -17 768 -17 m 540 96 q 793 185 706 96 q 881 471 881 275 l 881 476 q 792 766 879 675 q 540 857 704 857 q 290 766 378 857 q 201 476 203 675 l 201 471 q 289 185 201 275 q 540 96 376 96 m 482 1018 l 335 1206 l 460 1206 l 540 1096 l 619 1206 l 744 1206 l 599 1018 l 482 1018 z "},"Ô":{"ha":1081,"x_min":65,"x_max":1017,"o":"m 65 0 m 540 -17 q 190 108 314 -17 q 65 476 65 232 q 190 845 65 721 q 540 969 314 969 q 892 845 768 969 q 1017 476 1017 721 q 892 108 1017 233 q 540 -17 768 -17 m 540 96 q 793 185 706 96 q 881 471 881 275 l 881 476 q 792 766 879 675 q 540 857 704 857 q 290 766 378 857 q 201 476 203 675 l 201 471 q 289 185 201 275 q 540 96 376 96 m 335 1018 l 482 1206 l 599 1206 l 744 1018 l 619 1018 l 540 1128 l 460 1018 l 335 1018 z "},"Ố":{"ha":1081,"x_min":65,"x_max":1017,"o":"m 65 0 m 540 -17 q 190 108 314 -17 q 65 476 65 232 q 190 845 65 721 q 540 969 314 969 q 892 845 768 969 q 1017 476 1017 721 q 892 108 1017 233 q 540 -17 768 -17 m 540 96 q 793 185 706 96 q 881 471 881 275 l 881 476 q 792 766 879 675 q 540 857 704 857 q 290 766 378 857 q 201 476 203 675 l 201 471 q 289 185 201 275 q 540 96 376 96 m 335 1018 l 482 1206 l 599 1206 l 744 1018 l 619 1018 l 540 1128 l 460 1018 l 335 1018 m 671 1154 l 790 1338 l 924 1338 l 925 1333 l 775 1154 l 671 1154 z "},"Ộ":{"ha":1081,"x_min":65,"x_max":1017,"o":"m 65 0 m 540 -17 q 190 108 314 -17 q 65 476 65 232 q 190 845 65 721 q 540 969 314 969 q 892 845 768 969 q 1017 476 1017 721 q 892 108 1017 233 q 540 -17 768 -17 m 540 96 q 793 185 706 96 q 881 471 881 275 l 881 476 q 792 766 879 675 q 540 857 704 857 q 290 766 378 857 q 201 476 203 675 l 201 471 q 289 185 201 275 q 540 96 376 96 m 335 1018 l 482 1206 l 599 1206 l 744 1018 l 619 1018 l 540 1128 l 460 1018 l 335 1018 m 479 -240 l 479 -108 l 600 -108 l 600 -240 l 479 -240 z "},"Ồ":{"ha":1081,"x_min":65,"x_max":1017,"o":"m 65 0 m 540 -17 q 190 108 314 -17 q 65 476 65 232 q 190 845 65 721 q 540 969 314 969 q 892 845 768 969 q 1017 476 1017 721 q 892 108 1017 233 q 540 -17 768 -17 m 540 96 q 793 185 706 96 q 881 471 881 275 l 881 476 q 792 766 879 675 q 540 857 704 857 q 290 766 378 857 q 201 476 203 675 l 201 471 q 289 185 201 275 q 540 96 376 96 m 335 1018 l 482 1206 l 599 1206 l 744 1018 l 619 1018 l 540 1128 l 460 1018 l 335 1018 m 726 1154 l 576 1333 l 578 1338 l 711 1338 l 831 1154 l 726 1154 z "},"Ổ":{"ha":1081,"x_min":65,"x_max":1017,"o":"m 65 0 m 540 -17 q 190 108 314 -17 q 65 476 65 232 q 190 845 65 721 q 540 969 314 969 q 892 845 768 969 q 1017 476 1017 721 q 892 108 1017 233 q 540 -17 768 -17 m 540 96 q 793 185 706 96 q 881 471 881 275 l 881 476 q 792 766 879 675 q 540 857 704 857 q 290 766 378 857 q 201 476 203 675 l 201 471 q 289 185 201 275 q 540 96 376 96 m 335 1018 l 482 1206 l 599 1206 l 744 1018 l 619 1018 l 540 1128 l 460 1018 l 335 1018 m 685 1239 l 703 1239 q 743 1264 743 1239 q 733 1283 743 1278 q 700 1289 722 1289 l 617 1289 l 617 1343 q 717 1354 664 1354 q 806 1335 768 1354 q 843 1271 843 1317 q 820 1216 843 1236 q 763 1193 797 1196 l 763 1154 l 685 1154 l 685 1239 z "},"Ỗ":{"ha":1081,"x_min":65,"x_max":1017,"o":"m 65 0 m 540 -17 q 190 108 314 -17 q 65 476 65 232 q 190 845 65 721 q 540 969 314 969 q 892 845 768 969 q 1017 476 1017 721 q 892 108 1017 233 q 540 -17 768 -17 m 540 96 q 793 185 706 96 q 881 471 881 275 l 881 476 q 792 766 879 675 q 540 857 704 857 q 290 766 378 857 q 201 476 203 675 l 201 471 q 289 185 201 275 q 540 96 376 96 m 335 1018 l 482 1206 l 599 1206 l 744 1018 l 619 1018 l 540 1128 l 460 1018 l 335 1018 m 315 1283 q 344 1387 315 1346 q 433 1428 374 1428 q 484 1422 460 1428 q 543 1406 508 1417 q 640 1385 603 1385 q 679 1428 675 1385 l 769 1428 q 740 1324 769 1365 q 651 1283 711 1283 q 601 1289 625 1283 q 542 1306 576 1294 q 444 1326 482 1326 q 406 1283 410 1326 l 315 1283 z "},"Ȍ":{"ha":1081,"x_min":65,"x_max":1017,"o":"m 65 0 m 540 -17 q 190 108 314 -17 q 65 476 65 232 q 190 845 65 721 q 540 969 314 969 q 892 845 768 969 q 1017 476 1017 721 q 892 108 1017 233 q 540 -17 768 -17 m 540 96 q 793 185 706 96 q 881 471 881 275 l 881 476 q 792 766 879 675 q 540 857 704 857 q 290 766 378 857 q 201 476 203 675 l 201 471 q 289 185 201 275 q 540 96 376 96 m 411 1022 l 294 1201 l 296 1206 l 431 1206 l 517 1022 l 411 1022 m 604 1022 l 488 1201 l 489 1206 l 624 1206 l 710 1022 l 604 1022 z "},"Ö":{"ha":1081,"x_min":65,"x_max":1017,"o":"m 65 0 m 540 -17 q 190 108 314 -17 q 65 476 65 232 q 190 845 65 721 q 540 969 314 969 q 892 845 768 969 q 1017 476 1017 721 q 892 108 1017 233 q 540 -17 768 -17 m 540 96 q 793 185 706 96 q 881 471 881 275 l 881 476 q 792 766 879 675 q 540 857 704 857 q 290 766 378 857 q 201 476 203 675 l 201 471 q 289 185 201 275 q 540 96 376 96 m 350 1074 l 350 1206 l 471 1206 l 471 1074 l 350 1074 m 610 1074 l 610 1206 l 731 1206 l 731 1074 l 610 1074 z "},"Ọ":{"ha":1081,"x_min":65,"x_max":1017,"o":"m 65 0 m 540 -17 q 190 108 314 -17 q 65 476 65 232 q 190 845 65 721 q 540 969 314 969 q 892 845 768 969 q 1017 476 1017 721 q 892 108 1017 233 q 540 -17 768 -17 m 540 96 q 793 185 706 96 q 881 471 881 275 l 881 476 q 792 766 879 675 q 540 857 704 857 q 290 766 378 857 q 201 476 203 675 l 201 471 q 289 185 201 275 q 540 96 376 96 m 479 -240 l 479 -108 l 600 -108 l 600 -240 l 479 -240 z "},"Ò":{"ha":1081,"x_min":65,"x_max":1017,"o":"m 65 0 m 540 -17 q 190 108 314 -17 q 65 476 65 232 q 190 845 65 721 q 540 969 314 969 q 892 845 768 969 q 1017 476 1017 721 q 892 108 1017 233 q 540 -17 768 -17 m 540 96 q 793 185 706 96 q 881 471 881 275 l 881 476 q 792 766 879 675 q 540 857 704 857 q 290 766 378 857 q 201 476 203 675 l 201 471 q 289 185 201 275 q 540 96 376 96 m 488 1022 l 338 1201 l 339 1206 l 472 1206 l 592 1022 l 488 1022 z "},"Ỏ":{"ha":1081,"x_min":65,"x_max":1017,"o":"m 65 0 m 540 -17 q 190 108 314 -17 q 65 476 65 232 q 190 845 65 721 q 540 969 314 969 q 892 845 768 969 q 1017 476 1017 721 q 892 108 1017 233 q 540 -17 768 -17 m 540 96 q 793 185 706 96 q 881 471 881 275 l 881 476 q 792 766 879 675 q 540 857 704 857 q 290 766 378 857 q 201 476 203 675 l 201 471 q 289 185 201 275 q 540 96 376 96 m 501 1107 l 519 1107 q 560 1132 560 1107 q 549 1151 560 1146 q 517 1157 539 1157 l 433 1157 l 433 1211 q 533 1222 481 1222 q 622 1203 585 1222 q 660 1139 660 1185 q 637 1084 660 1104 q 579 1061 614 1064 l 579 1022 l 501 1022 l 501 1107 z "},"Ơ":{"ha":1081,"x_min":65,"x_max":1081,"o":"m 1081 1075 q 1038 920 1081 983 q 911 825 994 857 q 1017 476 1017 697 q 892 108 1017 233 q 540 -17 768 -17 q 190 108 314 -17 q 65 476 65 232 q 190 845 65 721 q 540 969 314 969 q 846 885 731 969 q 988 1000 963 910 l 914 1000 l 914 1150 l 1081 1150 l 1081 1075 m 881 476 q 792 766 879 675 q 540 857 704 857 q 290 766 378 857 q 201 476 203 675 l 201 471 q 289 185 201 275 q 540 96 376 96 q 793 185 706 96 q 881 471 881 275 l 881 476 z "},"Ớ":{"ha":1081,"x_min":65,"x_max":1081,"o":"m 65 0 m 1081 1075 q 1038 920 1081 983 q 911 825 994 857 q 1017 476 1017 697 q 892 108 1017 233 q 540 -17 768 -17 q 190 108 314 -17 q 65 476 65 232 q 190 845 65 721 q 540 969 314 969 q 846 885 731 969 q 988 1000 963 910 l 914 1000 l 914 1150 l 1081 1150 l 1081 1075 m 881 476 q 792 766 879 675 q 540 857 704 857 q 290 766 378 857 q 201 476 203 675 l 201 471 q 289 185 201 275 q 540 96 376 96 q 793 185 706 96 q 881 471 881 275 l 881 476 m 488 1022 l 607 1206 l 740 1206 l 742 1201 l 592 1022 l 488 1022 z "},"Ợ":{"ha":1081,"x_min":65,"x_max":1081,"o":"m 65 0 m 1081 1075 q 1038 920 1081 983 q 911 825 994 857 q 1017 476 1017 697 q 892 108 1017 233 q 540 -17 768 -17 q 190 108 314 -17 q 65 476 65 232 q 190 845 65 721 q 540 969 314 969 q 846 885 731 969 q 988 1000 963 910 l 914 1000 l 914 1150 l 1081 1150 l 1081 1075 m 881 476 q 792 766 879 675 q 540 857 704 857 q 290 766 378 857 q 201 476 203 675 l 201 471 q 289 185 201 275 q 540 96 376 96 q 793 185 706 96 q 881 471 881 275 l 881 476 m 479 -240 l 479 -108 l 600 -108 l 600 -240 l 479 -240 z "},"Ờ":{"ha":1081,"x_min":65,"x_max":1081,"o":"m 65 0 m 1081 1075 q 1038 920 1081 983 q 911 825 994 857 q 1017 476 1017 697 q 892 108 1017 233 q 540 -17 768 -17 q 190 108 314 -17 q 65 476 65 232 q 190 845 65 721 q 540 969 314 969 q 846 885 731 969 q 988 1000 963 910 l 914 1000 l 914 1150 l 1081 1150 l 1081 1075 m 881 476 q 792 766 879 675 q 540 857 704 857 q 290 766 378 857 q 201 476 203 675 l 201 471 q 289 185 201 275 q 540 96 376 96 q 793 185 706 96 q 881 471 881 275 l 881 476 m 488 1022 l 338 1201 l 339 1206 l 472 1206 l 592 1022 l 488 1022 z "},"Ở":{"ha":1081,"x_min":65,"x_max":1081,"o":"m 65 0 m 1081 1075 q 1038 920 1081 983 q 911 825 994 857 q 1017 476 1017 697 q 892 108 1017 233 q 540 -17 768 -17 q 190 108 314 -17 q 65 476 65 232 q 190 845 65 721 q 540 969 314 969 q 846 885 731 969 q 988 1000 963 910 l 914 1000 l 914 1150 l 1081 1150 l 1081 1075 m 881 476 q 792 766 879 675 q 540 857 704 857 q 290 766 378 857 q 201 476 203 675 l 201 471 q 289 185 201 275 q 540 96 376 96 q 793 185 706 96 q 881 471 881 275 l 881 476 m 501 1107 l 519 1107 q 560 1132 560 1107 q 549 1151 560 1146 q 517 1157 539 1157 l 433 1157 l 433 1211 q 533 1222 481 1222 q 622 1203 585 1222 q 660 1139 660 1185 q 637 1084 660 1104 q 579 1061 614 1064 l 579 1022 l 501 1022 l 501 1107 z "},"Ỡ":{"ha":1081,"x_min":65,"x_max":1081,"o":"m 65 0 m 1081 1075 q 1038 920 1081 983 q 911 825 994 857 q 1017 476 1017 697 q 892 108 1017 233 q 540 -17 768 -17 q 190 108 314 -17 q 65 476 65 232 q 190 845 65 721 q 540 969 314 969 q 846 885 731 969 q 988 1000 963 910 l 914 1000 l 914 1150 l 1081 1150 l 1081 1075 m 881 476 q 792 766 879 675 q 540 857 704 857 q 290 766 378 857 q 201 476 203 675 l 201 471 q 289 185 201 275 q 540 96 376 96 q 793 185 706 96 q 881 471 881 275 l 881 476 m 313 1061 q 342 1165 313 1124 q 431 1206 371 1206 q 481 1200 457 1206 q 540 1183 506 1194 q 638 1163 600 1163 q 676 1206 672 1163 l 767 1206 q 738 1102 767 1143 q 649 1061 708 1061 q 598 1067 622 1061 q 539 1083 574 1072 q 442 1104 479 1104 q 403 1061 407 1104 l 313 1061 z "},"Ő":{"ha":1081,"x_min":65,"x_max":1017,"o":"m 65 0 m 540 -17 q 190 108 314 -17 q 65 476 65 232 q 190 845 65 721 q 540 969 314 969 q 892 845 768 969 q 1017 476 1017 721 q 892 108 1017 233 q 540 -17 768 -17 m 540 96 q 793 185 706 96 q 881 471 881 275 l 881 476 q 792 766 879 675 q 540 857 704 857 q 290 766 378 857 q 201 476 203 675 l 201 471 q 289 185 201 275 q 540 96 376 96 m 390 1022 l 476 1206 l 611 1206 l 613 1201 l 496 1022 l 390 1022 m 583 1022 l 669 1206 l 804 1206 l 806 1201 l 689 1022 l 583 1022 z "},"Ȏ":{"ha":1081,"x_min":65,"x_max":1017,"o":"m 65 0 m 540 -17 q 190 108 314 -17 q 65 476 65 232 q 190 845 65 721 q 540 969 314 969 q 892 845 768 969 q 1017 476 1017 721 q 892 108 1017 233 q 540 -17 768 -17 m 540 96 q 793 185 706 96 q 881 471 881 275 l 881 476 q 792 766 879 675 q 540 857 704 857 q 290 766 378 857 q 201 476 203 675 l 201 471 q 289 185 201 275 q 540 96 376 96 m 338 1043 q 385 1158 338 1110 q 539 1206 432 1206 q 694 1158 646 1206 q 742 1043 742 1110 l 657 1043 q 626 1094 653 1072 q 539 1117 599 1117 q 422 1043 439 1117 l 338 1043 z "},"Ō":{"ha":1081,"x_min":65,"x_max":1017,"o":"m 65 0 m 540 -17 q 190 108 314 -17 q 65 476 65 232 q 190 845 65 721 q 540 969 314 969 q 892 845 768 969 q 1017 476 1017 721 q 892 108 1017 233 q 540 -17 768 -17 m 540 96 q 793 185 706 96 q 881 471 881 275 l 881 476 q 792 766 879 675 q 540 857 704 857 q 290 766 378 857 q 201 476 203 675 l 201 471 q 289 185 201 275 q 540 96 376 96 m 328 1072 l 328 1172 l 751 1172 l 751 1072 l 328 1072 z "},"Ǫ":{"ha":1081,"x_min":65,"x_max":1017,"o":"m 735 11 q 698 -34 714 -8 q 682 -86 682 -60 q 700 -140 682 -118 q 756 -162 718 -162 l 800 -162 l 800 -233 q 715 -253 754 -253 q 615 -223 657 -253 q 574 -128 574 -193 q 622 -12 574 -64 q 540 -17 583 -17 q 190 108 314 -17 q 65 476 65 232 q 190 845 65 721 q 540 969 314 969 q 892 845 768 969 q 1017 476 1017 721 q 944 175 1017 292 q 735 13 871 58 l 735 11 m 201 471 q 289 185 201 275 q 540 96 376 96 q 793 185 706 96 q 881 471 881 275 l 881 476 q 792 766 879 675 q 540 857 704 857 q 290 766 378 857 q 201 476 203 675 l 201 471 z "},"Ø":{"ha":1081,"x_min":65,"x_max":1017,"o":"m 196 101 q 65 476 65 228 q 190 845 65 721 q 540 969 314 969 q 813 906 703 969 l 900 1021 l 1017 1021 l 886 850 q 1017 476 1017 724 q 892 108 1017 233 q 540 -17 768 -17 q 269 44 378 -17 l 183 -68 l 65 -68 l 196 101 m 739 810 q 540 857 658 857 q 289 767 376 857 q 201 482 201 678 l 201 476 q 274 204 201 297 l 739 810 m 540 96 q 793 185 706 96 q 881 471 881 275 l 881 476 q 808 747 881 651 l 344 142 q 540 96 421 96 z "},"Ǿ":{"ha":1081,"x_min":65,"x_max":1017,"o":"m 65 0 m 196 101 q 65 476 65 228 q 190 845 65 721 q 540 969 314 969 q 813 906 703 969 l 900 1021 l 1017 1021 l 886 850 q 1017 476 1017 724 q 892 108 1017 233 q 540 -17 768 -17 q 269 44 378 -17 l 183 -68 l 65 -68 l 196 101 m 739 810 q 540 857 658 857 q 289 767 376 857 q 201 482 201 678 l 201 476 q 274 204 201 297 l 739 810 m 540 96 q 793 185 706 96 q 881 471 881 275 l 881 476 q 808 747 881 651 l 344 142 q 540 96 421 96 m 488 1022 l 607 1206 l 740 1206 l 742 1201 l 592 1022 l 488 1022 z "},"Õ":{"ha":1081,"x_min":65,"x_max":1017,"o":"m 65 0 m 540 -17 q 190 108 314 -17 q 65 476 65 232 q 190 845 65 721 q 540 969 314 969 q 892 845 768 969 q 1017 476 1017 721 q 892 108 1017 233 q 540 -17 768 -17 m 540 96 q 793 185 706 96 q 881 471 881 275 l 881 476 q 792 766 879 675 q 540 857 704 857 q 290 766 378 857 q 201 476 203 675 l 201 471 q 289 185 201 275 q 540 96 376 96 m 313 1061 q 342 1165 313 1124 q 431 1206 371 1206 q 481 1200 457 1206 q 540 1183 506 1194 q 638 1163 600 1163 q 676 1206 672 1163 l 767 1206 q 738 1102 767 1143 q 649 1061 708 1061 q 598 1067 622 1061 q 539 1083 574 1072 q 442 1104 479 1104 q 403 1061 407 1104 l 313 1061 z "},"Œ":{"ha":1389,"x_min":65,"x_max":1314,"o":"m 446 -17 q 165 108 264 -17 q 65 476 65 232 q 165 845 65 721 q 446 969 264 969 q 704 847 610 969 l 704 953 l 1304 953 l 1304 842 l 836 842 l 836 543 l 1228 543 l 1228 432 l 836 432 l 836 111 l 1314 111 l 1314 0 l 704 0 l 704 106 q 446 -17 611 -17 m 464 96 q 642 185 581 96 q 704 476 704 275 q 642 767 704 678 q 464 857 581 857 q 267 769 332 857 q 201 476 201 681 q 267 184 201 272 q 464 96 332 96 z "},"P":{"ha":926,"x_min":110,"x_max":869,"o":"m 110 953 l 574 953 q 793 874 717 953 q 869 663 869 794 q 790 447 869 528 q 574 365 710 365 l 242 365 l 242 0 l 110 0 l 110 953 m 567 481 q 690 529 644 481 q 736 661 736 578 q 693 792 736 746 q 567 838 650 838 l 242 838 l 242 481 l 567 481 z "},"Þ":{"ha":926,"x_min":110,"x_max":869,"o":"m 110 953 l 242 953 l 242 788 l 574 788 q 793 708 717 788 q 869 497 869 629 q 790 281 869 363 q 574 200 710 200 l 242 200 l 242 0 l 110 0 l 110 953 m 567 315 q 690 364 644 315 q 736 496 736 413 q 693 626 736 581 q 567 672 650 672 l 242 672 l 242 315 l 567 315 z "},"Q":{"ha":1081,"x_min":65,"x_max":1017,"o":"m 606 -14 q 540 -17 564 -17 q 190 108 314 -17 q 65 476 65 232 q 190 845 65 721 q 540 969 314 969 q 892 845 768 969 q 1017 476 1017 721 q 950 184 1017 299 q 757 19 883 69 l 963 -181 l 776 -181 l 606 -14 m 540 96 q 793 185 706 96 q 881 471 881 275 l 881 476 q 792 766 879 675 q 540 857 704 857 q 290 766 378 857 q 201 476 203 675 l 201 471 q 289 185 201 275 q 540 96 376 96 z "},"R":{"ha":1003,"x_min":110,"x_max":946,"o":"m 110 953 l 606 953 q 825 879 749 953 q 901 682 901 806 q 855 514 901 585 q 726 413 808 443 l 946 0 l 799 0 l 592 393 l 242 393 l 242 0 l 110 0 l 110 953 m 599 508 q 722 554 676 508 q 768 681 768 600 q 725 797 768 756 q 599 838 682 838 l 242 838 l 242 508 l 599 508 z "},"Ŕ":{"ha":1003,"x_min":110,"x_max":946,"o":"m 110 0 m 110 953 l 606 953 q 825 879 749 953 q 901 682 901 806 q 855 514 901 585 q 726 413 808 443 l 946 0 l 799 0 l 592 393 l 242 393 l 242 0 l 110 0 l 110 953 m 599 508 q 722 554 676 508 q 768 681 768 600 q 725 797 768 756 q 599 838 682 838 l 242 838 l 242 508 l 599 508 m 449 1022 l 568 1206 l 701 1206 l 703 1201 l 553 1022 l 449 1022 z "},"Ř":{"ha":1003,"x_min":110,"x_max":946,"o":"m 110 0 m 110 953 l 606 953 q 825 879 749 953 q 901 682 901 806 q 855 514 901 585 q 726 413 808 443 l 946 0 l 799 0 l 592 393 l 242 393 l 242 0 l 110 0 l 110 953 m 599 508 q 722 554 676 508 q 768 681 768 600 q 725 797 768 756 q 599 838 682 838 l 242 838 l 242 508 l 599 508 m 443 1018 l 296 1206 l 421 1206 l 501 1096 l 581 1206 l 706 1206 l 560 1018 l 443 1018 z "},"Ŗ":{"ha":1003,"x_min":110,"x_max":946,"o":"m 110 0 m 110 953 l 606 953 q 825 879 749 953 q 901 682 901 806 q 855 514 901 585 q 726 413 808 443 l 946 0 l 799 0 l 592 393 l 242 393 l 242 0 l 110 0 l 110 953 m 599 508 q 722 554 676 508 q 768 681 768 600 q 725 797 768 756 q 599 838 682 838 l 242 838 l 242 508 l 599 508 m 440 -319 l 492 -207 l 440 -207 l 440 -81 l 563 -81 l 563 -197 l 503 -319 l 440 -319 z "},"Ȑ":{"ha":1003,"x_min":110,"x_max":946,"o":"m 110 0 m 110 953 l 606 953 q 825 879 749 953 q 901 682 901 806 q 855 514 901 585 q 726 413 808 443 l 946 0 l 799 0 l 592 393 l 242 393 l 242 0 l 110 0 l 110 953 m 599 508 q 722 554 676 508 q 768 681 768 600 q 725 797 768 756 q 599 838 682 838 l 242 838 l 242 508 l 599 508 m 372 1022 l 256 1201 l 257 1206 l 392 1206 l 478 1022 l 372 1022 m 565 1022 l 449 1201 l 450 1206 l 585 1206 l 671 1022 l 565 1022 z "},"Ṛ":{"ha":1003,"x_min":110,"x_max":946,"o":"m 110 0 m 110 953 l 606 953 q 825 879 749 953 q 901 682 901 806 q 855 514 901 585 q 726 413 808 443 l 946 0 l 799 0 l 592 393 l 242 393 l 242 0 l 110 0 l 110 953 m 599 508 q 722 554 676 508 q 768 681 768 600 q 725 797 768 756 q 599 838 682 838 l 242 838 l 242 508 l 599 508 m 440 -240 l 440 -108 l 561 -108 l 561 -240 l 440 -240 z "},"Ȓ":{"ha":1003,"x_min":110,"x_max":946,"o":"m 110 0 m 110 953 l 606 953 q 825 879 749 953 q 901 682 901 806 q 855 514 901 585 q 726 413 808 443 l 946 0 l 799 0 l 592 393 l 242 393 l 242 0 l 110 0 l 110 953 m 599 508 q 722 554 676 508 q 768 681 768 600 q 725 797 768 756 q 599 838 682 838 l 242 838 l 242 508 l 599 508 m 299 1043 q 346 1158 299 1110 q 500 1206 393 1206 q 655 1158 607 1206 q 703 1043 703 1110 l 618 1043 q 587 1094 614 1072 q 500 1117 560 1117 q 383 1043 400 1117 l 299 1043 z "},"S":{"ha":926,"x_min":68,"x_max":856,"o":"m 461 -17 q 178 53 288 -17 q 68 269 68 122 l 69 297 l 200 297 q 199 288 200 296 q 197 268 197 279 q 267 140 197 183 q 454 96 338 96 q 654 137 585 96 q 724 254 724 178 q 688 340 724 306 q 597 393 651 374 q 449 436 542 413 q 263 492 333 465 q 142 573 192 519 q 92 714 92 626 q 196 904 92 839 q 463 969 300 969 q 726 903 625 969 q 828 701 828 838 l 828 685 l 699 685 l 699 706 q 634 817 699 776 q 467 857 569 857 q 291 824 357 857 q 225 724 225 790 q 260 644 225 675 q 348 595 296 614 q 493 553 400 576 q 681 496 608 524 q 805 415 754 468 q 856 275 856 361 q 749 53 856 122 q 461 -17 643 -17 z "},"Ś":{"ha":926,"x_min":68,"x_max":856,"o":"m 68 0 m 461 -17 q 178 53 288 -17 q 68 269 68 122 l 69 297 l 200 297 q 199 288 200 296 q 197 268 197 279 q 267 140 197 183 q 454 96 338 96 q 654 137 585 96 q 724 254 724 178 q 688 340 724 306 q 597 393 651 374 q 449 436 542 413 q 263 492 333 465 q 142 573 192 519 q 92 714 92 626 q 196 904 92 839 q 463 969 300 969 q 726 903 625 969 q 828 701 828 838 l 828 685 l 699 685 l 699 706 q 634 817 699 776 q 467 857 569 857 q 291 824 357 857 q 225 724 225 790 q 260 644 225 675 q 348 595 296 614 q 493 553 400 576 q 681 496 608 524 q 805 415 754 468 q 856 275 856 361 q 749 53 856 122 q 461 -17 643 -17 m 411 1022 l 531 1206 l 664 1206 l 665 1201 l 515 1022 l 411 1022 z "},"Ꞌ":{"ha":238,"x_min":64,"x_max":203,"o":"m 64 289 l 64 953 l 203 953 l 203 815 l 131 289 l 64 289 z "},"Š":{"ha":926,"x_min":68,"x_max":856,"o":"m 68 0 m 461 -17 q 178 53 288 -17 q 68 269 68 122 l 69 297 l 200 297 q 199 288 200 296 q 197 268 197 279 q 267 140 197 183 q 454 96 338 96 q 654 137 585 96 q 724 254 724 178 q 688 340 724 306 q 597 393 651 374 q 449 436 542 413 q 263 492 333 465 q 142 573 192 519 q 92 714 92 626 q 196 904 92 839 q 463 969 300 969 q 726 903 625 969 q 828 701 828 838 l 828 685 l 699 685 l 699 706 q 634 817 699 776 q 467 857 569 857 q 291 824 357 857 q 225 724 225 790 q 260 644 225 675 q 348 595 296 614 q 493 553 400 576 q 681 496 608 524 q 805 415 754 468 q 856 275 856 361 q 749 53 856 122 q 461 -17 643 -17 m 406 1018 l 258 1206 l 383 1206 l 464 1096 l 543 1206 l 668 1206 l 522 1018 l 406 1018 z "},"Ş":{"ha":926,"x_min":68,"x_max":856,"o":"m 468 -253 q 336 -242 396 -253 l 336 -174 l 475 -174 q 517 -166 503 -174 q 532 -140 532 -158 q 520 -115 532 -124 q 478 -107 508 -107 l 407 -107 l 424 -15 q 166 61 264 -8 q 68 269 68 131 l 69 297 l 200 297 q 199 288 200 296 q 197 268 197 279 q 267 140 197 183 q 454 96 338 96 q 654 137 585 96 q 724 254 724 178 q 688 340 724 306 q 597 393 651 374 q 449 436 542 413 q 263 492 333 465 q 142 573 192 519 q 92 714 92 626 q 196 904 92 839 q 463 969 300 969 q 726 903 625 969 q 828 701 828 838 l 828 685 l 699 685 l 699 706 q 634 817 699 776 q 467 857 569 857 q 291 824 357 857 q 225 724 225 790 q 260 644 225 675 q 348 595 296 614 q 493 553 400 576 q 681 496 608 524 q 805 415 754 468 q 856 275 856 361 q 763 63 856 133 q 510 -15 671 -7 l 504 -50 q 632 -140 632 -58 q 582 -228 632 -203 q 468 -253 532 -253 z "},"Ŝ":{"ha":926,"x_min":68,"x_max":856,"o":"m 68 0 m 461 -17 q 178 53 288 -17 q 68 269 68 122 l 69 297 l 200 297 q 199 288 200 296 q 197 268 197 279 q 267 140 197 183 q 454 96 338 96 q 654 137 585 96 q 724 254 724 178 q 688 340 724 306 q 597 393 651 374 q 449 436 542 413 q 263 492 333 465 q 142 573 192 519 q 92 714 92 626 q 196 904 92 839 q 463 969 300 969 q 726 903 625 969 q 828 701 828 838 l 828 685 l 699 685 l 699 706 q 634 817 699 776 q 467 857 569 857 q 291 824 357 857 q 225 724 225 790 q 260 644 225 675 q 348 595 296 614 q 493 553 400 576 q 681 496 608 524 q 805 415 754 468 q 856 275 856 361 q 749 53 856 122 q 461 -17 643 -17 m 258 1018 l 406 1206 l 522 1206 l 668 1018 l 543 1018 l 464 1128 l 383 1018 l 258 1018 z "},"Ș":{"ha":926,"x_min":68,"x_max":856,"o":"m 68 0 m 461 -17 q 178 53 288 -17 q 68 269 68 122 l 69 297 l 200 297 q 199 288 200 296 q 197 268 197 279 q 267 140 197 183 q 454 96 338 96 q 654 137 585 96 q 724 254 724 178 q 688 340 724 306 q 597 393 651 374 q 449 436 542 413 q 263 492 333 465 q 142 573 192 519 q 92 714 92 626 q 196 904 92 839 q 463 969 300 969 q 726 903 625 969 q 828 701 828 838 l 828 685 l 699 685 l 699 706 q 634 817 699 776 q 467 857 569 857 q 291 824 357 857 q 225 724 225 790 q 260 644 225 675 q 348 595 296 614 q 493 553 400 576 q 681 496 608 524 q 805 415 754 468 q 856 275 856 361 q 749 53 856 122 q 461 -17 643 -17 m 403 -319 l 454 -207 l 403 -207 l 403 -81 l 525 -81 l 525 -197 l 465 -319 l 403 -319 z "},"Ṣ":{"ha":926,"x_min":68,"x_max":856,"o":"m 68 0 m 461 -17 q 178 53 288 -17 q 68 269 68 122 l 69 297 l 200 297 q 199 288 200 296 q 197 268 197 279 q 267 140 197 183 q 454 96 338 96 q 654 137 585 96 q 724 254 724 178 q 688 340 724 306 q 597 393 651 374 q 449 436 542 413 q 263 492 333 465 q 142 573 192 519 q 92 714 92 626 q 196 904 92 839 q 463 969 300 969 q 726 903 625 969 q 828 701 828 838 l 828 685 l 699 685 l 699 706 q 634 817 699 776 q 467 857 569 857 q 291 824 357 857 q 225 724 225 790 q 260 644 225 675 q 348 595 296 614 q 493 553 400 576 q 681 496 608 524 q 805 415 754 468 q 856 275 856 361 q 749 53 856 122 q 461 -17 643 -17 m 403 -240 l 403 -108 l 524 -108 l 524 -240 l 403 -240 z "},"ẞ":{"ha":1067,"x_min":110,"x_max":985,"o":"m 110 585 q 226 871 110 772 q 544 969 343 969 q 751 936 663 969 q 889 841 840 903 q 938 699 938 779 q 901 567 938 625 q 811 488 865 508 l 811 482 q 939 403 893 461 q 985 260 985 346 q 951 127 985 186 q 853 34 917 68 q 703 0 789 0 l 394 0 l 394 115 l 685 115 q 806 160 761 115 q 850 267 850 206 q 799 373 850 332 q 657 414 747 414 l 394 414 l 394 529 l 653 529 q 761 572 719 529 q 803 686 803 615 q 742 812 803 767 q 557 857 682 857 q 324 787 406 857 q 242 575 242 717 l 242 0 l 110 0 l 110 585 z "},"Ə":{"ha":1053,"x_min":65,"x_max":983,"o":"m 517 -17 q 179 90 293 -17 q 65 429 65 196 l 65 515 l 847 515 q 752 774 838 690 q 501 857 667 857 q 278 802 365 857 q 192 631 192 747 l 65 631 q 188 882 65 794 q 515 969 310 969 q 867 847 750 969 q 983 469 983 725 q 869 101 983 219 q 517 -17 756 -17 m 528 96 q 752 165 678 96 q 843 393 826 235 l 201 393 q 528 96 201 96 z "},"T":{"ha":849,"x_min":31,"x_max":818,"o":"m 358 0 l 358 838 l 31 838 l 31 953 l 818 953 l 818 838 l 490 838 l 490 0 l 358 0 z "},"Ŧ":{"ha":849,"x_min":31,"x_max":818,"o":"m 358 0 l 358 529 l 213 529 l 213 629 l 358 629 l 358 838 l 31 838 l 31 953 l 818 953 l 818 838 l 490 838 l 490 629 l 636 629 l 636 529 l 490 529 l 490 0 l 358 0 z "},"Ť":{"ha":849,"x_min":31,"x_max":818,"o":"m 31 0 m 358 0 l 358 838 l 31 838 l 31 953 l 818 953 l 818 838 l 490 838 l 490 0 l 358 0 m 367 1018 l 219 1206 l 344 1206 l 425 1096 l 504 1206 l 629 1206 l 483 1018 l 367 1018 z "},"Ţ":{"ha":849,"x_min":31,"x_max":818,"o":"m 465 0 l 457 -50 q 585 -140 585 -58 q 535 -228 585 -203 q 421 -253 485 -253 q 289 -242 349 -253 l 289 -174 l 428 -174 q 470 -166 456 -174 q 485 -140 485 -158 q 473 -115 485 -124 q 431 -107 461 -107 l 360 -107 l 379 0 l 358 0 l 358 838 l 31 838 l 31 953 l 818 953 l 818 838 l 490 838 l 490 0 l 465 0 z "},"Ț":{"ha":849,"x_min":31,"x_max":818,"o":"m 31 0 m 358 0 l 358 838 l 31 838 l 31 953 l 818 953 l 818 838 l 490 838 l 490 0 l 358 0 m 364 -319 l 415 -207 l 364 -207 l 364 -81 l 486 -81 l 486 -197 l 426 -319 l 364 -319 z "},"Ṭ":{"ha":849,"x_min":31,"x_max":818,"o":"m 31 0 m 358 0 l 358 838 l 31 838 l 31 953 l 818 953 l 818 838 l 490 838 l 490 0 l 358 0 m 364 -240 l 364 -108 l 485 -108 l 485 -240 l 364 -240 z "},"U":{"ha":1003,"x_min":110,"x_max":893,"o":"m 500 -17 q 211 74 313 -17 q 110 351 110 164 l 110 953 l 242 953 l 242 344 q 309 159 242 222 q 500 96 376 96 q 693 160 625 96 q 761 344 761 224 l 761 953 l 893 953 l 893 351 q 792 74 893 164 q 500 -17 690 -17 z "},"Ú":{"ha":1003,"x_min":110,"x_max":893,"o":"m 110 0 m 500 -17 q 211 74 313 -17 q 110 351 110 164 l 110 953 l 242 953 l 242 344 q 309 159 242 222 q 500 96 376 96 q 693 160 625 96 q 761 344 761 224 l 761 953 l 893 953 l 893 351 q 792 74 893 164 q 500 -17 690 -17 m 449 1022 l 568 1206 l 701 1206 l 703 1201 l 553 1022 l 449 1022 z "},"Ŭ":{"ha":1003,"x_min":110,"x_max":893,"o":"m 110 0 m 500 -17 q 211 74 313 -17 q 110 351 110 164 l 110 953 l 242 953 l 242 344 q 309 159 242 222 q 500 96 376 96 q 693 160 625 96 q 761 344 761 224 l 761 953 l 893 953 l 893 351 q 792 74 893 164 q 500 -17 690 -17 m 500 1043 q 346 1091 393 1043 q 299 1206 299 1139 l 383 1206 q 500 1132 400 1132 q 587 1154 560 1132 q 618 1206 614 1176 l 703 1206 q 655 1091 703 1139 q 500 1043 607 1043 z "},"Ǔ":{"ha":1003,"x_min":110,"x_max":893,"o":"m 110 0 m 500 -17 q 211 74 313 -17 q 110 351 110 164 l 110 953 l 242 953 l 242 344 q 309 159 242 222 q 500 96 376 96 q 693 160 625 96 q 761 344 761 224 l 761 953 l 893 953 l 893 351 q 792 74 893 164 q 500 -17 690 -17 m 443 1018 l 296 1206 l 421 1206 l 501 1096 l 581 1206 l 706 1206 l 560 1018 l 443 1018 z "},"Û":{"ha":1003,"x_min":110,"x_max":893,"o":"m 110 0 m 500 -17 q 211 74 313 -17 q 110 351 110 164 l 110 953 l 242 953 l 242 344 q 309 159 242 222 q 500 96 376 96 q 693 160 625 96 q 761 344 761 224 l 761 953 l 893 953 l 893 351 q 792 74 893 164 q 500 -17 690 -17 m 296 1018 l 443 1206 l 560 1206 l 706 1018 l 581 1018 l 501 1128 l 421 1018 l 296 1018 z "},"Ȕ":{"ha":1003,"x_min":110,"x_max":893,"o":"m 110 0 m 500 -17 q 211 74 313 -17 q 110 351 110 164 l 110 953 l 242 953 l 242 344 q 309 159 242 222 q 500 96 376 96 q 693 160 625 96 q 761 344 761 224 l 761 953 l 893 953 l 893 351 q 792 74 893 164 q 500 -17 690 -17 m 372 1022 l 256 1201 l 257 1206 l 392 1206 l 478 1022 l 372 1022 m 565 1022 l 449 1201 l 450 1206 l 585 1206 l 671 1022 l 565 1022 z "},"Ü":{"ha":1003,"x_min":110,"x_max":893,"o":"m 110 0 m 500 -17 q 211 74 313 -17 q 110 351 110 164 l 110 953 l 242 953 l 242 344 q 309 159 242 222 q 500 96 376 96 q 693 160 625 96 q 761 344 761 224 l 761 953 l 893 953 l 893 351 q 792 74 893 164 q 500 -17 690 -17 m 311 1074 l 311 1206 l 432 1206 l 432 1074 l 311 1074 m 571 1074 l 571 1206 l 692 1206 l 692 1074 l 571 1074 z "},"Ǘ":{"ha":1003,"x_min":110,"x_max":893,"o":"m 110 0 m 500 -17 q 211 74 313 -17 q 110 351 110 164 l 110 953 l 242 953 l 242 344 q 309 159 242 222 q 500 96 376 96 q 693 160 625 96 q 761 344 761 224 l 761 953 l 893 953 l 893 351 q 792 74 893 164 q 500 -17 690 -17 m 311 1074 l 311 1206 l 432 1206 l 432 1074 l 311 1074 m 571 1074 l 571 1206 l 692 1206 l 692 1074 l 571 1074 m 449 1254 l 568 1438 l 701 1438 l 703 1433 l 553 1254 l 449 1254 z "},"Ǚ":{"ha":1003,"x_min":110,"x_max":893,"o":"m 110 0 m 500 -17 q 211 74 313 -17 q 110 351 110 164 l 110 953 l 242 953 l 242 344 q 309 159 242 222 q 500 96 376 96 q 693 160 625 96 q 761 344 761 224 l 761 953 l 893 953 l 893 351 q 792 74 893 164 q 500 -17 690 -17 m 311 1074 l 311 1206 l 432 1206 l 432 1074 l 311 1074 m 571 1074 l 571 1206 l 692 1206 l 692 1074 l 571 1074 m 443 1250 l 296 1438 l 421 1438 l 501 1328 l 581 1438 l 706 1438 l 560 1250 l 443 1250 z "},"Ǜ":{"ha":1003,"x_min":110,"x_max":893,"o":"m 110 0 m 500 -17 q 211 74 313 -17 q 110 351 110 164 l 110 953 l 242 953 l 242 344 q 309 159 242 222 q 500 96 376 96 q 693 160 625 96 q 761 344 761 224 l 761 953 l 893 953 l 893 351 q 792 74 893 164 q 500 -17 690 -17 m 311 1074 l 311 1206 l 432 1206 l 432 1074 l 311 1074 m 571 1074 l 571 1206 l 692 1206 l 692 1074 l 571 1074 m 449 1254 l 299 1433 l 300 1438 l 433 1438 l 553 1254 l 449 1254 z "},"Ǖ":{"ha":1003,"x_min":110,"x_max":893,"o":"m 110 0 m 500 -17 q 211 74 313 -17 q 110 351 110 164 l 110 953 l 242 953 l 242 344 q 309 159 242 222 q 500 96 376 96 q 693 160 625 96 q 761 344 761 224 l 761 953 l 893 953 l 893 351 q 792 74 893 164 q 500 -17 690 -17 m 311 1074 l 311 1206 l 432 1206 l 432 1074 l 311 1074 m 571 1074 l 571 1206 l 692 1206 l 692 1074 l 571 1074 m 289 1304 l 289 1404 l 713 1404 l 713 1304 l 289 1304 z "},"Ụ":{"ha":1003,"x_min":110,"x_max":893,"o":"m 110 0 m 500 -17 q 211 74 313 -17 q 110 351 110 164 l 110 953 l 242 953 l 242 344 q 309 159 242 222 q 500 96 376 96 q 693 160 625 96 q 761 344 761 224 l 761 953 l 893 953 l 893 351 q 792 74 893 164 q 500 -17 690 -17 m 440 -240 l 440 -108 l 561 -108 l 561 -240 l 440 -240 z "},"Ù":{"ha":1003,"x_min":110,"x_max":893,"o":"m 110 0 m 500 -17 q 211 74 313 -17 q 110 351 110 164 l 110 953 l 242 953 l 242 344 q 309 159 242 222 q 500 96 376 96 q 693 160 625 96 q 761 344 761 224 l 761 953 l 893 953 l 893 351 q 792 74 893 164 q 500 -17 690 -17 m 449 1022 l 299 1201 l 300 1206 l 433 1206 l 553 1022 l 449 1022 z "},"Ủ":{"ha":1003,"x_min":110,"x_max":893,"o":"m 110 0 m 500 -17 q 211 74 313 -17 q 110 351 110 164 l 110 953 l 242 953 l 242 344 q 309 159 242 222 q 500 96 376 96 q 693 160 625 96 q 761 344 761 224 l 761 953 l 893 953 l 893 351 q 792 74 893 164 q 500 -17 690 -17 m 463 1107 l 481 1107 q 521 1132 521 1107 q 510 1151 521 1146 q 478 1157 500 1157 l 394 1157 l 394 1211 q 494 1222 442 1222 q 583 1203 546 1222 q 621 1139 621 1185 q 598 1084 621 1104 q 540 1061 575 1064 l 540 1022 l 463 1022 l 463 1107 z "},"Ư":{"ha":1003,"x_min":110,"x_max":1058,"o":"m 1058 1206 l 1058 1131 q 1017 977 1058 1040 q 893 882 975 914 l 893 351 q 792 74 893 164 q 500 -17 690 -17 q 211 74 313 -17 q 110 351 110 164 l 110 953 l 242 953 l 242 344 q 309 159 242 222 q 500 96 376 96 q 693 160 625 96 q 761 344 761 224 l 761 953 l 867 953 q 965 1056 944 985 l 892 1056 l 892 1206 l 1058 1206 z "},"Ứ":{"ha":1003,"x_min":110,"x_max":1058,"o":"m 110 0 m 1058 1206 l 1058 1131 q 1017 977 1058 1040 q 893 882 975 914 l 893 351 q 792 74 893 164 q 500 -17 690 -17 q 211 74 313 -17 q 110 351 110 164 l 110 953 l 242 953 l 242 344 q 309 159 242 222 q 500 96 376 96 q 693 160 625 96 q 761 344 761 224 l 761 953 l 867 953 q 965 1056 944 985 l 892 1056 l 892 1206 l 1058 1206 m 449 1022 l 568 1206 l 701 1206 l 703 1201 l 553 1022 l 449 1022 z "},"Ự":{"ha":1003,"x_min":110,"x_max":1058,"o":"m 110 0 m 1058 1206 l 1058 1131 q 1017 977 1058 1040 q 893 882 975 914 l 893 351 q 792 74 893 164 q 500 -17 690 -17 q 211 74 313 -17 q 110 351 110 164 l 110 953 l 242 953 l 242 344 q 309 159 242 222 q 500 96 376 96 q 693 160 625 96 q 761 344 761 224 l 761 953 l 867 953 q 965 1056 944 985 l 892 1056 l 892 1206 l 1058 1206 m 440 -240 l 440 -108 l 561 -108 l 561 -240 l 440 -240 z "},"Ừ":{"ha":1003,"x_min":110,"x_max":1058,"o":"m 110 0 m 1058 1206 l 1058 1131 q 1017 977 1058 1040 q 893 882 975 914 l 893 351 q 792 74 893 164 q 500 -17 690 -17 q 211 74 313 -17 q 110 351 110 164 l 110 953 l 242 953 l 242 344 q 309 159 242 222 q 500 96 376 96 q 693 160 625 96 q 761 344 761 224 l 761 953 l 867 953 q 965 1056 944 985 l 892 1056 l 892 1206 l 1058 1206 m 449 1022 l 299 1201 l 300 1206 l 433 1206 l 553 1022 l 449 1022 z "},"Ử":{"ha":1003,"x_min":110,"x_max":1058,"o":"m 110 0 m 1058 1206 l 1058 1131 q 1017 977 1058 1040 q 893 882 975 914 l 893 351 q 792 74 893 164 q 500 -17 690 -17 q 211 74 313 -17 q 110 351 110 164 l 110 953 l 242 953 l 242 344 q 309 159 242 222 q 500 96 376 96 q 693 160 625 96 q 761 344 761 224 l 761 953 l 867 953 q 965 1056 944 985 l 892 1056 l 892 1206 l 1058 1206 m 463 1107 l 481 1107 q 521 1132 521 1107 q 510 1151 521 1146 q 478 1157 500 1157 l 394 1157 l 394 1211 q 494 1222 442 1222 q 583 1203 546 1222 q 621 1139 621 1185 q 598 1084 621 1104 q 540 1061 575 1064 l 540 1022 l 463 1022 l 463 1107 z "},"Ữ":{"ha":1003,"x_min":110,"x_max":1058,"o":"m 110 0 m 1058 1206 l 1058 1131 q 1017 977 1058 1040 q 893 882 975 914 l 893 351 q 792 74 893 164 q 500 -17 690 -17 q 211 74 313 -17 q 110 351 110 164 l 110 953 l 242 953 l 242 344 q 309 159 242 222 q 500 96 376 96 q 693 160 625 96 q 761 344 761 224 l 761 953 l 867 953 q 965 1056 944 985 l 892 1056 l 892 1206 l 1058 1206 m 274 1061 q 303 1165 274 1124 q 392 1206 332 1206 q 442 1200 418 1206 q 501 1183 467 1194 q 599 1163 561 1163 q 638 1206 633 1163 l 728 1206 q 699 1102 728 1143 q 610 1061 669 1061 q 559 1067 583 1061 q 500 1083 535 1072 q 403 1104 440 1104 q 364 1061 368 1104 l 274 1061 z "},"Ű":{"ha":1003,"x_min":110,"x_max":893,"o":"m 110 0 m 500 -17 q 211 74 313 -17 q 110 351 110 164 l 110 953 l 242 953 l 242 344 q 309 159 242 222 q 500 96 376 96 q 693 160 625 96 q 761 344 761 224 l 761 953 l 893 953 l 893 351 q 792 74 893 164 q 500 -17 690 -17 m 351 1022 l 438 1206 l 572 1206 l 574 1201 l 457 1022 l 351 1022 m 544 1022 l 631 1206 l 765 1206 l 767 1201 l 650 1022 l 544 1022 z "},"Ȗ":{"ha":1003,"x_min":110,"x_max":893,"o":"m 110 0 m 500 -17 q 211 74 313 -17 q 110 351 110 164 l 110 953 l 242 953 l 242 344 q 309 159 242 222 q 500 96 376 96 q 693 160 625 96 q 761 344 761 224 l 761 953 l 893 953 l 893 351 q 792 74 893 164 q 500 -17 690 -17 m 299 1043 q 346 1158 299 1110 q 500 1206 393 1206 q 655 1158 607 1206 q 703 1043 703 1110 l 618 1043 q 587 1094 614 1072 q 500 1117 560 1117 q 383 1043 400 1117 l 299 1043 z "},"Ū":{"ha":1003,"x_min":110,"x_max":893,"o":"m 110 0 m 500 -17 q 211 74 313 -17 q 110 351 110 164 l 110 953 l 242 953 l 242 344 q 309 159 242 222 q 500 96 376 96 q 693 160 625 96 q 761 344 761 224 l 761 953 l 893 953 l 893 351 q 792 74 893 164 q 500 -17 690 -17 m 289 1072 l 289 1172 l 713 1172 l 713 1072 l 289 1072 z "},"Ų":{"ha":1003,"x_min":110,"x_max":893,"o":"m 596 -253 q 496 -223 538 -253 q 454 -128 454 -193 q 497 -17 454 -64 q 210 74 310 -15 q 110 351 110 164 l 110 953 l 242 953 l 242 344 q 309 159 242 222 q 500 96 376 96 q 693 160 625 96 q 761 344 761 224 l 761 953 l 893 953 l 893 351 q 594 -10 893 32 q 563 -86 563 -50 q 581 -140 563 -118 q 636 -162 599 -162 l 681 -162 l 681 -233 q 596 -253 635 -253 z "},"Ů":{"ha":1003,"x_min":110,"x_max":893,"o":"m 110 0 m 500 -17 q 211 74 313 -17 q 110 351 110 164 l 110 953 l 242 953 l 242 344 q 309 159 242 222 q 500 96 376 96 q 693 160 625 96 q 761 344 761 224 l 761 953 l 893 953 l 893 351 q 792 74 893 164 q 500 -17 690 -17 m 501 988 q 404 1026 440 988 q 368 1121 368 1064 q 404 1216 368 1178 q 501 1254 440 1254 q 599 1216 563 1254 q 635 1121 635 1178 q 599 1026 635 1064 q 501 988 563 988 m 501 1050 q 552 1071 532 1050 q 572 1121 572 1092 q 552 1171 572 1150 q 501 1192 532 1192 q 451 1171 471 1192 q 431 1121 431 1150 q 451 1071 431 1092 q 501 1050 471 1050 z "},"Ũ":{"ha":1003,"x_min":110,"x_max":893,"o":"m 110 0 m 500 -17 q 211 74 313 -17 q 110 351 110 164 l 110 953 l 242 953 l 242 344 q 309 159 242 222 q 500 96 376 96 q 693 160 625 96 q 761 344 761 224 l 761 953 l 893 953 l 893 351 q 792 74 893 164 q 500 -17 690 -17 m 274 1061 q 303 1165 274 1124 q 392 1206 332 1206 q 442 1200 418 1206 q 501 1183 467 1194 q 599 1163 561 1163 q 638 1206 633 1163 l 728 1206 q 699 1102 728 1143 q 610 1061 669 1061 q 559 1067 583 1061 q 500 1083 535 1072 q 403 1104 440 1104 q 364 1061 368 1104 l 274 1061 z "},"V":{"ha":926,"x_min":22,"x_max":904,"o":"m 22 953 l 165 953 l 417 260 l 464 132 l 471 132 l 518 263 l 768 953 l 904 953 l 550 0 l 376 0 l 22 953 z "},"W":{"ha":1311,"x_min":15,"x_max":1296,"o":"m 15 953 l 154 953 l 346 281 q 367 199 356 244 q 382 135 378 153 l 389 135 l 417 281 l 564 953 l 753 953 l 906 281 l 935 135 l 942 135 q 958 199 946 153 q 979 281 969 244 l 1164 953 l 1296 953 l 1021 0 l 839 0 l 689 668 q 669 763 678 718 q 657 824 660 808 l 650 824 q 640 760 647 807 q 622 668 632 714 l 472 0 l 290 0 l 15 953 z "},"Ẃ":{"ha":1311,"x_min":15,"x_max":1296,"o":"m 15 0 m 15 953 l 154 953 l 346 281 q 367 199 356 244 q 382 135 378 153 l 389 135 l 417 281 l 564 953 l 753 953 l 906 281 l 935 135 l 942 135 q 958 199 946 153 q 979 281 969 244 l 1164 953 l 1296 953 l 1021 0 l 839 0 l 689 668 q 669 763 678 718 q 657 824 660 808 l 650 824 q 640 760 647 807 q 622 668 632 714 l 472 0 l 290 0 l 15 953 m 603 1022 l 722 1206 l 856 1206 l 857 1201 l 707 1022 l 603 1022 z "},"Ŵ":{"ha":1311,"x_min":15,"x_max":1296,"o":"m 15 0 m 15 953 l 154 953 l 346 281 q 367 199 356 244 q 382 135 378 153 l 389 135 l 417 281 l 564 953 l 753 953 l 906 281 l 935 135 l 942 135 q 958 199 946 153 q 979 281 969 244 l 1164 953 l 1296 953 l 1021 0 l 839 0 l 689 668 q 669 763 678 718 q 657 824 660 808 l 650 824 q 640 760 647 807 q 622 668 632 714 l 472 0 l 290 0 l 15 953 m 450 1018 l 597 1206 l 714 1206 l 860 1018 l 735 1018 l 656 1128 l 575 1018 l 450 1018 z "},"Ẅ":{"ha":1311,"x_min":15,"x_max":1296,"o":"m 15 0 m 15 953 l 154 953 l 346 281 q 367 199 356 244 q 382 135 378 153 l 389 135 l 417 281 l 564 953 l 753 953 l 906 281 l 935 135 l 942 135 q 958 199 946 153 q 979 281 969 244 l 1164 953 l 1296 953 l 1021 0 l 839 0 l 689 668 q 669 763 678 718 q 657 824 660 808 l 650 824 q 640 760 647 807 q 622 668 632 714 l 472 0 l 290 0 l 15 953 m 465 1074 l 465 1206 l 586 1206 l 586 1074 l 465 1074 m 725 1074 l 725 1206 l 846 1206 l 846 1074 l 725 1074 z "},"Ẁ":{"ha":1311,"x_min":15,"x_max":1296,"o":"m 15 0 m 15 953 l 154 953 l 346 281 q 367 199 356 244 q 382 135 378 153 l 389 135 l 417 281 l 564 953 l 753 953 l 906 281 l 935 135 l 942 135 q 958 199 946 153 q 979 281 969 244 l 1164 953 l 1296 953 l 1021 0 l 839 0 l 689 668 q 669 763 678 718 q 657 824 660 808 l 650 824 q 640 760 647 807 q 622 668 632 714 l 472 0 l 290 0 l 15 953 m 603 1022 l 453 1201 l 454 1206 l 588 1206 l 707 1022 l 603 1022 z "},"X":{"ha":926,"x_min":7,"x_max":919,"o":"m 7 0 l 382 499 l 40 953 l 204 953 l 457 613 l 468 613 l 724 953 l 882 953 l 543 500 l 919 0 l 757 0 l 467 390 l 456 390 l 167 0 l 7 0 z "},"Y":{"ha":926,"x_min":22,"x_max":906,"o":"m 399 0 l 399 394 l 22 953 l 182 953 l 465 517 l 472 517 l 754 953 l 906 953 l 531 394 l 531 0 l 399 0 z "},"Ý":{"ha":926,"x_min":22,"x_max":906,"o":"m 22 0 m 399 0 l 399 394 l 22 953 l 182 953 l 465 517 l 472 517 l 754 953 l 906 953 l 531 394 l 531 0 l 399 0 m 411 1022 l 531 1206 l 664 1206 l 665 1201 l 515 1022 l 411 1022 z "},"Ŷ":{"ha":926,"x_min":22,"x_max":906,"o":"m 22 0 m 399 0 l 399 394 l 22 953 l 182 953 l 465 517 l 472 517 l 754 953 l 906 953 l 531 394 l 531 0 l 399 0 m 258 1018 l 406 1206 l 522 1206 l 668 1018 l 543 1018 l 464 1128 l 383 1018 l 258 1018 z "},"Ÿ":{"ha":926,"x_min":22,"x_max":906,"o":"m 22 0 m 399 0 l 399 394 l 22 953 l 182 953 l 465 517 l 472 517 l 754 953 l 906 953 l 531 394 l 531 0 l 399 0 m 274 1074 l 274 1206 l 394 1206 l 394 1074 l 274 1074 m 533 1074 l 533 1206 l 654 1206 l 654 1074 l 533 1074 z "},"Ỵ":{"ha":926,"x_min":22,"x_max":906,"o":"m 22 0 m 399 0 l 399 394 l 22 953 l 182 953 l 465 517 l 472 517 l 754 953 l 906 953 l 531 394 l 531 0 l 399 0 m 403 -240 l 403 -108 l 524 -108 l 524 -240 l 403 -240 z "},"Ỳ":{"ha":926,"x_min":22,"x_max":906,"o":"m 22 0 m 399 0 l 399 394 l 22 953 l 182 953 l 465 517 l 472 517 l 754 953 l 906 953 l 531 394 l 531 0 l 399 0 m 411 1022 l 261 1201 l 263 1206 l 396 1206 l 515 1022 l 411 1022 z "},"Ỷ":{"ha":926,"x_min":22,"x_max":906,"o":"m 22 0 m 399 0 l 399 394 l 22 953 l 182 953 l 465 517 l 472 517 l 754 953 l 906 953 l 531 394 l 531 0 l 399 0 m 425 1107 l 443 1107 q 483 1132 483 1107 q 473 1151 483 1146 q 440 1157 463 1157 l 357 1157 l 357 1211 q 457 1222 404 1222 q 546 1203 508 1222 q 583 1139 583 1185 q 560 1084 583 1104 q 503 1061 538 1064 l 503 1022 l 425 1022 l 425 1107 z "},"Ȳ":{"ha":926,"x_min":22,"x_max":906,"o":"m 22 0 m 399 0 l 399 394 l 22 953 l 182 953 l 465 517 l 472 517 l 754 953 l 906 953 l 531 394 l 531 0 l 399 0 m 251 1072 l 251 1172 l 675 1172 l 675 1072 l 251 1072 z "},"Ỹ":{"ha":926,"x_min":22,"x_max":906,"o":"m 22 0 m 399 0 l 399 394 l 22 953 l 182 953 l 465 517 l 472 517 l 754 953 l 906 953 l 531 394 l 531 0 l 399 0 m 236 1061 q 265 1165 236 1124 q 354 1206 294 1206 q 405 1200 381 1206 q 464 1183 429 1194 q 561 1163 524 1163 q 600 1206 596 1163 l 690 1206 q 661 1102 690 1143 q 572 1061 632 1061 q 522 1067 546 1061 q 463 1083 497 1072 q 365 1104 403 1104 q 326 1061 331 1104 l 236 1061 z "},"Z":{"ha":849,"x_min":32,"x_max":818,"o":"m 32 0 l 32 68 l 604 838 l 68 838 l 68 953 l 806 953 l 806 885 l 232 115 l 818 115 l 818 0 l 32 0 z "},"Ź":{"ha":849,"x_min":32,"x_max":818,"o":"m 32 0 m 32 0 l 32 68 l 604 838 l 68 838 l 68 953 l 806 953 l 806 885 l 232 115 l 818 115 l 818 0 l 32 0 m 372 1022 l 492 1206 l 625 1206 l 626 1201 l 476 1022 l 372 1022 z "},"Ž":{"ha":849,"x_min":32,"x_max":818,"o":"m 32 0 m 32 0 l 32 68 l 604 838 l 68 838 l 68 953 l 806 953 l 806 885 l 232 115 l 818 115 l 818 0 l 32 0 m 367 1018 l 219 1206 l 344 1206 l 425 1096 l 504 1206 l 629 1206 l 483 1018 l 367 1018 z "},"Ż":{"ha":849,"x_min":32,"x_max":818,"o":"m 32 0 m 32 0 l 32 68 l 604 838 l 68 838 l 68 953 l 806 953 l 806 885 l 232 115 l 818 115 l 818 0 l 32 0 m 364 1074 l 364 1206 l 485 1206 l 485 1074 l 364 1074 z "},"Ẓ":{"ha":849,"x_min":32,"x_max":818,"o":"m 32 0 m 32 0 l 32 68 l 604 838 l 68 838 l 68 953 l 806 953 l 806 885 l 232 115 l 818 115 l 818 0 l 32 0 m 364 -240 l 364 -108 l 485 -108 l 485 -240 l 364 -240 z "},"a":{"ha":772,"x_min":50,"x_max":763,"o":"m 292 -17 q 124 28 197 -17 q 50 189 50 72 q 175 381 50 329 q 536 433 300 433 l 536 514 q 500 612 536 578 q 369 646 464 646 q 242 613 281 646 q 204 531 204 579 l 204 514 l 86 514 q 85 544 85 522 q 165 694 85 642 q 381 747 246 747 q 588 690 517 747 q 658 529 658 633 l 658 133 q 672 97 658 108 q 707 85 686 85 l 763 85 l 763 6 q 668 -11 726 -11 q 589 17 621 -11 q 546 93 557 46 l 536 93 q 434 13 499 42 q 292 -17 369 -17 m 324 85 q 426 107 378 85 q 506 173 475 129 q 536 279 536 217 l 536 332 q 267 303 357 332 q 178 196 178 275 q 215 110 178 136 q 324 85 251 85 z "},"á":{"ha":772,"x_min":50,"x_max":763,"o":"m 50 0 m 292 -17 q 124 28 197 -17 q 50 189 50 72 q 175 381 50 329 q 536 433 300 433 l 536 514 q 500 612 536 578 q 369 646 464 646 q 242 613 281 646 q 204 531 204 579 l 204 514 l 86 514 q 85 544 85 522 q 165 694 85 642 q 381 747 246 747 q 588 690 517 747 q 658 529 658 633 l 658 133 q 672 97 658 108 q 707 85 686 85 l 763 85 l 763 6 q 668 -11 726 -11 q 589 17 621 -11 q 546 93 557 46 l 536 93 q 434 13 499 42 q 292 -17 369 -17 m 324 85 q 426 107 378 85 q 506 173 475 129 q 536 279 536 217 l 536 332 q 267 303 357 332 q 178 196 178 275 q 215 110 178 136 q 324 85 251 85 m 333 821 l 453 1004 l 586 1004 l 588 1000 l 438 821 l 333 821 z "},"ă":{"ha":772,"x_min":50,"x_max":763,"o":"m 50 0 m 292 -17 q 124 28 197 -17 q 50 189 50 72 q 175 381 50 329 q 536 433 300 433 l 536 514 q 500 612 536 578 q 369 646 464 646 q 242 613 281 646 q 204 531 204 579 l 204 514 l 86 514 q 85 544 85 522 q 165 694 85 642 q 381 747 246 747 q 588 690 517 747 q 658 529 658 633 l 658 133 q 672 97 658 108 q 707 85 686 85 l 763 85 l 763 6 q 668 -11 726 -11 q 589 17 621 -11 q 546 93 557 46 l 536 93 q 434 13 499 42 q 292 -17 369 -17 m 324 85 q 426 107 378 85 q 506 173 475 129 q 536 279 536 217 l 536 332 q 267 303 357 332 q 178 196 178 275 q 215 110 178 136 q 324 85 251 85 m 385 842 q 231 890 278 842 q 183 1004 183 938 l 268 1004 q 385 931 285 931 q 472 953 444 931 q 503 1004 499 975 l 588 1004 q 540 890 588 938 q 385 842 492 842 z "},"ắ":{"ha":772,"x_min":50,"x_max":763,"o":"m 50 0 m 292 -17 q 124 28 197 -17 q 50 189 50 72 q 175 381 50 329 q 536 433 300 433 l 536 514 q 500 612 536 578 q 369 646 464 646 q 242 613 281 646 q 204 531 204 579 l 204 514 l 86 514 q 85 544 85 522 q 165 694 85 642 q 381 747 246 747 q 588 690 517 747 q 658 529 658 633 l 658 133 q 672 97 658 108 q 707 85 686 85 l 763 85 l 763 6 q 668 -11 726 -11 q 589 17 621 -11 q 546 93 557 46 l 536 93 q 434 13 499 42 q 292 -17 369 -17 m 324 85 q 426 107 378 85 q 506 173 475 129 q 536 279 536 217 l 536 332 q 267 303 357 332 q 178 196 178 275 q 215 110 178 136 q 324 85 251 85 m 385 842 q 231 890 278 842 q 183 1004 183 938 l 268 1004 q 385 931 285 931 q 472 953 444 931 q 503 1004 499 975 l 588 1004 q 540 890 588 938 q 385 842 492 842 m 333 1004 l 453 1188 l 586 1188 l 588 1183 l 438 1004 l 333 1004 z "},"ặ":{"ha":772,"x_min":50,"x_max":763,"o":"m 50 0 m 292 -17 q 124 28 197 -17 q 50 189 50 72 q 175 381 50 329 q 536 433 300 433 l 536 514 q 500 612 536 578 q 369 646 464 646 q 242 613 281 646 q 204 531 204 579 l 204 514 l 86 514 q 85 544 85 522 q 165 694 85 642 q 381 747 246 747 q 588 690 517 747 q 658 529 658 633 l 658 133 q 672 97 658 108 q 707 85 686 85 l 763 85 l 763 6 q 668 -11 726 -11 q 589 17 621 -11 q 546 93 557 46 l 536 93 q 434 13 499 42 q 292 -17 369 -17 m 324 85 q 426 107 378 85 q 506 173 475 129 q 536 279 536 217 l 536 332 q 267 303 357 332 q 178 196 178 275 q 215 110 178 136 q 324 85 251 85 m 385 842 q 231 890 278 842 q 183 1004 183 938 l 268 1004 q 385 931 285 931 q 472 953 444 931 q 503 1004 499 975 l 588 1004 q 540 890 588 938 q 385 842 492 842 m 325 -240 l 325 -108 l 446 -108 l 446 -240 l 325 -240 z "},"ằ":{"ha":772,"x_min":50,"x_max":763,"o":"m 50 0 m 292 -17 q 124 28 197 -17 q 50 189 50 72 q 175 381 50 329 q 536 433 300 433 l 536 514 q 500 612 536 578 q 369 646 464 646 q 242 613 281 646 q 204 531 204 579 l 204 514 l 86 514 q 85 544 85 522 q 165 694 85 642 q 381 747 246 747 q 588 690 517 747 q 658 529 658 633 l 658 133 q 672 97 658 108 q 707 85 686 85 l 763 85 l 763 6 q 668 -11 726 -11 q 589 17 621 -11 q 546 93 557 46 l 536 93 q 434 13 499 42 q 292 -17 369 -17 m 324 85 q 426 107 378 85 q 506 173 475 129 q 536 279 536 217 l 536 332 q 267 303 357 332 q 178 196 178 275 q 215 110 178 136 q 324 85 251 85 m 385 842 q 231 890 278 842 q 183 1004 183 938 l 268 1004 q 385 931 285 931 q 472 953 444 931 q 503 1004 499 975 l 588 1004 q 540 890 588 938 q 385 842 492 842 m 336 1004 l 186 1183 l 188 1188 l 321 1188 l 440 1004 l 336 1004 z "},"ẳ":{"ha":772,"x_min":50,"x_max":763,"o":"m 50 0 m 292 -17 q 124 28 197 -17 q 50 189 50 72 q 175 381 50 329 q 536 433 300 433 l 536 514 q 500 612 536 578 q 369 646 464 646 q 242 613 281 646 q 204 531 204 579 l 204 514 l 86 514 q 85 544 85 522 q 165 694 85 642 q 381 747 246 747 q 588 690 517 747 q 658 529 658 633 l 658 133 q 672 97 658 108 q 707 85 686 85 l 763 85 l 763 6 q 668 -11 726 -11 q 589 17 621 -11 q 546 93 557 46 l 536 93 q 434 13 499 42 q 292 -17 369 -17 m 324 85 q 426 107 378 85 q 506 173 475 129 q 536 279 536 217 l 536 332 q 267 303 357 332 q 178 196 178 275 q 215 110 178 136 q 324 85 251 85 m 385 842 q 231 890 278 842 q 183 1004 183 938 l 268 1004 q 385 931 285 931 q 472 953 444 931 q 503 1004 499 975 l 588 1004 q 540 890 588 938 q 385 842 492 842 m 347 1089 l 365 1089 q 406 1114 406 1089 q 395 1133 406 1128 q 363 1139 385 1139 l 279 1139 l 279 1193 q 379 1204 326 1204 q 468 1185 431 1204 q 506 1121 506 1167 q 483 1066 506 1086 q 425 1043 460 1046 l 425 1004 l 347 1004 l 347 1089 z "},"ẵ":{"ha":772,"x_min":50,"x_max":763,"o":"m 50 0 m 292 -17 q 124 28 197 -17 q 50 189 50 72 q 175 381 50 329 q 536 433 300 433 l 536 514 q 500 612 536 578 q 369 646 464 646 q 242 613 281 646 q 204 531 204 579 l 204 514 l 86 514 q 85 544 85 522 q 165 694 85 642 q 381 747 246 747 q 588 690 517 747 q 658 529 658 633 l 658 133 q 672 97 658 108 q 707 85 686 85 l 763 85 l 763 6 q 668 -11 726 -11 q 589 17 621 -11 q 546 93 557 46 l 536 93 q 434 13 499 42 q 292 -17 369 -17 m 324 85 q 426 107 378 85 q 506 173 475 129 q 536 279 536 217 l 536 332 q 267 303 357 332 q 178 196 178 275 q 215 110 178 136 q 324 85 251 85 m 385 842 q 231 890 278 842 q 183 1004 183 938 l 268 1004 q 385 931 285 931 q 472 953 444 931 q 503 1004 499 975 l 588 1004 q 540 890 588 938 q 385 842 492 842 m 161 1082 q 190 1185 161 1144 q 279 1226 219 1226 q 330 1221 306 1226 q 389 1204 354 1215 q 486 1183 449 1183 q 525 1226 521 1183 l 615 1226 q 586 1123 615 1164 q 497 1082 557 1082 q 447 1088 471 1082 q 388 1104 422 1093 q 290 1125 328 1125 q 251 1082 256 1125 l 161 1082 z "},"ǎ":{"ha":772,"x_min":50,"x_max":763,"o":"m 50 0 m 292 -17 q 124 28 197 -17 q 50 189 50 72 q 175 381 50 329 q 536 433 300 433 l 536 514 q 500 612 536 578 q 369 646 464 646 q 242 613 281 646 q 204 531 204 579 l 204 514 l 86 514 q 85 544 85 522 q 165 694 85 642 q 381 747 246 747 q 588 690 517 747 q 658 529 658 633 l 658 133 q 672 97 658 108 q 707 85 686 85 l 763 85 l 763 6 q 668 -11 726 -11 q 589 17 621 -11 q 546 93 557 46 l 536 93 q 434 13 499 42 q 292 -17 369 -17 m 324 85 q 426 107 378 85 q 506 173 475 129 q 536 279 536 217 l 536 332 q 267 303 357 332 q 178 196 178 275 q 215 110 178 136 q 324 85 251 85 m 328 817 l 181 1004 l 306 1004 l 386 894 l 465 1004 l 590 1004 l 444 817 l 328 817 z "},"â":{"ha":772,"x_min":50,"x_max":763,"o":"m 50 0 m 292 -17 q 124 28 197 -17 q 50 189 50 72 q 175 381 50 329 q 536 433 300 433 l 536 514 q 500 612 536 578 q 369 646 464 646 q 242 613 281 646 q 204 531 204 579 l 204 514 l 86 514 q 85 544 85 522 q 165 694 85 642 q 381 747 246 747 q 588 690 517 747 q 658 529 658 633 l 658 133 q 672 97 658 108 q 707 85 686 85 l 763 85 l 763 6 q 668 -11 726 -11 q 589 17 621 -11 q 546 93 557 46 l 536 93 q 434 13 499 42 q 292 -17 369 -17 m 324 85 q 426 107 378 85 q 506 173 475 129 q 536 279 536 217 l 536 332 q 267 303 357 332 q 178 196 178 275 q 215 110 178 136 q 324 85 251 85 m 181 817 l 328 1004 l 444 1004 l 590 817 l 465 817 l 386 926 l 306 817 l 181 817 z "},"ấ":{"ha":772,"x_min":50,"x_max":771,"o":"m 50 0 m 292 -17 q 124 28 197 -17 q 50 189 50 72 q 175 381 50 329 q 536 433 300 433 l 536 514 q 500 612 536 578 q 369 646 464 646 q 242 613 281 646 q 204 531 204 579 l 204 514 l 86 514 q 85 544 85 522 q 165 694 85 642 q 381 747 246 747 q 588 690 517 747 q 658 529 658 633 l 658 133 q 672 97 658 108 q 707 85 686 85 l 763 85 l 763 6 q 668 -11 726 -11 q 589 17 621 -11 q 546 93 557 46 l 536 93 q 434 13 499 42 q 292 -17 369 -17 m 324 85 q 426 107 378 85 q 506 173 475 129 q 536 279 536 217 l 536 332 q 267 303 357 332 q 178 196 178 275 q 215 110 178 136 q 324 85 251 85 m 181 817 l 328 1004 l 444 1004 l 590 817 l 465 817 l 386 926 l 306 817 l 181 817 m 517 953 l 636 1136 l 769 1136 l 771 1132 l 621 953 l 517 953 z "},"ậ":{"ha":772,"x_min":50,"x_max":763,"o":"m 50 0 m 292 -17 q 124 28 197 -17 q 50 189 50 72 q 175 381 50 329 q 536 433 300 433 l 536 514 q 500 612 536 578 q 369 646 464 646 q 242 613 281 646 q 204 531 204 579 l 204 514 l 86 514 q 85 544 85 522 q 165 694 85 642 q 381 747 246 747 q 588 690 517 747 q 658 529 658 633 l 658 133 q 672 97 658 108 q 707 85 686 85 l 763 85 l 763 6 q 668 -11 726 -11 q 589 17 621 -11 q 546 93 557 46 l 536 93 q 434 13 499 42 q 292 -17 369 -17 m 324 85 q 426 107 378 85 q 506 173 475 129 q 536 279 536 217 l 536 332 q 267 303 357 332 q 178 196 178 275 q 215 110 178 136 q 324 85 251 85 m 181 817 l 328 1004 l 444 1004 l 590 817 l 465 817 l 386 926 l 306 817 l 181 817 m 325 -240 l 325 -108 l 446 -108 l 446 -240 l 325 -240 z "},"ầ":{"ha":772,"x_min":50,"x_max":763,"o":"m 50 0 m 292 -17 q 124 28 197 -17 q 50 189 50 72 q 175 381 50 329 q 536 433 300 433 l 536 514 q 500 612 536 578 q 369 646 464 646 q 242 613 281 646 q 204 531 204 579 l 204 514 l 86 514 q 85 544 85 522 q 165 694 85 642 q 381 747 246 747 q 588 690 517 747 q 658 529 658 633 l 658 133 q 672 97 658 108 q 707 85 686 85 l 763 85 l 763 6 q 668 -11 726 -11 q 589 17 621 -11 q 546 93 557 46 l 536 93 q 434 13 499 42 q 292 -17 369 -17 m 324 85 q 426 107 378 85 q 506 173 475 129 q 536 279 536 217 l 536 332 q 267 303 357 332 q 178 196 178 275 q 215 110 178 136 q 324 85 251 85 m 181 817 l 328 1004 l 444 1004 l 590 817 l 465 817 l 386 926 l 306 817 l 181 817 m 572 953 l 422 1132 l 424 1136 l 557 1136 l 676 953 l 572 953 z "},"ẩ":{"ha":772,"x_min":50,"x_max":763,"o":"m 50 0 m 292 -17 q 124 28 197 -17 q 50 189 50 72 q 175 381 50 329 q 536 433 300 433 l 536 514 q 500 612 536 578 q 369 646 464 646 q 242 613 281 646 q 204 531 204 579 l 204 514 l 86 514 q 85 544 85 522 q 165 694 85 642 q 381 747 246 747 q 588 690 517 747 q 658 529 658 633 l 658 133 q 672 97 658 108 q 707 85 686 85 l 763 85 l 763 6 q 668 -11 726 -11 q 589 17 621 -11 q 546 93 557 46 l 536 93 q 434 13 499 42 q 292 -17 369 -17 m 324 85 q 426 107 378 85 q 506 173 475 129 q 536 279 536 217 l 536 332 q 267 303 357 332 q 178 196 178 275 q 215 110 178 136 q 324 85 251 85 m 181 817 l 328 1004 l 444 1004 l 590 817 l 465 817 l 386 926 l 306 817 l 181 817 m 531 1038 l 549 1038 q 589 1063 589 1038 q 578 1082 589 1076 q 546 1088 568 1088 l 463 1088 l 463 1142 q 563 1153 510 1153 q 651 1134 614 1153 q 689 1069 689 1115 q 666 1015 689 1035 q 608 992 643 994 l 608 953 l 531 953 l 531 1038 z "},"ẫ":{"ha":772,"x_min":50,"x_max":763,"o":"m 50 0 m 292 -17 q 124 28 197 -17 q 50 189 50 72 q 175 381 50 329 q 536 433 300 433 l 536 514 q 500 612 536 578 q 369 646 464 646 q 242 613 281 646 q 204 531 204 579 l 204 514 l 86 514 q 85 544 85 522 q 165 694 85 642 q 381 747 246 747 q 588 690 517 747 q 658 529 658 633 l 658 133 q 672 97 658 108 q 707 85 686 85 l 763 85 l 763 6 q 668 -11 726 -11 q 589 17 621 -11 q 546 93 557 46 l 536 93 q 434 13 499 42 q 292 -17 369 -17 m 324 85 q 426 107 378 85 q 506 173 475 129 q 536 279 536 217 l 536 332 q 267 303 357 332 q 178 196 178 275 q 215 110 178 136 q 324 85 251 85 m 181 817 l 328 1004 l 444 1004 l 590 817 l 465 817 l 386 926 l 306 817 l 181 817 m 161 1082 q 190 1185 161 1144 q 279 1226 219 1226 q 330 1221 306 1226 q 389 1204 354 1215 q 486 1183 449 1183 q 525 1226 521 1183 l 615 1226 q 586 1123 615 1164 q 497 1082 557 1082 q 447 1088 471 1082 q 388 1104 422 1093 q 290 1125 328 1125 q 251 1082 256 1125 l 161 1082 z "},"ȁ":{"ha":772,"x_min":50,"x_max":763,"o":"m 50 0 m 292 -17 q 124 28 197 -17 q 50 189 50 72 q 175 381 50 329 q 536 433 300 433 l 536 514 q 500 612 536 578 q 369 646 464 646 q 242 613 281 646 q 204 531 204 579 l 204 514 l 86 514 q 85 544 85 522 q 165 694 85 642 q 381 747 246 747 q 588 690 517 747 q 658 529 658 633 l 658 133 q 672 97 658 108 q 707 85 686 85 l 763 85 l 763 6 q 668 -11 726 -11 q 589 17 621 -11 q 546 93 557 46 l 536 93 q 434 13 499 42 q 292 -17 369 -17 m 324 85 q 426 107 378 85 q 506 173 475 129 q 536 279 536 217 l 536 332 q 267 303 357 332 q 178 196 178 275 q 215 110 178 136 q 324 85 251 85 m 257 821 l 140 1000 l 142 1004 l 276 1004 l 363 821 l 257 821 m 450 821 l 333 1000 l 335 1004 l 469 1004 l 556 821 l 450 821 z "},"ä":{"ha":772,"x_min":50,"x_max":763,"o":"m 50 0 m 292 -17 q 124 28 197 -17 q 50 189 50 72 q 175 381 50 329 q 536 433 300 433 l 536 514 q 500 612 536 578 q 369 646 464 646 q 242 613 281 646 q 204 531 204 579 l 204 514 l 86 514 q 85 544 85 522 q 165 694 85 642 q 381 747 246 747 q 588 690 517 747 q 658 529 658 633 l 658 133 q 672 97 658 108 q 707 85 686 85 l 763 85 l 763 6 q 668 -11 726 -11 q 589 17 621 -11 q 546 93 557 46 l 536 93 q 434 13 499 42 q 292 -17 369 -17 m 324 85 q 426 107 378 85 q 506 173 475 129 q 536 279 536 217 l 536 332 q 267 303 357 332 q 178 196 178 275 q 215 110 178 136 q 324 85 251 85 m 196 872 l 196 1004 l 317 1004 l 317 872 l 196 872 m 456 872 l 456 1004 l 576 1004 l 576 872 l 456 872 z "},"ạ":{"ha":772,"x_min":50,"x_max":763,"o":"m 50 0 m 292 -17 q 124 28 197 -17 q 50 189 50 72 q 175 381 50 329 q 536 433 300 433 l 536 514 q 500 612 536 578 q 369 646 464 646 q 242 613 281 646 q 204 531 204 579 l 204 514 l 86 514 q 85 544 85 522 q 165 694 85 642 q 381 747 246 747 q 588 690 517 747 q 658 529 658 633 l 658 133 q 672 97 658 108 q 707 85 686 85 l 763 85 l 763 6 q 668 -11 726 -11 q 589 17 621 -11 q 546 93 557 46 l 536 93 q 434 13 499 42 q 292 -17 369 -17 m 324 85 q 426 107 378 85 q 506 173 475 129 q 536 279 536 217 l 536 332 q 267 303 357 332 q 178 196 178 275 q 215 110 178 136 q 324 85 251 85 m 325 -240 l 325 -108 l 446 -108 l 446 -240 l 325 -240 z "},"à":{"ha":772,"x_min":50,"x_max":763,"o":"m 50 0 m 292 -17 q 124 28 197 -17 q 50 189 50 72 q 175 381 50 329 q 536 433 300 433 l 536 514 q 500 612 536 578 q 369 646 464 646 q 242 613 281 646 q 204 531 204 579 l 204 514 l 86 514 q 85 544 85 522 q 165 694 85 642 q 381 747 246 747 q 588 690 517 747 q 658 529 658 633 l 658 133 q 672 97 658 108 q 707 85 686 85 l 763 85 l 763 6 q 668 -11 726 -11 q 589 17 621 -11 q 546 93 557 46 l 536 93 q 434 13 499 42 q 292 -17 369 -17 m 324 85 q 426 107 378 85 q 506 173 475 129 q 536 279 536 217 l 536 332 q 267 303 357 332 q 178 196 178 275 q 215 110 178 136 q 324 85 251 85 m 333 821 l 183 1000 l 185 1004 l 318 1004 l 438 821 l 333 821 z "},"ả":{"ha":772,"x_min":50,"x_max":763,"o":"m 50 0 m 292 -17 q 124 28 197 -17 q 50 189 50 72 q 175 381 50 329 q 536 433 300 433 l 536 514 q 500 612 536 578 q 369 646 464 646 q 242 613 281 646 q 204 531 204 579 l 204 514 l 86 514 q 85 544 85 522 q 165 694 85 642 q 381 747 246 747 q 588 690 517 747 q 658 529 658 633 l 658 133 q 672 97 658 108 q 707 85 686 85 l 763 85 l 763 6 q 668 -11 726 -11 q 589 17 621 -11 q 546 93 557 46 l 536 93 q 434 13 499 42 q 292 -17 369 -17 m 324 85 q 426 107 378 85 q 506 173 475 129 q 536 279 536 217 l 536 332 q 267 303 357 332 q 178 196 178 275 q 215 110 178 136 q 324 85 251 85 m 347 906 l 365 906 q 406 931 406 906 q 395 950 406 944 q 363 956 385 956 l 279 956 l 279 1010 q 379 1021 326 1021 q 468 1002 431 1021 q 506 938 506 983 q 483 883 506 903 q 425 860 460 863 l 425 821 l 347 821 l 347 906 z "},"ȃ":{"ha":772,"x_min":50,"x_max":763,"o":"m 50 0 m 292 -17 q 124 28 197 -17 q 50 189 50 72 q 175 381 50 329 q 536 433 300 433 l 536 514 q 500 612 536 578 q 369 646 464 646 q 242 613 281 646 q 204 531 204 579 l 204 514 l 86 514 q 85 544 85 522 q 165 694 85 642 q 381 747 246 747 q 588 690 517 747 q 658 529 658 633 l 658 133 q 672 97 658 108 q 707 85 686 85 l 763 85 l 763 6 q 668 -11 726 -11 q 589 17 621 -11 q 546 93 557 46 l 536 93 q 434 13 499 42 q 292 -17 369 -17 m 324 85 q 426 107 378 85 q 506 173 475 129 q 536 279 536 217 l 536 332 q 267 303 357 332 q 178 196 178 275 q 215 110 178 136 q 324 85 251 85 m 183 842 q 231 956 183 908 q 385 1004 278 1004 q 540 956 492 1004 q 588 842 588 908 l 503 842 q 472 893 499 871 q 385 915 444 915 q 268 842 285 915 l 183 842 z "},"ā":{"ha":772,"x_min":50,"x_max":763,"o":"m 50 0 m 292 -17 q 124 28 197 -17 q 50 189 50 72 q 175 381 50 329 q 536 433 300 433 l 536 514 q 500 612 536 578 q 369 646 464 646 q 242 613 281 646 q 204 531 204 579 l 204 514 l 86 514 q 85 544 85 522 q 165 694 85 642 q 381 747 246 747 q 588 690 517 747 q 658 529 658 633 l 658 133 q 672 97 658 108 q 707 85 686 85 l 763 85 l 763 6 q 668 -11 726 -11 q 589 17 621 -11 q 546 93 557 46 l 536 93 q 434 13 499 42 q 292 -17 369 -17 m 324 85 q 426 107 378 85 q 506 173 475 129 q 536 279 536 217 l 536 332 q 267 303 357 332 q 178 196 178 275 q 215 110 178 136 q 324 85 251 85 m 174 871 l 174 971 l 597 971 l 597 871 l 174 871 z "},"ą":{"ha":772,"x_min":50,"x_max":763,"o":"m 667 -253 q 575 -223 614 -253 q 536 -128 536 -193 q 606 4 536 -50 q 546 93 558 32 l 536 93 q 434 13 499 42 q 292 -17 369 -17 q 124 28 197 -17 q 50 189 50 72 q 175 381 50 329 q 536 433 300 433 l 536 514 q 500 612 536 578 q 369 646 464 646 q 242 613 281 646 q 204 531 204 579 l 204 514 l 86 514 q 85 544 85 522 q 165 694 85 642 q 381 747 246 747 q 588 690 517 747 q 658 529 658 633 l 658 133 q 672 97 658 108 q 707 85 686 85 l 763 85 l 763 6 q 678 -22 711 -3 q 644 -92 644 -40 q 663 -142 644 -122 q 718 -162 681 -162 l 763 -162 l 763 -233 q 667 -253 711 -253 m 324 85 q 426 107 378 85 q 506 173 475 129 q 536 279 536 217 l 536 332 q 267 303 357 332 q 178 196 178 275 q 215 110 178 136 q 324 85 251 85 z "},"å":{"ha":772,"x_min":50,"x_max":763,"o":"m 50 0 m 292 -17 q 124 28 197 -17 q 50 189 50 72 q 175 381 50 329 q 536 433 300 433 l 536 514 q 500 612 536 578 q 369 646 464 646 q 242 613 281 646 q 204 531 204 579 l 204 514 l 86 514 q 85 544 85 522 q 165 694 85 642 q 381 747 246 747 q 588 690 517 747 q 658 529 658 633 l 658 133 q 672 97 658 108 q 707 85 686 85 l 763 85 l 763 6 q 668 -11 726 -11 q 589 17 621 -11 q 546 93 557 46 l 536 93 q 434 13 499 42 q 292 -17 369 -17 m 324 85 q 426 107 378 85 q 506 173 475 129 q 536 279 536 217 l 536 332 q 267 303 357 332 q 178 196 178 275 q 215 110 178 136 q 324 85 251 85 m 386 786 q 289 824 325 786 q 253 919 253 863 q 289 1015 253 976 q 386 1053 325 1053 q 483 1015 447 1053 q 519 919 519 976 q 483 824 519 863 q 386 786 447 786 m 386 849 q 437 869 417 849 q 457 919 457 890 q 437 969 457 949 q 386 990 417 990 q 335 969 356 990 q 315 919 315 949 q 335 869 315 890 q 386 849 356 849 z "},"ǻ":{"ha":772,"x_min":50,"x_max":763,"o":"m 50 0 m 292 -17 q 124 28 197 -17 q 50 189 50 72 q 175 381 50 329 q 536 433 300 433 l 536 514 q 500 612 536 578 q 369 646 464 646 q 242 613 281 646 q 204 531 204 579 l 204 514 l 86 514 q 85 544 85 522 q 165 694 85 642 q 381 747 246 747 q 588 690 517 747 q 658 529 658 633 l 658 133 q 672 97 658 108 q 707 85 686 85 l 763 85 l 763 6 q 668 -11 726 -11 q 589 17 621 -11 q 546 93 557 46 l 536 93 q 434 13 499 42 q 292 -17 369 -17 m 324 85 q 426 107 378 85 q 506 173 475 129 q 536 279 536 217 l 536 332 q 267 303 357 332 q 178 196 178 275 q 215 110 178 136 q 324 85 251 85 m 386 786 q 289 824 325 786 q 253 919 253 863 q 289 1015 253 976 q 386 1053 325 1053 q 483 1015 447 1053 q 519 919 519 976 q 483 824 519 863 q 386 786 447 786 m 386 849 q 437 869 417 849 q 457 919 457 890 q 437 969 457 949 q 386 990 417 990 q 335 969 356 990 q 315 919 315 949 q 335 869 315 890 q 386 849 356 849 m 335 1086 l 454 1269 l 588 1269 l 589 1265 l 439 1086 l 335 1086 z "},"ã":{"ha":772,"x_min":50,"x_max":763,"o":"m 50 0 m 292 -17 q 124 28 197 -17 q 50 189 50 72 q 175 381 50 329 q 536 433 300 433 l 536 514 q 500 612 536 578 q 369 646 464 646 q 242 613 281 646 q 204 531 204 579 l 204 514 l 86 514 q 85 544 85 522 q 165 694 85 642 q 381 747 246 747 q 588 690 517 747 q 658 529 658 633 l 658 133 q 672 97 658 108 q 707 85 686 85 l 763 85 l 763 6 q 668 -11 726 -11 q 589 17 621 -11 q 546 93 557 46 l 536 93 q 434 13 499 42 q 292 -17 369 -17 m 324 85 q 426 107 378 85 q 506 173 475 129 q 536 279 536 217 l 536 332 q 267 303 357 332 q 178 196 178 275 q 215 110 178 136 q 324 85 251 85 m 158 860 q 188 963 158 922 q 276 1004 217 1004 q 327 999 303 1004 q 386 982 351 993 q 483 961 446 961 q 522 1004 518 961 l 613 1004 q 583 901 613 942 q 494 860 554 860 q 444 865 468 860 q 385 882 419 871 q 288 903 325 903 q 249 860 253 903 l 158 860 z "},"æ":{"ha":1235,"x_min":50,"x_max":1181,"o":"m 306 -17 q 128 28 206 -17 q 50 189 50 72 q 176 381 50 329 q 539 433 303 433 l 539 514 q 501 612 539 578 q 369 646 464 646 q 242 613 281 646 q 204 531 204 579 l 204 514 l 86 514 q 85 544 85 522 q 165 694 85 642 q 381 747 246 747 q 622 644 553 747 q 874 747 706 747 q 1103 663 1026 747 q 1181 393 1181 579 l 1181 332 l 663 332 q 720 145 669 206 q 874 85 771 85 q 1009 125 957 85 q 1061 249 1061 165 l 1181 249 q 1094 52 1181 121 q 874 -17 1008 -17 q 600 107 678 -17 q 472 16 550 49 q 306 -17 394 -17 m 1053 433 q 874 646 1053 646 q 725 596 775 646 q 665 433 675 546 l 1053 433 m 324 85 q 476 132 413 85 q 539 279 539 179 l 539 332 q 269 303 360 332 q 178 196 178 275 q 215 110 178 136 q 324 85 251 85 z "},"ǽ":{"ha":1235,"x_min":50,"x_max":1181,"o":"m 50 0 m 306 -17 q 128 28 206 -17 q 50 189 50 72 q 176 381 50 329 q 539 433 303 433 l 539 514 q 501 612 539 578 q 369 646 464 646 q 242 613 281 646 q 204 531 204 579 l 204 514 l 86 514 q 85 544 85 522 q 165 694 85 642 q 381 747 246 747 q 622 644 553 747 q 874 747 706 747 q 1103 663 1026 747 q 1181 393 1181 579 l 1181 332 l 663 332 q 720 145 669 206 q 874 85 771 85 q 1009 125 957 85 q 1061 249 1061 165 l 1181 249 q 1094 52 1181 121 q 874 -17 1008 -17 q 600 107 678 -17 q 472 16 550 49 q 306 -17 394 -17 m 1053 433 q 874 646 1053 646 q 725 596 775 646 q 665 433 675 546 l 1053 433 m 324 85 q 476 132 413 85 q 539 279 539 179 l 539 332 q 269 303 360 332 q 178 196 178 275 q 215 110 178 136 q 324 85 251 85 m 565 821 l 685 1004 l 818 1004 l 819 1000 l 669 821 l 565 821 z "},"b":{"ha":772,"x_min":93,"x_max":724,"o":"m 435 -17 q 303 13 363 -17 q 208 99 244 42 l 200 99 l 185 0 l 93 0 l 93 1004 l 215 1004 l 215 647 l 224 647 q 314 724 260 700 q 446 747 368 747 q 649 652 575 747 q 724 365 724 557 q 649 76 724 169 q 435 -17 574 -17 m 404 85 q 517 111 475 85 q 578 197 558 138 q 597 360 597 257 l 597 365 q 578 531 597 469 q 516 619 558 592 q 404 646 474 646 q 261 575 307 646 q 215 365 215 504 l 215 360 q 260 154 215 224 q 404 85 306 85 z "},"c":{"ha":694,"x_min":49,"x_max":660,"o":"m 371 -17 q 126 76 204 -17 q 49 365 49 168 q 127 654 49 561 q 371 747 206 747 q 590 675 521 747 q 660 460 660 603 l 535 460 q 499 602 535 558 q 371 646 464 646 q 222 580 269 646 q 175 365 175 514 l 175 360 q 221 149 175 213 q 371 85 267 85 q 502 131 463 85 q 542 271 542 178 l 660 271 q 589 65 660 146 q 371 -17 518 -17 z "},"ć":{"ha":694,"x_min":49,"x_max":660,"o":"m 49 0 m 371 -17 q 126 76 204 -17 q 49 365 49 168 q 127 654 49 561 q 371 747 206 747 q 590 675 521 747 q 660 460 660 603 l 535 460 q 499 602 535 558 q 371 646 464 646 q 222 580 269 646 q 175 365 175 514 l 175 360 q 221 149 175 213 q 371 85 267 85 q 502 131 463 85 q 542 271 542 178 l 660 271 q 589 65 660 146 q 371 -17 518 -17 m 294 821 l 414 1004 l 547 1004 l 549 1000 l 399 821 l 294 821 z "},"č":{"ha":694,"x_min":49,"x_max":660,"o":"m 49 0 m 371 -17 q 126 76 204 -17 q 49 365 49 168 q 127 654 49 561 q 371 747 206 747 q 590 675 521 747 q 660 460 660 603 l 535 460 q 499 602 535 558 q 371 646 464 646 q 222 580 269 646 q 175 365 175 514 l 175 360 q 221 149 175 213 q 371 85 267 85 q 502 131 463 85 q 542 271 542 178 l 660 271 q 589 65 660 146 q 371 -17 518 -17 m 289 817 l 142 1004 l 267 1004 l 347 894 l 426 1004 l 551 1004 l 406 817 l 289 817 z "},"ç":{"ha":694,"x_min":49,"x_max":660,"o":"m 371 85 q 502 131 463 85 q 542 271 542 178 l 660 271 q 592 68 660 149 q 385 -17 525 -12 l 379 -50 q 507 -140 507 -58 q 457 -228 507 -203 q 343 -253 407 -253 q 211 -242 271 -253 l 211 -174 l 350 -174 q 392 -166 378 -174 q 407 -140 407 -158 q 395 -115 407 -124 q 353 -107 383 -107 l 282 -107 l 299 -12 q 109 98 169 6 q 49 365 49 190 q 127 654 49 561 q 371 747 206 747 q 590 675 521 747 q 660 460 660 603 l 535 460 q 499 602 535 558 q 371 646 464 646 q 222 580 269 646 q 175 365 175 514 l 175 360 q 221 149 175 213 q 371 85 267 85 z "},"ĉ":{"ha":694,"x_min":49,"x_max":660,"o":"m 49 0 m 371 -17 q 126 76 204 -17 q 49 365 49 168 q 127 654 49 561 q 371 747 206 747 q 590 675 521 747 q 660 460 660 603 l 535 460 q 499 602 535 558 q 371 646 464 646 q 222 580 269 646 q 175 365 175 514 l 175 360 q 221 149 175 213 q 371 85 267 85 q 502 131 463 85 q 542 271 542 178 l 660 271 q 589 65 660 146 q 371 -17 518 -17 m 142 817 l 289 1004 l 406 1004 l 551 817 l 426 817 l 347 926 l 267 817 l 142 817 z "},"ċ":{"ha":694,"x_min":49,"x_max":660,"o":"m 49 0 m 371 -17 q 126 76 204 -17 q 49 365 49 168 q 127 654 49 561 q 371 747 206 747 q 590 675 521 747 q 660 460 660 603 l 535 460 q 499 602 535 558 q 371 646 464 646 q 222 580 269 646 q 175 365 175 514 l 175 360 q 221 149 175 213 q 371 85 267 85 q 502 131 463 85 q 542 271 542 178 l 660 271 q 589 65 660 146 q 371 -17 518 -17 m 286 872 l 286 1004 l 407 1004 l 407 872 l 286 872 z "},"d":{"ha":772,"x_min":49,"x_max":679,"o":"m 338 -17 q 124 76 199 -17 q 49 365 49 169 q 123 652 49 557 q 326 747 197 747 q 458 724 404 747 q 549 647 513 700 l 557 647 l 557 1004 l 679 1004 l 679 0 l 588 0 l 572 99 l 564 99 q 469 13 528 42 q 338 -17 410 -17 m 368 85 q 512 154 467 85 q 557 360 557 224 l 557 365 q 511 575 557 504 q 368 646 465 646 q 256 619 299 646 q 194 531 214 592 q 175 365 175 469 l 175 360 q 194 197 175 257 q 256 111 214 138 q 368 85 297 85 z "},"ð":{"ha":772,"x_min":49,"x_max":724,"o":"m 510 860 q 668 631 613 751 q 724 365 724 510 q 639 77 724 171 q 386 -17 554 -17 q 133 77 218 -17 q 49 365 49 171 q 135 653 49 558 q 367 747 221 747 q 474 732 415 747 l 475 733 q 378 850 435 796 l 167 833 l 167 917 l 304 928 l 243 974 l 210 999 l 213 1004 l 349 1004 q 428 938 393 971 l 639 951 l 639 868 l 510 860 m 386 85 q 546 150 496 85 q 597 363 596 215 q 546 579 596 513 q 386 646 496 646 q 225 581 275 646 q 175 372 175 517 l 175 365 q 225 151 175 217 q 386 85 275 85 z "},"ď":{"ha":868,"x_min":49,"x_max":875,"o":"m 338 -17 q 124 76 199 -17 q 49 365 49 169 q 123 652 49 557 q 326 747 197 747 q 458 724 404 747 q 549 647 513 700 l 557 647 l 557 1004 l 679 1004 l 679 0 l 588 0 l 572 99 l 564 99 q 469 13 528 42 q 338 -17 410 -17 m 757 681 l 804 826 l 757 826 l 757 953 l 875 953 l 875 836 l 818 681 l 757 681 m 368 85 q 512 154 467 85 q 557 360 557 224 l 557 365 q 511 575 557 504 q 368 646 465 646 q 256 619 299 646 q 194 531 214 592 q 175 365 175 469 l 175 360 q 194 197 175 257 q 256 111 214 138 q 368 85 297 85 z "},"đ":{"ha":772,"x_min":49,"x_max":771,"o":"m 771 828 l 679 828 l 679 0 l 588 0 l 572 99 l 564 99 q 469 13 528 42 q 338 -17 410 -17 q 124 76 199 -17 q 49 365 49 169 q 123 652 49 557 q 326 747 197 747 q 458 724 404 747 q 549 647 513 700 l 557 647 l 557 828 l 363 828 l 363 914 l 557 914 l 557 1004 l 679 1004 l 679 914 l 771 914 l 771 828 m 557 365 q 511 575 557 504 q 368 646 465 646 q 256 619 299 646 q 194 531 214 592 q 175 365 175 469 l 175 360 q 194 197 175 257 q 256 111 214 138 q 368 85 297 85 q 512 154 467 85 q 557 360 557 224 l 557 365 z "},"ḍ":{"ha":772,"x_min":49,"x_max":679,"o":"m 49 0 m 338 -17 q 124 76 199 -17 q 49 365 49 169 q 123 652 49 557 q 326 747 197 747 q 458 724 404 747 q 549 647 513 700 l 557 647 l 557 1004 l 679 1004 l 679 0 l 588 0 l 572 99 l 564 99 q 469 13 528 42 q 338 -17 410 -17 m 368 85 q 512 154 467 85 q 557 360 557 224 l 557 365 q 511 575 557 504 q 368 646 465 646 q 256 619 299 646 q 194 531 214 592 q 175 365 175 469 l 175 360 q 194 197 175 257 q 256 111 214 138 q 368 85 297 85 m 325 -240 l 325 -108 l 446 -108 l 446 -240 l 325 -240 z "},"ǳ":{"ha":1467,"x_min":49,"x_max":1432,"o":"m 49 0 m 338 -17 q 124 76 199 -17 q 49 365 49 169 q 123 652 49 557 q 326 747 197 747 q 458 724 404 747 q 549 647 513 700 l 557 647 l 557 1004 l 679 1004 l 679 0 l 588 0 l 572 99 l 564 99 q 469 13 528 42 q 338 -17 410 -17 m 368 85 q 512 154 467 85 q 557 360 557 224 l 557 365 q 511 575 557 504 q 368 646 465 646 q 256 619 299 646 q 194 531 214 592 q 175 365 175 469 l 175 360 q 194 197 175 257 q 256 111 214 138 q 368 85 297 85 m 806 0 l 806 65 l 1229 629 l 835 629 l 835 731 l 1408 731 l 1408 667 l 983 101 l 1432 101 l 1432 0 l 806 0 z "},"ǆ":{"ha":1467,"x_min":49,"x_max":1432,"o":"m 49 0 m 338 -17 q 124 76 199 -17 q 49 365 49 169 q 123 652 49 557 q 326 747 197 747 q 458 724 404 747 q 549 647 513 700 l 557 647 l 557 1004 l 679 1004 l 679 0 l 588 0 l 572 99 l 564 99 q 469 13 528 42 q 338 -17 410 -17 m 368 85 q 512 154 467 85 q 557 360 557 224 l 557 365 q 511 575 557 504 q 368 646 465 646 q 256 619 299 646 q 194 531 214 592 q 175 365 175 469 l 175 360 q 194 197 175 257 q 256 111 214 138 q 368 85 297 85 m 806 0 l 806 65 l 1229 629 l 835 629 l 835 731 l 1408 731 l 1408 667 l 983 101 l 1432 101 l 1432 0 l 806 0 m 1061 817 l 914 1004 l 1039 1004 l 1119 894 l 1199 1004 l 1324 1004 l 1178 817 l 1061 817 z "},"e":{"ha":772,"x_min":54,"x_max":718,"o":"m 403 -17 q 140 76 226 -17 q 54 365 54 169 q 140 654 54 561 q 403 747 226 747 q 640 663 561 747 q 718 393 718 579 l 718 332 l 181 332 q 241 145 188 206 q 403 85 294 85 q 544 125 490 85 q 599 249 599 165 l 718 249 q 630 52 718 121 q 403 -17 542 -17 m 590 433 q 403 646 590 646 q 247 596 299 646 q 183 433 194 546 l 590 433 z "},"é":{"ha":772,"x_min":54,"x_max":718,"o":"m 54 0 m 403 -17 q 140 76 226 -17 q 54 365 54 169 q 140 654 54 561 q 403 747 226 747 q 640 663 561 747 q 718 393 718 579 l 718 332 l 181 332 q 241 145 188 206 q 403 85 294 85 q 544 125 490 85 q 599 249 599 165 l 718 249 q 630 52 718 121 q 403 -17 542 -17 m 590 433 q 403 646 590 646 q 247 596 299 646 q 183 433 194 546 l 590 433 m 333 821 l 453 1004 l 586 1004 l 588 1000 l 438 821 l 333 821 z "},"ĕ":{"ha":772,"x_min":54,"x_max":718,"o":"m 54 0 m 403 -17 q 140 76 226 -17 q 54 365 54 169 q 140 654 54 561 q 403 747 226 747 q 640 663 561 747 q 718 393 718 579 l 718 332 l 181 332 q 241 145 188 206 q 403 85 294 85 q 544 125 490 85 q 599 249 599 165 l 718 249 q 630 52 718 121 q 403 -17 542 -17 m 590 433 q 403 646 590 646 q 247 596 299 646 q 183 433 194 546 l 590 433 m 385 842 q 231 890 278 842 q 183 1004 183 938 l 268 1004 q 385 931 285 931 q 472 953 444 931 q 503 1004 499 975 l 588 1004 q 540 890 588 938 q 385 842 492 842 z "},"ě":{"ha":772,"x_min":54,"x_max":718,"o":"m 54 0 m 403 -17 q 140 76 226 -17 q 54 365 54 169 q 140 654 54 561 q 403 747 226 747 q 640 663 561 747 q 718 393 718 579 l 718 332 l 181 332 q 241 145 188 206 q 403 85 294 85 q 544 125 490 85 q 599 249 599 165 l 718 249 q 630 52 718 121 q 403 -17 542 -17 m 590 433 q 403 646 590 646 q 247 596 299 646 q 183 433 194 546 l 590 433 m 328 817 l 181 1004 l 306 1004 l 386 894 l 465 1004 l 590 1004 l 444 817 l 328 817 z "},"ê":{"ha":772,"x_min":54,"x_max":718,"o":"m 54 0 m 403 -17 q 140 76 226 -17 q 54 365 54 169 q 140 654 54 561 q 403 747 226 747 q 640 663 561 747 q 718 393 718 579 l 718 332 l 181 332 q 241 145 188 206 q 403 85 294 85 q 544 125 490 85 q 599 249 599 165 l 718 249 q 630 52 718 121 q 403 -17 542 -17 m 590 433 q 403 646 590 646 q 247 596 299 646 q 183 433 194 546 l 590 433 m 181 817 l 328 1004 l 444 1004 l 590 817 l 465 817 l 386 926 l 306 817 l 181 817 z "},"ế":{"ha":772,"x_min":54,"x_max":771,"o":"m 54 0 m 403 -17 q 140 76 226 -17 q 54 365 54 169 q 140 654 54 561 q 403 747 226 747 q 640 663 561 747 q 718 393 718 579 l 718 332 l 181 332 q 241 145 188 206 q 403 85 294 85 q 544 125 490 85 q 599 249 599 165 l 718 249 q 630 52 718 121 q 403 -17 542 -17 m 590 433 q 403 646 590 646 q 247 596 299 646 q 183 433 194 546 l 590 433 m 181 817 l 328 1004 l 444 1004 l 590 817 l 465 817 l 386 926 l 306 817 l 181 817 m 517 953 l 636 1136 l 769 1136 l 771 1132 l 621 953 l 517 953 z "},"ệ":{"ha":772,"x_min":54,"x_max":718,"o":"m 54 0 m 403 -17 q 140 76 226 -17 q 54 365 54 169 q 140 654 54 561 q 403 747 226 747 q 640 663 561 747 q 718 393 718 579 l 718 332 l 181 332 q 241 145 188 206 q 403 85 294 85 q 544 125 490 85 q 599 249 599 165 l 718 249 q 630 52 718 121 q 403 -17 542 -17 m 590 433 q 403 646 590 646 q 247 596 299 646 q 183 433 194 546 l 590 433 m 181 817 l 328 1004 l 444 1004 l 590 817 l 465 817 l 386 926 l 306 817 l 181 817 m 325 -240 l 325 -108 l 446 -108 l 446 -240 l 325 -240 z "},"ề":{"ha":772,"x_min":54,"x_max":718,"o":"m 54 0 m 403 -17 q 140 76 226 -17 q 54 365 54 169 q 140 654 54 561 q 403 747 226 747 q 640 663 561 747 q 718 393 718 579 l 718 332 l 181 332 q 241 145 188 206 q 403 85 294 85 q 544 125 490 85 q 599 249 599 165 l 718 249 q 630 52 718 121 q 403 -17 542 -17 m 590 433 q 403 646 590 646 q 247 596 299 646 q 183 433 194 546 l 590 433 m 181 817 l 328 1004 l 444 1004 l 590 817 l 465 817 l 386 926 l 306 817 l 181 817 m 572 953 l 422 1132 l 424 1136 l 557 1136 l 676 953 l 572 953 z "},"ể":{"ha":772,"x_min":54,"x_max":718,"o":"m 54 0 m 403 -17 q 140 76 226 -17 q 54 365 54 169 q 140 654 54 561 q 403 747 226 747 q 640 663 561 747 q 718 393 718 579 l 718 332 l 181 332 q 241 145 188 206 q 403 85 294 85 q 544 125 490 85 q 599 249 599 165 l 718 249 q 630 52 718 121 q 403 -17 542 -17 m 590 433 q 403 646 590 646 q 247 596 299 646 q 183 433 194 546 l 590 433 m 181 817 l 328 1004 l 444 1004 l 590 817 l 465 817 l 386 926 l 306 817 l 181 817 m 531 1038 l 549 1038 q 589 1063 589 1038 q 578 1082 589 1076 q 546 1088 568 1088 l 463 1088 l 463 1142 q 563 1153 510 1153 q 651 1134 614 1153 q 689 1069 689 1115 q 666 1015 689 1035 q 608 992 643 994 l 608 953 l 531 953 l 531 1038 z "},"ễ":{"ha":772,"x_min":54,"x_max":718,"o":"m 54 0 m 403 -17 q 140 76 226 -17 q 54 365 54 169 q 140 654 54 561 q 403 747 226 747 q 640 663 561 747 q 718 393 718 579 l 718 332 l 181 332 q 241 145 188 206 q 403 85 294 85 q 544 125 490 85 q 599 249 599 165 l 718 249 q 630 52 718 121 q 403 -17 542 -17 m 590 433 q 403 646 590 646 q 247 596 299 646 q 183 433 194 546 l 590 433 m 181 817 l 328 1004 l 444 1004 l 590 817 l 465 817 l 386 926 l 306 817 l 181 817 m 161 1082 q 190 1185 161 1144 q 279 1226 219 1226 q 330 1221 306 1226 q 389 1204 354 1215 q 486 1183 449 1183 q 525 1226 521 1183 l 615 1226 q 586 1123 615 1164 q 497 1082 557 1082 q 447 1088 471 1082 q 388 1104 422 1093 q 290 1125 328 1125 q 251 1082 256 1125 l 161 1082 z "},"ȅ":{"ha":772,"x_min":54,"x_max":718,"o":"m 54 0 m 403 -17 q 140 76 226 -17 q 54 365 54 169 q 140 654 54 561 q 403 747 226 747 q 640 663 561 747 q 718 393 718 579 l 718 332 l 181 332 q 241 145 188 206 q 403 85 294 85 q 544 125 490 85 q 599 249 599 165 l 718 249 q 630 52 718 121 q 403 -17 542 -17 m 590 433 q 403 646 590 646 q 247 596 299 646 q 183 433 194 546 l 590 433 m 257 821 l 140 1000 l 142 1004 l 276 1004 l 363 821 l 257 821 m 450 821 l 333 1000 l 335 1004 l 469 1004 l 556 821 l 450 821 z "},"ë":{"ha":772,"x_min":54,"x_max":718,"o":"m 54 0 m 403 -17 q 140 76 226 -17 q 54 365 54 169 q 140 654 54 561 q 403 747 226 747 q 640 663 561 747 q 718 393 718 579 l 718 332 l 181 332 q 241 145 188 206 q 403 85 294 85 q 544 125 490 85 q 599 249 599 165 l 718 249 q 630 52 718 121 q 403 -17 542 -17 m 590 433 q 403 646 590 646 q 247 596 299 646 q 183 433 194 546 l 590 433 m 196 872 l 196 1004 l 317 1004 l 317 872 l 196 872 m 456 872 l 456 1004 l 576 1004 l 576 872 l 456 872 z "},"ė":{"ha":772,"x_min":54,"x_max":718,"o":"m 54 0 m 403 -17 q 140 76 226 -17 q 54 365 54 169 q 140 654 54 561 q 403 747 226 747 q 640 663 561 747 q 718 393 718 579 l 718 332 l 181 332 q 241 145 188 206 q 403 85 294 85 q 544 125 490 85 q 599 249 599 165 l 718 249 q 630 52 718 121 q 403 -17 542 -17 m 590 433 q 403 646 590 646 q 247 596 299 646 q 183 433 194 546 l 590 433 m 325 872 l 325 1004 l 446 1004 l 446 872 l 325 872 z "},"ẹ":{"ha":772,"x_min":54,"x_max":718,"o":"m 54 0 m 403 -17 q 140 76 226 -17 q 54 365 54 169 q 140 654 54 561 q 403 747 226 747 q 640 663 561 747 q 718 393 718 579 l 718 332 l 181 332 q 241 145 188 206 q 403 85 294 85 q 544 125 490 85 q 599 249 599 165 l 718 249 q 630 52 718 121 q 403 -17 542 -17 m 590 433 q 403 646 590 646 q 247 596 299 646 q 183 433 194 546 l 590 433 m 325 -240 l 325 -108 l 446 -108 l 446 -240 l 325 -240 z "},"è":{"ha":772,"x_min":54,"x_max":718,"o":"m 54 0 m 403 -17 q 140 76 226 -17 q 54 365 54 169 q 140 654 54 561 q 403 747 226 747 q 640 663 561 747 q 718 393 718 579 l 718 332 l 181 332 q 241 145 188 206 q 403 85 294 85 q 544 125 490 85 q 599 249 599 165 l 718 249 q 630 52 718 121 q 403 -17 542 -17 m 590 433 q 403 646 590 646 q 247 596 299 646 q 183 433 194 546 l 590 433 m 333 821 l 183 1000 l 185 1004 l 318 1004 l 438 821 l 333 821 z "},"ẻ":{"ha":772,"x_min":54,"x_max":718,"o":"m 54 0 m 403 -17 q 140 76 226 -17 q 54 365 54 169 q 140 654 54 561 q 403 747 226 747 q 640 663 561 747 q 718 393 718 579 l 718 332 l 181 332 q 241 145 188 206 q 403 85 294 85 q 544 125 490 85 q 599 249 599 165 l 718 249 q 630 52 718 121 q 403 -17 542 -17 m 590 433 q 403 646 590 646 q 247 596 299 646 q 183 433 194 546 l 590 433 m 347 906 l 365 906 q 406 931 406 906 q 395 950 406 944 q 363 956 385 956 l 279 956 l 279 1010 q 379 1021 326 1021 q 468 1002 431 1021 q 506 938 506 983 q 483 883 506 903 q 425 860 460 863 l 425 821 l 347 821 l 347 906 z "},"ȇ":{"ha":772,"x_min":54,"x_max":718,"o":"m 54 0 m 403 -17 q 140 76 226 -17 q 54 365 54 169 q 140 654 54 561 q 403 747 226 747 q 640 663 561 747 q 718 393 718 579 l 718 332 l 181 332 q 241 145 188 206 q 403 85 294 85 q 544 125 490 85 q 599 249 599 165 l 718 249 q 630 52 718 121 q 403 -17 542 -17 m 590 433 q 403 646 590 646 q 247 596 299 646 q 183 433 194 546 l 590 433 m 183 842 q 231 956 183 908 q 385 1004 278 1004 q 540 956 492 1004 q 588 842 588 908 l 503 842 q 472 893 499 871 q 385 915 444 915 q 268 842 285 915 l 183 842 z "},"ē":{"ha":772,"x_min":54,"x_max":718,"o":"m 54 0 m 403 -17 q 140 76 226 -17 q 54 365 54 169 q 140 654 54 561 q 403 747 226 747 q 640 663 561 747 q 718 393 718 579 l 718 332 l 181 332 q 241 145 188 206 q 403 85 294 85 q 544 125 490 85 q 599 249 599 165 l 718 249 q 630 52 718 121 q 403 -17 542 -17 m 590 433 q 403 646 590 646 q 247 596 299 646 q 183 433 194 546 l 590 433 m 174 871 l 174 971 l 597 971 l 597 871 l 174 871 z "},"ę":{"ha":772,"x_min":54,"x_max":718,"o":"m 626 -253 q 529 -222 568 -253 q 490 -118 490 -190 q 501 -50 490 -82 q 525 4 511 -18 q 403 -17 469 -17 q 140 76 226 -17 q 54 365 54 169 q 140 654 54 561 q 403 747 226 747 q 640 663 561 747 q 718 393 718 579 l 718 332 l 181 332 q 241 145 188 206 q 403 85 294 85 q 544 125 490 85 q 599 249 599 165 l 718 249 q 664 85 717 147 q 619 12 639 54 q 600 -72 600 -31 q 618 -137 600 -111 q 674 -162 636 -162 l 718 -162 l 718 -233 q 626 -253 668 -253 m 590 433 q 403 646 590 646 q 247 596 299 646 q 183 433 194 546 l 590 433 z "},"ẽ":{"ha":772,"x_min":54,"x_max":718,"o":"m 54 0 m 403 -17 q 140 76 226 -17 q 54 365 54 169 q 140 654 54 561 q 403 747 226 747 q 640 663 561 747 q 718 393 718 579 l 718 332 l 181 332 q 241 145 188 206 q 403 85 294 85 q 544 125 490 85 q 599 249 599 165 l 718 249 q 630 52 718 121 q 403 -17 542 -17 m 590 433 q 403 646 590 646 q 247 596 299 646 q 183 433 194 546 l 590 433 m 158 860 q 188 963 158 922 q 276 1004 217 1004 q 327 999 303 1004 q 386 982 351 993 q 483 961 446 961 q 522 1004 518 961 l 613 1004 q 583 901 613 942 q 494 860 554 860 q 444 865 468 860 q 385 882 419 871 q 288 903 325 903 q 249 860 253 903 l 158 860 z "},"f":{"ha":386,"x_min":13,"x_max":382,"o":"m 119 629 l 13 629 l 13 731 l 119 731 l 119 847 q 156 967 119 919 q 278 1015 192 1015 q 334 1010 306 1015 q 382 999 363 1006 l 382 914 l 310 914 q 242 847 242 914 l 242 731 l 382 731 l 382 629 l 242 629 l 242 0 l 119 0 l 119 629 z "},"g":{"ha":772,"x_min":25,"x_max":749,"o":"m 224 -253 q 84 -212 143 -253 q 25 -76 25 -171 q 143 79 25 38 q 88 126 110 97 q 67 192 67 154 q 105 274 67 246 q 189 313 143 301 q 117 394 143 346 q 90 501 90 443 q 169 683 90 618 q 386 747 249 747 q 525 722 463 747 q 631 849 615 765 l 747 849 q 709 736 747 783 q 606 674 671 689 q 683 501 683 604 q 603 320 683 385 q 386 256 524 256 l 269 256 q 212 239 232 256 q 192 196 192 222 q 212 153 192 169 q 269 136 232 136 l 563 136 q 699 84 649 136 q 749 -42 749 32 q 725 -143 749 -94 q 649 -222 701 -192 q 518 -253 597 -253 l 224 -253 m 388 350 q 518 390 474 350 q 563 501 563 429 q 518 613 563 574 q 388 653 474 653 q 257 613 301 653 q 213 501 213 574 q 257 390 213 429 q 388 350 301 350 m 521 -154 q 597 -129 567 -154 q 628 -62 628 -104 q 603 3 628 -21 q 539 28 579 28 l 235 28 q 171 3 194 28 q 147 -62 147 -21 q 171 -129 147 -104 q 235 -154 194 -154 l 521 -154 z "},"ǵ":{"ha":772,"x_min":25,"x_max":749,"o":"m 25 0 m 224 -253 q 84 -212 143 -253 q 25 -76 25 -171 q 143 79 25 38 q 88 126 110 97 q 67 192 67 154 q 105 274 67 246 q 189 313 143 301 q 117 394 143 346 q 90 501 90 443 q 169 683 90 618 q 386 747 249 747 q 525 722 463 747 q 631 849 615 765 l 747 849 q 709 736 747 783 q 606 674 671 689 q 683 501 683 604 q 603 320 683 385 q 386 256 524 256 l 269 256 q 212 239 232 256 q 192 196 192 222 q 212 153 192 169 q 269 136 232 136 l 563 136 q 699 84 649 136 q 749 -42 749 32 q 725 -143 749 -94 q 649 -222 701 -192 q 518 -253 597 -253 l 224 -253 m 388 350 q 518 390 474 350 q 563 501 563 429 q 518 613 563 574 q 388 653 474 653 q 257 613 301 653 q 213 501 213 574 q 257 390 213 429 q 388 350 301 350 m 521 -154 q 597 -129 567 -154 q 628 -62 628 -104 q 603 3 628 -21 q 539 28 579 28 l 235 28 q 171 3 194 28 q 147 -62 147 -21 q 171 -129 147 -104 q 235 -154 194 -154 l 521 -154 m 333 821 l 453 1004 l 586 1004 l 588 1000 l 438 821 l 333 821 z "},"ğ":{"ha":772,"x_min":25,"x_max":749,"o":"m 25 0 m 224 -253 q 84 -212 143 -253 q 25 -76 25 -171 q 143 79 25 38 q 88 126 110 97 q 67 192 67 154 q 105 274 67 246 q 189 313 143 301 q 117 394 143 346 q 90 501 90 443 q 169 683 90 618 q 386 747 249 747 q 525 722 463 747 q 631 849 615 765 l 747 849 q 709 736 747 783 q 606 674 671 689 q 683 501 683 604 q 603 320 683 385 q 386 256 524 256 l 269 256 q 212 239 232 256 q 192 196 192 222 q 212 153 192 169 q 269 136 232 136 l 563 136 q 699 84 649 136 q 749 -42 749 32 q 725 -143 749 -94 q 649 -222 701 -192 q 518 -253 597 -253 l 224 -253 m 388 350 q 518 390 474 350 q 563 501 563 429 q 518 613 563 574 q 388 653 474 653 q 257 613 301 653 q 213 501 213 574 q 257 390 213 429 q 388 350 301 350 m 521 -154 q 597 -129 567 -154 q 628 -62 628 -104 q 603 3 628 -21 q 539 28 579 28 l 235 28 q 171 3 194 28 q 147 -62 147 -21 q 171 -129 147 -104 q 235 -154 194 -154 l 521 -154 m 385 842 q 231 890 278 842 q 183 1004 183 938 l 268 1004 q 385 931 285 931 q 472 953 444 931 q 503 1004 499 975 l 588 1004 q 540 890 588 938 q 385 842 492 842 z "},"ǧ":{"ha":772,"x_min":25,"x_max":749,"o":"m 25 0 m 224 -253 q 84 -212 143 -253 q 25 -76 25 -171 q 143 79 25 38 q 88 126 110 97 q 67 192 67 154 q 105 274 67 246 q 189 313 143 301 q 117 394 143 346 q 90 501 90 443 q 169 683 90 618 q 386 747 249 747 q 525 722 463 747 q 631 849 615 765 l 747 849 q 709 736 747 783 q 606 674 671 689 q 683 501 683 604 q 603 320 683 385 q 386 256 524 256 l 269 256 q 212 239 232 256 q 192 196 192 222 q 212 153 192 169 q 269 136 232 136 l 563 136 q 699 84 649 136 q 749 -42 749 32 q 725 -143 749 -94 q 649 -222 701 -192 q 518 -253 597 -253 l 224 -253 m 388 350 q 518 390 474 350 q 563 501 563 429 q 518 613 563 574 q 388 653 474 653 q 257 613 301 653 q 213 501 213 574 q 257 390 213 429 q 388 350 301 350 m 521 -154 q 597 -129 567 -154 q 628 -62 628 -104 q 603 3 628 -21 q 539 28 579 28 l 235 28 q 171 3 194 28 q 147 -62 147 -21 q 171 -129 147 -104 q 235 -154 194 -154 l 521 -154 m 328 817 l 181 1004 l 306 1004 l 386 894 l 465 1004 l 590 1004 l 444 817 l 328 817 z "},"ĝ":{"ha":772,"x_min":25,"x_max":749,"o":"m 181 817 l 328 1004 l 444 1004 l 590 817 l 465 817 l 386 926 l 306 817 l 181 817 m 224 -253 q 84 -212 143 -253 q 25 -76 25 -171 q 143 79 25 38 q 88 126 110 97 q 67 192 67 154 q 105 274 67 246 q 189 313 143 301 q 117 394 143 346 q 90 501 90 443 q 169 683 90 618 q 386 747 249 747 q 525 722 463 747 q 631 849 615 765 l 747 849 q 709 736 747 783 q 606 674 671 689 q 683 501 683 604 q 603 320 683 385 q 386 256 524 256 l 269 256 q 212 239 232 256 q 192 196 192 222 q 212 153 192 169 q 269 136 232 136 l 563 136 q 699 84 649 136 q 749 -42 749 32 q 725 -143 749 -94 q 649 -222 701 -192 q 518 -253 597 -253 l 224 -253 m 388 350 q 518 390 474 350 q 563 501 563 429 q 518 613 563 574 q 388 653 474 653 q 257 613 301 653 q 213 501 213 574 q 257 390 213 429 q 388 350 301 350 m 521 -154 q 597 -129 567 -154 q 628 -62 628 -104 q 603 3 628 -21 q 539 28 579 28 l 235 28 q 171 3 194 28 q 147 -62 147 -21 q 171 -129 147 -104 q 235 -154 194 -154 l 521 -154 z "},"ģ":{"ha":772,"x_min":25,"x_max":749,"o":"m 329 844 l 329 961 l 389 1083 l 451 1083 l 400 971 l 451 971 l 451 844 l 329 844 m 224 -253 q 84 -212 143 -253 q 25 -76 25 -171 q 143 79 25 38 q 88 126 110 97 q 67 192 67 154 q 105 274 67 246 q 189 313 143 301 q 117 394 143 346 q 90 501 90 443 q 169 683 90 618 q 386 747 249 747 q 525 722 463 747 q 631 849 615 765 l 747 849 q 709 736 747 783 q 606 674 671 689 q 683 501 683 604 q 603 320 683 385 q 386 256 524 256 l 269 256 q 212 239 232 256 q 192 196 192 222 q 212 153 192 169 q 269 136 232 136 l 563 136 q 699 84 649 136 q 749 -42 749 32 q 725 -143 749 -94 q 649 -222 701 -192 q 518 -253 597 -253 l 224 -253 m 388 350 q 518 390 474 350 q 563 501 563 429 q 518 613 563 574 q 388 653 474 653 q 257 613 301 653 q 213 501 213 574 q 257 390 213 429 q 388 350 301 350 m 521 -154 q 597 -129 567 -154 q 628 -62 628 -104 q 603 3 628 -21 q 539 28 579 28 l 235 28 q 171 3 194 28 q 147 -62 147 -21 q 171 -129 147 -104 q 235 -154 194 -154 l 521 -154 z "},"ġ":{"ha":772,"x_min":25,"x_max":749,"o":"m 25 0 m 224 -253 q 84 -212 143 -253 q 25 -76 25 -171 q 143 79 25 38 q 88 126 110 97 q 67 192 67 154 q 105 274 67 246 q 189 313 143 301 q 117 394 143 346 q 90 501 90 443 q 169 683 90 618 q 386 747 249 747 q 525 722 463 747 q 631 849 615 765 l 747 849 q 709 736 747 783 q 606 674 671 689 q 683 501 683 604 q 603 320 683 385 q 386 256 524 256 l 269 256 q 212 239 232 256 q 192 196 192 222 q 212 153 192 169 q 269 136 232 136 l 563 136 q 699 84 649 136 q 749 -42 749 32 q 725 -143 749 -94 q 649 -222 701 -192 q 518 -253 597 -253 l 224 -253 m 388 350 q 518 390 474 350 q 563 501 563 429 q 518 613 563 574 q 388 653 474 653 q 257 613 301 653 q 213 501 213 574 q 257 390 213 429 q 388 350 301 350 m 521 -154 q 597 -129 567 -154 q 628 -62 628 -104 q 603 3 628 -21 q 539 28 579 28 l 235 28 q 171 3 194 28 q 147 -62 147 -21 q 171 -129 147 -104 q 235 -154 194 -154 l 521 -154 m 325 872 l 325 1004 l 446 1004 l 446 872 l 325 872 z "},"h":{"ha":772,"x_min":93,"x_max":683,"o":"m 93 1004 l 215 1004 l 215 649 l 225 649 q 456 747 301 747 q 683 499 683 747 l 683 0 l 561 0 l 561 490 q 522 612 561 578 q 410 646 483 646 q 313 620 357 646 q 242 546 268 594 q 215 432 215 497 l 215 0 l 93 0 l 93 1004 z "},"ħ":{"ha":772,"x_min":1,"x_max":683,"o":"m 93 828 l 1 828 l 1 914 l 93 914 l 93 1004 l 215 1004 l 215 914 l 410 914 l 410 828 l 215 828 l 215 649 l 225 649 q 456 747 301 747 q 683 499 683 747 l 683 0 l 561 0 l 561 490 q 522 612 561 578 q 410 646 483 646 q 313 620 357 646 q 242 546 268 594 q 215 432 215 497 l 215 0 l 93 0 l 93 828 z "},"ĥ":{"ha":772,"x_min":-51,"x_max":683,"o":"m 0 0 m 93 1004 l 215 1004 l 215 649 l 225 649 q 456 747 301 747 q 683 499 683 747 l 683 0 l 561 0 l 561 490 q 522 612 561 578 q 410 646 483 646 q 313 620 357 646 q 242 546 268 594 q 215 432 215 497 l 215 0 l 93 0 l 93 1004 m -51 1039 l 96 1226 l 213 1226 l 358 1039 l 233 1039 l 154 1149 l 74 1039 l -51 1039 z "},"ḥ":{"ha":772,"x_min":93,"x_max":683,"o":"m 93 0 m 93 1004 l 215 1004 l 215 649 l 225 649 q 456 747 301 747 q 683 499 683 747 l 683 0 l 561 0 l 561 490 q 522 612 561 578 q 410 646 483 646 q 313 620 357 646 q 242 546 268 594 q 215 432 215 497 l 215 0 l 93 0 l 93 1004 m 325 -240 l 325 -108 l 446 -108 l 446 -240 l 325 -240 z "},"i":{"ha":308,"x_min":93,"x_max":215,"o":"m 93 868 l 93 1004 l 215 1004 l 215 868 l 93 868 m 93 0 l 93 731 l 215 731 l 215 0 l 93 0 z "},"ı":{"ha":386,"x_min":132,"x_max":254,"o":"m 132 0 l 132 731 l 254 731 l 254 0 l 132 0 z "},"í":{"ha":386,"x_min":118,"x_max":372,"o":"m 118 821 l 238 1004 l 371 1004 l 372 1000 l 222 821 l 118 821 m 132 0 l 132 731 l 254 731 l 254 0 l 132 0 z "},"ĭ":{"ha":386,"x_min":-8,"x_max":396,"o":"m 193 842 q 39 890 86 842 q -8 1004 -8 938 l 76 1004 q 193 931 93 931 q 280 953 253 931 q 311 1004 307 975 l 396 1004 q 348 890 396 938 q 193 842 300 842 m 132 0 l 132 731 l 254 731 l 254 0 l 132 0 z "},"ǐ":{"ha":386,"x_min":-12,"x_max":397,"o":"m 0 0 m 132 0 l 132 731 l 254 731 l 254 0 l 132 0 m 135 817 l -12 1004 l 113 1004 l 193 894 l 272 1004 l 397 1004 l 251 817 l 135 817 z "},"î":{"ha":386,"x_min":-11,"x_max":399,"o":"m -11 817 l 136 1004 l 253 1004 l 399 817 l 274 817 l 194 926 l 114 817 l -11 817 m 132 0 l 132 731 l 254 731 l 254 0 l 132 0 z "},"ȉ":{"ha":386,"x_min":-53,"x_max":363,"o":"m 0 0 m 132 0 l 132 731 l 254 731 l 254 0 l 132 0 m 64 821 l -53 1000 l -51 1004 l 83 1004 l 169 821 l 64 821 m 257 821 l 140 1000 l 142 1004 l 276 1004 l 363 821 l 257 821 z "},"ï":{"ha":386,"x_min":3,"x_max":383,"o":"m 3 872 l 3 1004 l 124 1004 l 124 872 l 3 872 m 263 872 l 263 1004 l 383 1004 l 383 872 l 263 872 m 132 0 l 132 731 l 254 731 l 254 0 l 132 0 z "},"ị":{"ha":308,"x_min":93,"x_max":215,"o":"m 93 0 m 93 868 l 93 1004 l 215 1004 l 215 868 l 93 868 m 93 0 l 93 731 l 215 731 l 215 0 l 93 0 m 93 -240 l 93 -108 l 214 -108 l 214 -240 l 93 -240 z "},"ì":{"ha":386,"x_min":13,"x_max":267,"o":"m 163 821 l 13 1000 l 14 1004 l 147 1004 l 267 821 l 163 821 m 132 0 l 132 731 l 254 731 l 254 0 l 132 0 z "},"ỉ":{"ha":386,"x_min":86,"x_max":313,"o":"m 86 0 m 132 0 l 132 731 l 254 731 l 254 0 l 132 0 m 154 906 l 172 906 q 213 931 213 906 q 202 950 213 944 q 169 956 192 956 l 86 956 l 86 1010 q 186 1021 133 1021 q 275 1002 238 1021 q 313 938 313 983 q 290 883 313 903 q 232 860 267 863 l 232 821 l 154 821 l 154 906 z "},"ȋ":{"ha":386,"x_min":-10,"x_max":394,"o":"m 0 0 m 132 0 l 132 731 l 254 731 l 254 0 l 132 0 m -10 842 q 38 956 -10 908 q 192 1004 85 1004 q 347 956 299 1004 q 394 842 394 908 l 310 842 q 278 893 306 871 q 192 915 251 915 q 75 842 92 915 l -10 842 z "},"ĳ":{"ha":617,"x_min":93,"x_max":524,"o":"m 93 0 m 93 868 l 93 1004 l 215 1004 l 215 868 l 93 868 m 93 0 l 93 731 l 215 731 l 215 0 l 93 0 m 401 868 l 401 1004 l 524 1004 l 524 868 l 401 868 m 371 -253 q 275 -236 322 -253 l 275 -157 l 336 -157 q 401 -90 401 -157 l 401 731 l 524 731 l 524 -85 q 488 -205 524 -157 q 371 -253 453 -253 z "},"ī":{"ha":386,"x_min":17,"x_max":369,"o":"m 17 888 l 17 988 l 369 988 l 369 888 l 17 888 m 132 0 l 132 731 l 254 731 l 254 0 l 132 0 z "},"į":{"ha":386,"x_min":51,"x_max":278,"o":"m 253 1004 l 253 872 l 132 872 l 132 1004 l 253 1004 m 278 -174 l 278 -244 q 193 -264 232 -264 q 93 -234 135 -264 q 51 -139 51 -204 q 72 -60 51 -93 q 129 6 92 -28 l 132 6 l 132 731 l 254 731 l 254 0 l 213 0 q 176 -45 192 -19 q 160 -97 160 -71 q 178 -151 160 -129 q 233 -174 196 -174 l 278 -174 z "},"ĩ":{"ha":386,"x_min":-33,"x_max":421,"o":"m -33 860 q -4 963 -33 922 q 85 1004 25 1004 q 135 999 111 1004 q 194 982 160 993 q 292 961 254 961 q 331 1004 326 961 l 421 1004 q 392 901 421 942 q 303 860 363 860 q 252 865 276 860 q 193 882 228 871 q 96 903 133 903 q 57 860 61 903 l -33 860 m 132 0 l 132 731 l 254 731 l 254 0 l 132 0 z "},"j":{"ha":308,"x_min":-33,"x_max":215,"o":"m 93 868 l 93 1004 l 215 1004 l 215 868 l 93 868 m 63 -253 q -33 -236 14 -253 l -33 -157 l 28 -157 q 93 -90 93 -157 l 93 731 l 215 731 l 215 -85 q 180 -205 215 -157 q 63 -253 144 -253 z "},"ȷ":{"ha":308,"x_min":-33,"x_max":215,"o":"m 63 -253 q -33 -236 14 -253 l -33 -157 l 28 -157 q 93 -90 93 -157 l 93 731 l 215 731 l 215 -85 q 180 -205 215 -157 q 63 -253 144 -253 z "},"ĵ":{"ha":308,"x_min":-50,"x_max":360,"o":"m -50 817 l 97 1004 l 214 1004 l 360 817 l 235 817 l 156 926 l 75 817 l -50 817 m 63 -253 q -33 -236 14 -253 l -33 -157 l 28 -157 q 93 -90 93 -157 l 93 731 l 215 731 l 215 -85 q 180 -205 215 -157 q 63 -253 144 -253 z "},"k":{"ha":694,"x_min":93,"x_max":690,"o":"m 93 0 l 93 1004 l 215 1004 l 215 372 l 525 731 l 676 731 l 425 443 l 690 0 l 549 0 l 349 356 l 215 229 l 215 0 l 93 0 z "},"ķ":{"ha":694,"x_min":93,"x_max":690,"o":"m 93 0 m 93 0 l 93 1004 l 215 1004 l 215 372 l 525 731 l 676 731 l 425 443 l 690 0 l 549 0 l 349 356 l 215 229 l 215 0 l 93 0 m 321 -319 l 372 -207 l 321 -207 l 321 -81 l 443 -81 l 443 -197 l 383 -319 l 321 -319 z "},"ĸ":{"ha":694,"x_min":93,"x_max":690,"o":"m 93 0 l 93 731 l 215 731 l 215 372 l 525 731 l 676 731 l 425 443 l 690 0 l 549 0 l 349 356 l 215 229 l 215 0 l 93 0 z "},"l":{"ha":308,"x_min":93,"x_max":215,"o":"m 93 0 l 93 1004 l 215 1004 l 215 0 l 93 0 z "},"ĺ":{"ha":308,"x_min":93,"x_max":356,"o":"m 93 0 m 93 0 l 93 1004 l 215 1004 l 215 0 l 93 0 m 101 1043 l 221 1226 l 354 1226 l 356 1222 l 206 1043 l 101 1043 z "},"ľ":{"ha":406,"x_min":93,"x_max":406,"o":"m 93 0 l 93 1004 l 215 1004 l 215 0 l 93 0 m 288 681 l 335 826 l 288 826 l 288 953 l 406 953 l 406 836 l 349 681 l 288 681 z "},"ļ":{"ha":308,"x_min":93,"x_max":215,"o":"m 93 0 m 93 0 l 93 1004 l 215 1004 l 215 0 l 93 0 m 93 -319 l 144 -207 l 93 -207 l 93 -81 l 215 -81 l 215 -197 l 156 -319 l 93 -319 z "},"ŀ":{"ha":393,"x_min":93,"x_max":425,"o":"m 93 0 m 93 0 l 93 1004 l 215 1004 l 215 0 l 93 0 m 286 421 l 286 571 l 425 571 l 425 421 l 286 421 z "},"ǉ":{"ha":617,"x_min":93,"x_max":524,"o":"m 93 0 m 93 0 l 93 1004 l 215 1004 l 215 0 l 93 0 m 401 868 l 401 1004 l 524 1004 l 524 868 l 401 868 m 371 -253 q 275 -236 322 -253 l 275 -157 l 336 -157 q 401 -90 401 -157 l 401 731 l 524 731 l 524 -85 q 488 -205 524 -157 q 371 -253 453 -253 z "},"ł":{"ha":308,"x_min":0,"x_max":307,"o":"m 93 0 l 93 393 l 0 315 l 0 422 l 93 500 l 93 1004 l 215 1004 l 215 601 l 307 678 l 307 571 l 215 494 l 215 0 l 93 0 z "},"m":{"ha":1157,"x_min":93,"x_max":1068,"o":"m 93 731 l 186 731 l 200 632 l 210 632 q 429 747 285 747 q 618 632 571 747 l 626 632 q 724 717 664 688 q 853 747 785 747 q 1068 526 1068 747 l 1068 0 l 946 0 l 946 504 q 911 615 946 583 q 815 646 876 646 q 692 588 742 646 q 642 432 642 529 l 642 0 l 519 0 l 519 504 q 486 615 519 583 q 392 646 453 646 q 304 620 344 646 q 240 546 264 594 q 215 432 215 497 l 215 0 l 93 0 l 93 731 z "},"n":{"ha":772,"x_min":93,"x_max":683,"o":"m 93 731 l 186 731 l 200 632 l 210 632 q 456 747 290 747 q 624 688 565 747 q 683 499 683 629 l 683 0 l 561 0 l 561 490 q 522 612 561 578 q 410 646 483 646 q 313 620 357 646 q 242 546 268 594 q 215 432 215 497 l 215 0 l 93 0 l 93 731 z "},"ń":{"ha":772,"x_min":93,"x_max":683,"o":"m 93 0 m 93 731 l 186 731 l 200 632 l 210 632 q 456 747 290 747 q 624 688 565 747 q 683 499 683 629 l 683 0 l 561 0 l 561 490 q 522 612 561 578 q 410 646 483 646 q 313 620 357 646 q 242 546 268 594 q 215 432 215 497 l 215 0 l 93 0 l 93 731 m 333 821 l 453 1004 l 586 1004 l 588 1000 l 438 821 l 333 821 z "},"ŉ":{"ha":839,"x_min":0,"x_max":750,"o":"m 0 681 l 47 826 l 0 826 l 0 953 l 118 953 l 118 836 l 61 681 l 0 681 m 160 731 l 253 731 l 267 632 l 276 632 q 522 747 357 747 q 691 688 632 747 q 750 499 750 629 l 750 0 l 628 0 l 628 490 q 589 612 628 578 q 476 646 550 646 q 379 620 424 646 q 308 546 335 594 q 282 432 282 497 l 282 0 l 160 0 l 160 731 z "},"ň":{"ha":772,"x_min":93,"x_max":683,"o":"m 93 0 m 93 731 l 186 731 l 200 632 l 210 632 q 456 747 290 747 q 624 688 565 747 q 683 499 683 629 l 683 0 l 561 0 l 561 490 q 522 612 561 578 q 410 646 483 646 q 313 620 357 646 q 242 546 268 594 q 215 432 215 497 l 215 0 l 93 0 l 93 731 m 328 817 l 181 1004 l 306 1004 l 386 894 l 465 1004 l 590 1004 l 444 817 l 328 817 z "},"ņ":{"ha":772,"x_min":93,"x_max":683,"o":"m 93 0 m 93 731 l 186 731 l 200 632 l 210 632 q 456 747 290 747 q 624 688 565 747 q 683 499 683 629 l 683 0 l 561 0 l 561 490 q 522 612 561 578 q 410 646 483 646 q 313 620 357 646 q 242 546 268 594 q 215 432 215 497 l 215 0 l 93 0 l 93 731 m 325 -319 l 376 -207 l 325 -207 l 325 -81 l 447 -81 l 447 -197 l 388 -319 l 325 -319 z "},"ṅ":{"ha":772,"x_min":93,"x_max":683,"o":"m 93 0 m 93 731 l 186 731 l 200 632 l 210 632 q 456 747 290 747 q 624 688 565 747 q 683 499 683 629 l 683 0 l 561 0 l 561 490 q 522 612 561 578 q 410 646 483 646 q 313 620 357 646 q 242 546 268 594 q 215 432 215 497 l 215 0 l 93 0 l 93 731 m 325 872 l 325 1004 l 446 1004 l 446 872 l 325 872 z "},"ŋ":{"ha":772,"x_min":93,"x_max":683,"o":"m 531 -253 q 435 -236 482 -253 l 435 -157 l 496 -157 q 561 -90 561 -157 l 561 490 q 522 612 561 578 q 410 646 483 646 q 313 620 357 646 q 242 546 268 594 q 215 432 215 497 l 215 0 l 93 0 l 93 731 l 186 731 l 200 632 l 210 632 q 456 747 290 747 q 624 688 565 747 q 683 499 683 629 l 683 -85 q 648 -205 683 -157 q 531 -253 613 -253 z "},"ɲ":{"ha":772,"x_min":-33,"x_max":683,"o":"m 63 -253 q -33 -236 14 -253 l -33 -157 l 28 -157 q 93 -90 93 -157 l 93 731 l 186 731 l 200 632 l 210 632 q 456 747 290 747 q 624 688 565 747 q 683 499 683 629 l 683 0 l 561 0 l 561 490 q 522 612 561 578 q 410 646 483 646 q 313 620 357 646 q 242 546 268 594 q 215 432 215 497 l 215 -85 q 180 -205 215 -157 q 63 -253 144 -253 z "},"ǌ":{"ha":1081,"x_min":93,"x_max":988,"o":"m 93 0 m 93 731 l 186 731 l 200 632 l 210 632 q 456 747 290 747 q 624 688 565 747 q 683 499 683 629 l 683 0 l 561 0 l 561 490 q 522 612 561 578 q 410 646 483 646 q 313 620 357 646 q 242 546 268 594 q 215 432 215 497 l 215 0 l 93 0 l 93 731 m 865 868 l 865 1004 l 988 1004 l 988 868 l 865 868 m 835 -253 q 739 -236 786 -253 l 739 -157 l 800 -157 q 865 -90 865 -157 l 865 731 l 988 731 l 988 -85 q 952 -205 988 -157 q 835 -253 917 -253 z "},"ñ":{"ha":772,"x_min":93,"x_max":683,"o":"m 93 0 m 93 731 l 186 731 l 200 632 l 210 632 q 456 747 290 747 q 624 688 565 747 q 683 499 683 629 l 683 0 l 561 0 l 561 490 q 522 612 561 578 q 410 646 483 646 q 313 620 357 646 q 242 546 268 594 q 215 432 215 497 l 215 0 l 93 0 l 93 731 m 158 860 q 188 963 158 922 q 276 1004 217 1004 q 327 999 303 1004 q 386 982 351 993 q 483 961 446 961 q 522 1004 518 961 l 613 1004 q 583 901 613 942 q 494 860 554 860 q 444 865 468 860 q 385 882 419 871 q 288 903 325 903 q 249 860 253 903 l 158 860 z "},"o":{"ha":772,"x_min":49,"x_max":724,"o":"m 386 -17 q 133 77 218 -17 q 49 365 49 171 q 133 653 49 560 q 386 747 218 747 q 639 653 554 747 q 724 365 724 560 q 639 77 724 171 q 386 -17 554 -17 m 386 85 q 547 149 497 85 q 597 360 597 214 l 597 371 q 547 581 597 517 q 386 646 497 646 q 225 581 275 646 q 175 371 175 517 l 175 360 q 225 149 175 214 q 386 85 275 85 z "},"ó":{"ha":772,"x_min":49,"x_max":724,"o":"m 49 0 m 386 -17 q 133 77 218 -17 q 49 365 49 171 q 133 653 49 560 q 386 747 218 747 q 639 653 554 747 q 724 365 724 560 q 639 77 724 171 q 386 -17 554 -17 m 386 85 q 547 149 497 85 q 597 360 597 214 l 597 371 q 547 581 597 517 q 386 646 497 646 q 225 581 275 646 q 175 371 175 517 l 175 360 q 225 149 175 214 q 386 85 275 85 m 333 821 l 453 1004 l 586 1004 l 588 1000 l 438 821 l 333 821 z "},"ŏ":{"ha":772,"x_min":49,"x_max":724,"o":"m 49 0 m 386 -17 q 133 77 218 -17 q 49 365 49 171 q 133 653 49 560 q 386 747 218 747 q 639 653 554 747 q 724 365 724 560 q 639 77 724 171 q 386 -17 554 -17 m 386 85 q 547 149 497 85 q 597 360 597 214 l 597 371 q 547 581 597 517 q 386 646 497 646 q 225 581 275 646 q 175 371 175 517 l 175 360 q 225 149 175 214 q 386 85 275 85 m 385 842 q 231 890 278 842 q 183 1004 183 938 l 268 1004 q 385 931 285 931 q 472 953 444 931 q 503 1004 499 975 l 588 1004 q 540 890 588 938 q 385 842 492 842 z "},"ǒ":{"ha":772,"x_min":49,"x_max":724,"o":"m 49 0 m 386 -17 q 133 77 218 -17 q 49 365 49 171 q 133 653 49 560 q 386 747 218 747 q 639 653 554 747 q 724 365 724 560 q 639 77 724 171 q 386 -17 554 -17 m 386 85 q 547 149 497 85 q 597 360 597 214 l 597 371 q 547 581 597 517 q 386 646 497 646 q 225 581 275 646 q 175 371 175 517 l 175 360 q 225 149 175 214 q 386 85 275 85 m 328 817 l 181 1004 l 306 1004 l 386 894 l 465 1004 l 590 1004 l 444 817 l 328 817 z "},"ô":{"ha":772,"x_min":49,"x_max":724,"o":"m 49 0 m 386 -17 q 133 77 218 -17 q 49 365 49 171 q 133 653 49 560 q 386 747 218 747 q 639 653 554 747 q 724 365 724 560 q 639 77 724 171 q 386 -17 554 -17 m 386 85 q 547 149 497 85 q 597 360 597 214 l 597 371 q 547 581 597 517 q 386 646 497 646 q 225 581 275 646 q 175 371 175 517 l 175 360 q 225 149 175 214 q 386 85 275 85 m 181 817 l 328 1004 l 444 1004 l 590 817 l 465 817 l 386 926 l 306 817 l 181 817 z "},"ố":{"ha":772,"x_min":49,"x_max":771,"o":"m 49 0 m 386 -17 q 133 77 218 -17 q 49 365 49 171 q 133 653 49 560 q 386 747 218 747 q 639 653 554 747 q 724 365 724 560 q 639 77 724 171 q 386 -17 554 -17 m 386 85 q 547 149 497 85 q 597 360 597 214 l 597 371 q 547 581 597 517 q 386 646 497 646 q 225 581 275 646 q 175 371 175 517 l 175 360 q 225 149 175 214 q 386 85 275 85 m 181 817 l 328 1004 l 444 1004 l 590 817 l 465 817 l 386 926 l 306 817 l 181 817 m 517 953 l 636 1136 l 769 1136 l 771 1132 l 621 953 l 517 953 z "},"ộ":{"ha":772,"x_min":49,"x_max":724,"o":"m 49 0 m 386 -17 q 133 77 218 -17 q 49 365 49 171 q 133 653 49 560 q 386 747 218 747 q 639 653 554 747 q 724 365 724 560 q 639 77 724 171 q 386 -17 554 -17 m 386 85 q 547 149 497 85 q 597 360 597 214 l 597 371 q 547 581 597 517 q 386 646 497 646 q 225 581 275 646 q 175 371 175 517 l 175 360 q 225 149 175 214 q 386 85 275 85 m 181 817 l 328 1004 l 444 1004 l 590 817 l 465 817 l 386 926 l 306 817 l 181 817 m 325 -240 l 325 -108 l 446 -108 l 446 -240 l 325 -240 z "},"ồ":{"ha":772,"x_min":49,"x_max":724,"o":"m 49 0 m 386 -17 q 133 77 218 -17 q 49 365 49 171 q 133 653 49 560 q 386 747 218 747 q 639 653 554 747 q 724 365 724 560 q 639 77 724 171 q 386 -17 554 -17 m 386 85 q 547 149 497 85 q 597 360 597 214 l 597 371 q 547 581 597 517 q 386 646 497 646 q 225 581 275 646 q 175 371 175 517 l 175 360 q 225 149 175 214 q 386 85 275 85 m 181 817 l 328 1004 l 444 1004 l 590 817 l 465 817 l 386 926 l 306 817 l 181 817 m 572 953 l 422 1132 l 424 1136 l 557 1136 l 676 953 l 572 953 z "},"ổ":{"ha":772,"x_min":49,"x_max":724,"o":"m 49 0 m 386 -17 q 133 77 218 -17 q 49 365 49 171 q 133 653 49 560 q 386 747 218 747 q 639 653 554 747 q 724 365 724 560 q 639 77 724 171 q 386 -17 554 -17 m 386 85 q 547 149 497 85 q 597 360 597 214 l 597 371 q 547 581 597 517 q 386 646 497 646 q 225 581 275 646 q 175 371 175 517 l 175 360 q 225 149 175 214 q 386 85 275 85 m 181 817 l 328 1004 l 444 1004 l 590 817 l 465 817 l 386 926 l 306 817 l 181 817 m 531 1038 l 549 1038 q 589 1063 589 1038 q 578 1082 589 1076 q 546 1088 568 1088 l 463 1088 l 463 1142 q 563 1153 510 1153 q 651 1134 614 1153 q 689 1069 689 1115 q 666 1015 689 1035 q 608 992 643 994 l 608 953 l 531 953 l 531 1038 z "},"ỗ":{"ha":772,"x_min":49,"x_max":724,"o":"m 49 0 m 386 -17 q 133 77 218 -17 q 49 365 49 171 q 133 653 49 560 q 386 747 218 747 q 639 653 554 747 q 724 365 724 560 q 639 77 724 171 q 386 -17 554 -17 m 386 85 q 547 149 497 85 q 597 360 597 214 l 597 371 q 547 581 597 517 q 386 646 497 646 q 225 581 275 646 q 175 371 175 517 l 175 360 q 225 149 175 214 q 386 85 275 85 m 181 817 l 328 1004 l 444 1004 l 590 817 l 465 817 l 386 926 l 306 817 l 181 817 m 161 1082 q 190 1185 161 1144 q 279 1226 219 1226 q 330 1221 306 1226 q 389 1204 354 1215 q 486 1183 449 1183 q 525 1226 521 1183 l 615 1226 q 586 1123 615 1164 q 497 1082 557 1082 q 447 1088 471 1082 q 388 1104 422 1093 q 290 1125 328 1125 q 251 1082 256 1125 l 161 1082 z "},"ȍ":{"ha":772,"x_min":49,"x_max":724,"o":"m 49 0 m 386 -17 q 133 77 218 -17 q 49 365 49 171 q 133 653 49 560 q 386 747 218 747 q 639 653 554 747 q 724 365 724 560 q 639 77 724 171 q 386 -17 554 -17 m 386 85 q 547 149 497 85 q 597 360 597 214 l 597 371 q 547 581 597 517 q 386 646 497 646 q 225 581 275 646 q 175 371 175 517 l 175 360 q 225 149 175 214 q 386 85 275 85 m 257 821 l 140 1000 l 142 1004 l 276 1004 l 363 821 l 257 821 m 450 821 l 333 1000 l 335 1004 l 469 1004 l 556 821 l 450 821 z "},"ö":{"ha":772,"x_min":49,"x_max":724,"o":"m 49 0 m 386 -17 q 133 77 218 -17 q 49 365 49 171 q 133 653 49 560 q 386 747 218 747 q 639 653 554 747 q 724 365 724 560 q 639 77 724 171 q 386 -17 554 -17 m 386 85 q 547 149 497 85 q 597 360 597 214 l 597 371 q 547 581 597 517 q 386 646 497 646 q 225 581 275 646 q 175 371 175 517 l 175 360 q 225 149 175 214 q 386 85 275 85 m 196 872 l 196 1004 l 317 1004 l 317 872 l 196 872 m 456 872 l 456 1004 l 576 1004 l 576 872 l 456 872 z "},"ọ":{"ha":772,"x_min":49,"x_max":724,"o":"m 49 0 m 386 -17 q 133 77 218 -17 q 49 365 49 171 q 133 653 49 560 q 386 747 218 747 q 639 653 554 747 q 724 365 724 560 q 639 77 724 171 q 386 -17 554 -17 m 386 85 q 547 149 497 85 q 597 360 597 214 l 597 371 q 547 581 597 517 q 386 646 497 646 q 225 581 275 646 q 175 371 175 517 l 175 360 q 225 149 175 214 q 386 85 275 85 m 325 -240 l 325 -108 l 446 -108 l 446 -240 l 325 -240 z "},"ò":{"ha":772,"x_min":49,"x_max":724,"o":"m 49 0 m 386 -17 q 133 77 218 -17 q 49 365 49 171 q 133 653 49 560 q 386 747 218 747 q 639 653 554 747 q 724 365 724 560 q 639 77 724 171 q 386 -17 554 -17 m 386 85 q 547 149 497 85 q 597 360 597 214 l 597 371 q 547 581 597 517 q 386 646 497 646 q 225 581 275 646 q 175 371 175 517 l 175 360 q 225 149 175 214 q 386 85 275 85 m 333 821 l 183 1000 l 185 1004 l 318 1004 l 438 821 l 333 821 z "},"ỏ":{"ha":772,"x_min":49,"x_max":724,"o":"m 49 0 m 386 -17 q 133 77 218 -17 q 49 365 49 171 q 133 653 49 560 q 386 747 218 747 q 639 653 554 747 q 724 365 724 560 q 639 77 724 171 q 386 -17 554 -17 m 386 85 q 547 149 497 85 q 597 360 597 214 l 597 371 q 547 581 597 517 q 386 646 497 646 q 225 581 275 646 q 175 371 175 517 l 175 360 q 225 149 175 214 q 386 85 275 85 m 347 906 l 365 906 q 406 931 406 906 q 395 950 406 944 q 363 956 385 956 l 279 956 l 279 1010 q 379 1021 326 1021 q 468 1002 431 1021 q 506 938 506 983 q 483 883 506 903 q 425 860 460 863 l 425 821 l 347 821 l 347 906 z "},"ơ":{"ha":772,"x_min":49,"x_max":869,"o":"m 869 953 l 869 878 q 818 711 869 778 q 667 617 767 644 q 724 365 724 524 q 639 77 724 171 q 386 -17 554 -17 q 133 77 218 -17 q 49 365 49 171 q 133 653 49 560 q 386 747 218 747 q 608 682 529 747 q 776 803 750 706 l 703 803 l 703 953 l 869 953 m 597 371 q 547 581 597 517 q 386 646 497 646 q 225 581 275 646 q 175 371 175 517 l 175 360 q 225 149 175 214 q 386 85 275 85 q 547 149 497 85 q 597 360 597 214 l 597 371 z "},"ớ":{"ha":772,"x_min":49,"x_max":869,"o":"m 49 0 m 869 953 l 869 878 q 818 711 869 778 q 667 617 767 644 q 724 365 724 524 q 639 77 724 171 q 386 -17 554 -17 q 133 77 218 -17 q 49 365 49 171 q 133 653 49 560 q 386 747 218 747 q 608 682 529 747 q 776 803 750 706 l 703 803 l 703 953 l 869 953 m 597 371 q 547 581 597 517 q 386 646 497 646 q 225 581 275 646 q 175 371 175 517 l 175 360 q 225 149 175 214 q 386 85 275 85 q 547 149 497 85 q 597 360 597 214 l 597 371 m 333 821 l 453 1004 l 586 1004 l 588 1000 l 438 821 l 333 821 z "},"ợ":{"ha":772,"x_min":49,"x_max":869,"o":"m 49 0 m 869 953 l 869 878 q 818 711 869 778 q 667 617 767 644 q 724 365 724 524 q 639 77 724 171 q 386 -17 554 -17 q 133 77 218 -17 q 49 365 49 171 q 133 653 49 560 q 386 747 218 747 q 608 682 529 747 q 776 803 750 706 l 703 803 l 703 953 l 869 953 m 597 371 q 547 581 597 517 q 386 646 497 646 q 225 581 275 646 q 175 371 175 517 l 175 360 q 225 149 175 214 q 386 85 275 85 q 547 149 497 85 q 597 360 597 214 l 597 371 m 325 -240 l 325 -108 l 446 -108 l 446 -240 l 325 -240 z "},"ờ":{"ha":772,"x_min":49,"x_max":869,"o":"m 49 0 m 869 953 l 869 878 q 818 711 869 778 q 667 617 767 644 q 724 365 724 524 q 639 77 724 171 q 386 -17 554 -17 q 133 77 218 -17 q 49 365 49 171 q 133 653 49 560 q 386 747 218 747 q 608 682 529 747 q 776 803 750 706 l 703 803 l 703 953 l 869 953 m 597 371 q 547 581 597 517 q 386 646 497 646 q 225 581 275 646 q 175 371 175 517 l 175 360 q 225 149 175 214 q 386 85 275 85 q 547 149 497 85 q 597 360 597 214 l 597 371 m 333 821 l 183 1000 l 185 1004 l 318 1004 l 438 821 l 333 821 z "},"ở":{"ha":772,"x_min":49,"x_max":869,"o":"m 49 0 m 869 953 l 869 878 q 818 711 869 778 q 667 617 767 644 q 724 365 724 524 q 639 77 724 171 q 386 -17 554 -17 q 133 77 218 -17 q 49 365 49 171 q 133 653 49 560 q 386 747 218 747 q 608 682 529 747 q 776 803 750 706 l 703 803 l 703 953 l 869 953 m 597 371 q 547 581 597 517 q 386 646 497 646 q 225 581 275 646 q 175 371 175 517 l 175 360 q 225 149 175 214 q 386 85 275 85 q 547 149 497 85 q 597 360 597 214 l 597 371 m 347 906 l 365 906 q 406 931 406 906 q 395 950 406 944 q 363 956 385 956 l 279 956 l 279 1010 q 379 1021 326 1021 q 468 1002 431 1021 q 506 938 506 983 q 483 883 506 903 q 425 860 460 863 l 425 821 l 347 821 l 347 906 z "},"ỡ":{"ha":772,"x_min":49,"x_max":869,"o":"m 49 0 m 869 953 l 869 878 q 818 711 869 778 q 667 617 767 644 q 724 365 724 524 q 639 77 724 171 q 386 -17 554 -17 q 133 77 218 -17 q 49 365 49 171 q 133 653 49 560 q 386 747 218 747 q 608 682 529 747 q 776 803 750 706 l 703 803 l 703 953 l 869 953 m 597 371 q 547 581 597 517 q 386 646 497 646 q 225 581 275 646 q 175 371 175 517 l 175 360 q 225 149 175 214 q 386 85 275 85 q 547 149 497 85 q 597 360 597 214 l 597 371 m 158 860 q 188 963 158 922 q 276 1004 217 1004 q 327 999 303 1004 q 386 982 351 993 q 483 961 446 961 q 522 1004 518 961 l 613 1004 q 583 901 613 942 q 494 860 554 860 q 444 865 468 860 q 385 882 419 871 q 288 903 325 903 q 249 860 253 903 l 158 860 z "},"ő":{"ha":772,"x_min":49,"x_max":724,"o":"m 49 0 m 386 -17 q 133 77 218 -17 q 49 365 49 171 q 133 653 49 560 q 386 747 218 747 q 639 653 554 747 q 724 365 724 560 q 639 77 724 171 q 386 -17 554 -17 m 386 85 q 547 149 497 85 q 597 360 597 214 l 597 371 q 547 581 597 517 q 386 646 497 646 q 225 581 275 646 q 175 371 175 517 l 175 360 q 225 149 175 214 q 386 85 275 85 m 236 821 l 322 1004 l 457 1004 l 458 1000 l 342 821 l 236 821 m 429 821 l 515 1004 l 650 1004 l 651 1000 l 535 821 l 429 821 z "},"ȏ":{"ha":772,"x_min":49,"x_max":724,"o":"m 49 0 m 386 -17 q 133 77 218 -17 q 49 365 49 171 q 133 653 49 560 q 386 747 218 747 q 639 653 554 747 q 724 365 724 560 q 639 77 724 171 q 386 -17 554 -17 m 386 85 q 547 149 497 85 q 597 360 597 214 l 597 371 q 547 581 597 517 q 386 646 497 646 q 225 581 275 646 q 175 371 175 517 l 175 360 q 225 149 175 214 q 386 85 275 85 m 183 842 q 231 956 183 908 q 385 1004 278 1004 q 540 956 492 1004 q 588 842 588 908 l 503 842 q 472 893 499 871 q 385 915 444 915 q 268 842 285 915 l 183 842 z "},"ō":{"ha":772,"x_min":49,"x_max":724,"o":"m 49 0 m 386 -17 q 133 77 218 -17 q 49 365 49 171 q 133 653 49 560 q 386 747 218 747 q 639 653 554 747 q 724 365 724 560 q 639 77 724 171 q 386 -17 554 -17 m 386 85 q 547 149 497 85 q 597 360 597 214 l 597 371 q 547 581 597 517 q 386 646 497 646 q 225 581 275 646 q 175 371 175 517 l 175 360 q 225 149 175 214 q 386 85 275 85 m 174 871 l 174 971 l 597 971 l 597 871 l 174 871 z "},"ǫ":{"ha":772,"x_min":49,"x_max":724,"o":"m 544 11 q 508 -34 524 -8 q 492 -86 492 -60 q 510 -140 492 -118 q 565 -162 528 -162 l 610 -162 l 610 -233 q 525 -253 564 -253 q 425 -223 467 -253 q 383 -128 383 -193 q 429 -15 383 -65 q 386 -17 415 -17 q 133 77 218 -17 q 49 365 49 171 q 133 653 49 560 q 386 747 218 747 q 639 653 554 747 q 724 365 724 560 q 544 11 724 85 m 175 360 q 225 149 175 214 q 386 85 275 85 q 547 149 497 85 q 597 360 597 214 l 597 371 q 547 581 597 517 q 386 646 497 646 q 225 581 275 646 q 175 371 175 517 l 175 360 z "},"ø":{"ha":849,"x_min":63,"x_max":786,"o":"m 168 79 q 86 365 86 174 q 171 653 86 560 q 424 747 256 747 q 615 703 538 747 l 683 799 l 786 799 l 679 649 q 761 365 761 554 q 676 77 761 171 q 424 -17 592 -17 q 233 26 310 -17 l 167 -68 l 63 -68 l 168 79 m 550 613 q 424 646 503 646 q 263 581 313 646 q 213 372 213 517 l 213 365 q 243 183 213 246 l 550 613 m 424 85 q 585 149 535 85 q 635 358 635 214 l 635 365 q 604 544 635 482 l 299 117 q 424 85 344 85 z "},"ǿ":{"ha":849,"x_min":63,"x_max":786,"o":"m 63 0 m 168 79 q 86 365 86 174 q 171 653 86 560 q 424 747 256 747 q 615 703 538 747 l 683 799 l 786 799 l 679 649 q 761 365 761 554 q 676 77 761 171 q 424 -17 592 -17 q 233 26 310 -17 l 167 -68 l 63 -68 l 168 79 m 550 613 q 424 646 503 646 q 263 581 313 646 q 213 372 213 517 l 213 365 q 243 183 213 246 l 550 613 m 424 85 q 585 149 535 85 q 635 358 635 214 l 635 365 q 604 544 635 482 l 299 117 q 424 85 344 85 m 372 821 l 492 1004 l 625 1004 l 626 1000 l 476 821 l 372 821 z "},"õ":{"ha":772,"x_min":49,"x_max":724,"o":"m 49 0 m 386 -17 q 133 77 218 -17 q 49 365 49 171 q 133 653 49 560 q 386 747 218 747 q 639 653 554 747 q 724 365 724 560 q 639 77 724 171 q 386 -17 554 -17 m 386 85 q 547 149 497 85 q 597 360 597 214 l 597 371 q 547 581 597 517 q 386 646 497 646 q 225 581 275 646 q 175 371 175 517 l 175 360 q 225 149 175 214 q 386 85 275 85 m 158 860 q 188 963 158 922 q 276 1004 217 1004 q 327 999 303 1004 q 386 982 351 993 q 483 961 446 961 q 522 1004 518 961 l 613 1004 q 583 901 613 942 q 494 860 554 860 q 444 865 468 860 q 385 882 419 871 q 288 903 325 903 q 249 860 253 903 l 158 860 z "},"œ":{"ha":1311,"x_min":49,"x_max":1261,"o":"m 386 -17 q 133 77 218 -17 q 49 365 49 171 q 133 653 49 560 q 386 747 218 747 q 660 614 576 747 q 946 747 744 747 q 1183 663 1104 747 q 1261 393 1261 579 l 1261 332 l 724 332 q 784 145 731 206 q 946 85 838 85 q 1088 125 1033 85 q 1142 249 1142 165 l 1261 249 q 1173 52 1261 121 q 946 -17 1085 -17 q 660 115 744 -17 q 386 -17 578 -17 m 386 85 q 546 150 496 85 q 597 363 596 215 q 546 579 596 513 q 386 646 496 646 q 225 581 275 646 q 175 372 175 517 l 175 365 q 225 151 175 217 q 386 85 275 85 m 1133 433 q 946 646 1133 646 q 790 596 842 646 q 726 433 738 546 l 1133 433 z "},"p":{"ha":772,"x_min":93,"x_max":724,"o":"m 93 731 l 185 731 l 200 632 l 208 632 q 303 718 244 689 q 435 747 363 747 q 649 654 574 747 q 724 365 724 561 q 649 78 724 174 q 446 -17 575 -17 q 314 7 368 -17 q 224 83 260 31 l 215 83 l 215 -240 l 93 -240 l 93 731 m 404 85 q 517 111 475 85 q 578 197 558 138 q 597 360 597 257 l 597 365 q 578 531 597 469 q 516 619 558 592 q 404 646 474 646 q 261 575 307 646 q 215 365 215 504 l 215 360 q 260 154 215 224 q 404 85 306 85 z "},"þ":{"ha":772,"x_min":93,"x_max":724,"o":"m 93 1004 l 215 1004 l 215 647 l 224 647 q 314 724 260 700 q 446 747 368 747 q 649 652 575 747 q 724 365 724 557 q 649 78 724 174 q 446 -17 575 -17 q 314 7 368 -17 q 224 83 260 31 l 215 83 l 215 -240 l 93 -240 l 93 1004 m 404 85 q 517 111 475 85 q 578 197 558 138 q 597 360 597 257 l 597 365 q 578 531 597 469 q 516 619 558 592 q 404 646 474 646 q 261 575 307 646 q 215 365 215 504 l 215 360 q 260 154 215 224 q 404 85 306 85 z "},"q":{"ha":772,"x_min":49,"x_max":679,"o":"m 557 83 l 549 83 q 458 7 513 31 q 326 -17 404 -17 q 123 78 197 -17 q 49 365 49 174 q 124 654 49 561 q 338 747 199 747 q 469 718 410 747 q 564 632 528 689 l 572 632 l 588 731 l 679 731 l 679 -240 l 557 -240 l 557 83 m 368 85 q 512 154 467 85 q 557 360 557 224 l 557 365 q 511 575 557 504 q 368 646 465 646 q 256 619 299 646 q 194 531 214 592 q 175 365 175 469 l 175 360 q 194 197 175 257 q 256 111 214 138 q 368 85 297 85 z "},"r":{"ha":463,"x_min":93,"x_max":446,"o":"m 93 731 l 186 731 l 200 621 l 208 621 q 271 711 229 675 q 381 747 313 747 q 423 742 404 747 q 446 736 442 738 l 446 618 l 394 618 q 266 573 317 618 q 215 432 215 528 l 215 0 l 93 0 l 93 731 z "},"ŕ":{"ha":463,"x_min":93,"x_max":446,"o":"m 93 0 m 93 731 l 186 731 l 200 621 l 208 621 q 271 711 229 675 q 381 747 313 747 q 423 742 404 747 q 446 736 442 738 l 446 618 l 394 618 q 266 573 317 618 q 215 432 215 528 l 215 0 l 93 0 l 93 731 m 179 821 l 299 1004 l 432 1004 l 433 1000 l 283 821 l 179 821 z "},"ř":{"ha":463,"x_min":26,"x_max":446,"o":"m 26 0 m 93 731 l 186 731 l 200 621 l 208 621 q 271 711 229 675 q 381 747 313 747 q 423 742 404 747 q 446 736 442 738 l 446 618 l 394 618 q 266 573 317 618 q 215 432 215 528 l 215 0 l 93 0 l 93 731 m 174 817 l 26 1004 l 151 1004 l 232 894 l 311 1004 l 436 1004 l 290 817 l 174 817 z "},"ŗ":{"ha":463,"x_min":93,"x_max":446,"o":"m 93 0 m 93 731 l 186 731 l 200 621 l 208 621 q 271 711 229 675 q 381 747 313 747 q 423 742 404 747 q 446 736 442 738 l 446 618 l 394 618 q 266 573 317 618 q 215 432 215 528 l 215 0 l 93 0 l 93 731 m 93 -319 l 144 -207 l 93 -207 l 93 -81 l 215 -81 l 215 -197 l 156 -319 l 93 -319 z "},"ȑ":{"ha":463,"x_min":-14,"x_max":446,"o":"m 0 0 m 93 731 l 186 731 l 200 621 l 208 621 q 271 711 229 675 q 381 747 313 747 q 423 742 404 747 q 446 736 442 738 l 446 618 l 394 618 q 266 573 317 618 q 215 432 215 528 l 215 0 l 93 0 l 93 731 m 103 821 l -14 1000 l -12 1004 l 122 1004 l 208 821 l 103 821 m 296 821 l 179 1000 l 181 1004 l 315 1004 l 401 821 l 296 821 z "},"ṛ":{"ha":463,"x_min":93,"x_max":446,"o":"m 93 0 m 93 731 l 186 731 l 200 621 l 208 621 q 271 711 229 675 q 381 747 313 747 q 423 742 404 747 q 446 736 442 738 l 446 618 l 394 618 q 266 573 317 618 q 215 432 215 528 l 215 0 l 93 0 l 93 731 m 93 -240 l 93 -108 l 214 -108 l 214 -240 l 93 -240 z "},"ȓ":{"ha":463,"x_min":29,"x_max":446,"o":"m 29 0 m 93 731 l 186 731 l 200 621 l 208 621 q 271 711 229 675 q 381 747 313 747 q 423 742 404 747 q 446 736 442 738 l 446 618 l 394 618 q 266 573 317 618 q 215 432 215 528 l 215 0 l 93 0 l 93 731 m 29 842 q 76 956 29 908 q 231 1004 124 1004 q 385 956 338 1004 q 433 842 433 908 l 349 842 q 317 893 344 871 q 231 915 290 915 q 114 842 131 915 l 29 842 z "},"s":{"ha":694,"x_min":43,"x_max":640,"o":"m 343 -17 q 174 13 242 -17 q 75 92 107 43 q 43 197 43 140 q 44 220 43 214 q 44 228 44 226 l 165 228 l 165 214 q 217 116 165 149 q 350 83 268 83 q 467 112 421 83 q 514 192 514 140 q 488 258 514 232 q 422 298 461 283 q 317 329 383 313 q 185 371 236 350 q 99 433 135 392 q 64 539 64 474 q 142 691 64 635 q 354 747 221 747 q 499 720 438 747 q 591 648 560 693 q 622 547 622 603 l 621 521 l 501 521 l 501 533 q 463 614 501 582 q 340 646 425 646 q 224 616 257 646 q 190 547 190 586 q 214 494 190 515 q 272 461 238 474 q 369 433 307 449 q 510 390 456 411 q 602 324 564 368 q 640 208 640 281 q 559 40 640 96 q 343 -17 478 -17 z "},"ś":{"ha":694,"x_min":43,"x_max":640,"o":"m 43 0 m 343 -17 q 174 13 242 -17 q 75 92 107 43 q 43 197 43 140 q 44 220 43 214 q 44 228 44 226 l 165 228 l 165 214 q 217 116 165 149 q 350 83 268 83 q 467 112 421 83 q 514 192 514 140 q 488 258 514 232 q 422 298 461 283 q 317 329 383 313 q 185 371 236 350 q 99 433 135 392 q 64 539 64 474 q 142 691 64 635 q 354 747 221 747 q 499 720 438 747 q 591 648 560 693 q 622 547 622 603 l 621 521 l 501 521 l 501 533 q 463 614 501 582 q 340 646 425 646 q 224 616 257 646 q 190 547 190 586 q 214 494 190 515 q 272 461 238 474 q 369 433 307 449 q 510 390 456 411 q 602 324 564 368 q 640 208 640 281 q 559 40 640 96 q 343 -17 478 -17 m 294 821 l 414 1004 l 547 1004 l 549 1000 l 399 821 l 294 821 z "},"ꞌ":{"ha":217,"x_min":64,"x_max":189,"o":"m 64 400 l 64 1004 l 189 1004 l 189 849 l 131 400 l 64 400 z "},"š":{"ha":694,"x_min":43,"x_max":640,"o":"m 43 0 m 343 -17 q 174 13 242 -17 q 75 92 107 43 q 43 197 43 140 q 44 220 43 214 q 44 228 44 226 l 165 228 l 165 214 q 217 116 165 149 q 350 83 268 83 q 467 112 421 83 q 514 192 514 140 q 488 258 514 232 q 422 298 461 283 q 317 329 383 313 q 185 371 236 350 q 99 433 135 392 q 64 539 64 474 q 142 691 64 635 q 354 747 221 747 q 499 720 438 747 q 591 648 560 693 q 622 547 622 603 l 621 521 l 501 521 l 501 533 q 463 614 501 582 q 340 646 425 646 q 224 616 257 646 q 190 547 190 586 q 214 494 190 515 q 272 461 238 474 q 369 433 307 449 q 510 390 456 411 q 602 324 564 368 q 640 208 640 281 q 559 40 640 96 q 343 -17 478 -17 m 289 817 l 142 1004 l 267 1004 l 347 894 l 426 1004 l 551 1004 l 406 817 l 289 817 z "},"ş":{"ha":694,"x_min":43,"x_max":640,"o":"m 640 208 q 572 49 640 104 q 385 -15 503 -7 l 379 -50 q 507 -140 507 -58 q 457 -228 507 -203 q 343 -253 407 -253 q 211 -242 271 -253 l 211 -174 l 350 -174 q 392 -166 378 -174 q 407 -140 407 -158 q 395 -115 407 -124 q 353 -107 383 -107 l 282 -107 l 299 -15 q 107 55 171 -6 q 43 197 43 115 q 44 220 43 214 q 44 228 44 226 l 165 228 l 165 214 q 217 116 165 149 q 350 83 268 83 q 467 112 421 83 q 514 192 514 140 q 488 258 514 232 q 422 298 461 283 q 317 329 383 313 q 185 371 236 350 q 99 433 135 392 q 64 539 64 474 q 142 691 64 635 q 354 747 221 747 q 499 720 438 747 q 591 648 560 693 q 622 547 622 603 l 621 521 l 501 521 l 501 533 q 463 614 501 582 q 340 646 425 646 q 224 616 257 646 q 190 547 190 586 q 214 494 190 515 q 272 461 238 474 q 369 433 307 449 q 510 390 456 411 q 602 324 564 368 q 640 208 640 281 z "},"ŝ":{"ha":694,"x_min":43,"x_max":640,"o":"m 43 0 m 343 -17 q 174 13 242 -17 q 75 92 107 43 q 43 197 43 140 q 44 220 43 214 q 44 228 44 226 l 165 228 l 165 214 q 217 116 165 149 q 350 83 268 83 q 467 112 421 83 q 514 192 514 140 q 488 258 514 232 q 422 298 461 283 q 317 329 383 313 q 185 371 236 350 q 99 433 135 392 q 64 539 64 474 q 142 691 64 635 q 354 747 221 747 q 499 720 438 747 q 591 648 560 693 q 622 547 622 603 l 621 521 l 501 521 l 501 533 q 463 614 501 582 q 340 646 425 646 q 224 616 257 646 q 190 547 190 586 q 214 494 190 515 q 272 461 238 474 q 369 433 307 449 q 510 390 456 411 q 602 324 564 368 q 640 208 640 281 q 559 40 640 96 q 343 -17 478 -17 m 142 817 l 289 1004 l 406 1004 l 551 817 l 426 817 l 347 926 l 267 817 l 142 817 z "},"ș":{"ha":694,"x_min":43,"x_max":640,"o":"m 43 0 m 343 -17 q 174 13 242 -17 q 75 92 107 43 q 43 197 43 140 q 44 220 43 214 q 44 228 44 226 l 165 228 l 165 214 q 217 116 165 149 q 350 83 268 83 q 467 112 421 83 q 514 192 514 140 q 488 258 514 232 q 422 298 461 283 q 317 329 383 313 q 185 371 236 350 q 99 433 135 392 q 64 539 64 474 q 142 691 64 635 q 354 747 221 747 q 499 720 438 747 q 591 648 560 693 q 622 547 622 603 l 621 521 l 501 521 l 501 533 q 463 614 501 582 q 340 646 425 646 q 224 616 257 646 q 190 547 190 586 q 214 494 190 515 q 272 461 238 474 q 369 433 307 449 q 510 390 456 411 q 602 324 564 368 q 640 208 640 281 q 559 40 640 96 q 343 -17 478 -17 m 286 -319 l 338 -207 l 286 -207 l 286 -81 l 408 -81 l 408 -197 l 349 -319 l 286 -319 z "},"ṣ":{"ha":694,"x_min":43,"x_max":640,"o":"m 43 0 m 343 -17 q 174 13 242 -17 q 75 92 107 43 q 43 197 43 140 q 44 220 43 214 q 44 228 44 226 l 165 228 l 165 214 q 217 116 165 149 q 350 83 268 83 q 467 112 421 83 q 514 192 514 140 q 488 258 514 232 q 422 298 461 283 q 317 329 383 313 q 185 371 236 350 q 99 433 135 392 q 64 539 64 474 q 142 691 64 635 q 354 747 221 747 q 499 720 438 747 q 591 648 560 693 q 622 547 622 603 l 621 521 l 501 521 l 501 533 q 463 614 501 582 q 340 646 425 646 q 224 616 257 646 q 190 547 190 586 q 214 494 190 515 q 272 461 238 474 q 369 433 307 449 q 510 390 456 411 q 602 324 564 368 q 640 208 640 281 q 559 40 640 96 q 343 -17 478 -17 m 286 -240 l 286 -108 l 407 -108 l 407 -240 l 286 -240 z "},"ß":{"ha":849,"x_min":89,"x_max":807,"o":"m 89 717 q 186 946 89 871 q 436 1021 283 1021 q 613 989 538 1021 q 730 899 689 957 q 771 769 771 842 q 726 633 771 692 q 606 549 682 574 l 606 543 q 751 447 696 515 q 807 286 807 379 q 766 141 807 207 q 655 38 725 75 q 501 0 585 0 l 329 0 l 329 103 l 488 103 q 585 129 540 103 q 656 200 629 156 q 682 296 682 244 q 654 392 682 349 q 578 461 626 436 q 474 486 531 486 l 329 486 l 329 588 l 460 588 q 553 610 510 588 q 621 674 596 633 q 646 761 646 714 q 590 876 646 832 q 435 919 535 919 q 272 868 331 919 q 213 719 213 817 l 213 0 l 89 0 l 89 717 z "},"ſ":{"ha":386,"x_min":13,"x_max":382,"o":"m 119 629 l 13 629 l 13 731 l 119 731 l 119 847 q 156 967 119 919 q 278 1015 192 1015 q 334 1010 306 1015 q 382 999 363 1006 l 382 914 l 310 914 q 242 847 242 914 l 242 0 l 119 0 l 119 629 z "},"ə":{"ha":772,"x_min":54,"x_max":718,"o":"m 372 -17 q 133 67 213 -17 q 54 338 54 150 l 54 399 l 592 399 q 531 586 586 526 q 372 646 476 646 q 228 606 283 646 q 174 482 174 565 l 54 482 q 143 679 54 611 q 379 747 232 747 q 633 653 549 747 q 718 365 718 558 q 632 77 718 171 q 372 -17 546 -17 m 376 85 q 526 135 472 85 q 589 297 579 186 l 182 297 q 232 135 182 185 q 376 85 282 85 z "},"t":{"ha":386,"x_min":25,"x_max":360,"o":"m 258 -15 q 149 29 183 -15 q 114 139 114 74 l 114 629 l 25 629 l 25 731 l 115 731 l 142 933 l 236 933 l 236 731 l 360 731 l 360 629 l 236 629 l 236 150 q 297 85 236 85 l 360 85 l 360 4 q 313 -10 342 -4 q 258 -15 283 -15 z "},"ŧ":{"ha":386,"x_min":25,"x_max":360,"o":"m 258 -15 q 149 29 183 -15 q 114 139 114 74 l 114 365 l 25 365 l 25 451 l 114 451 l 114 629 l 25 629 l 25 731 l 115 731 l 142 933 l 236 933 l 236 731 l 360 731 l 360 629 l 236 629 l 236 451 l 360 451 l 360 365 l 236 365 l 236 150 q 297 85 236 85 l 360 85 l 360 4 q 313 -10 342 -4 q 258 -15 283 -15 z "},"ť":{"ha":521,"x_min":25,"x_max":517,"o":"m 399 732 l 446 878 l 399 878 l 399 1004 l 517 1004 l 517 888 l 460 732 l 399 732 m 258 -15 q 149 29 183 -15 q 114 139 114 74 l 114 629 l 25 629 l 25 731 l 115 731 l 142 933 l 236 933 l 236 731 l 360 731 l 360 629 l 236 629 l 236 150 q 297 85 236 85 l 360 85 l 360 4 q 313 -10 342 -4 q 258 -15 283 -15 z "},"ţ":{"ha":386,"x_min":25,"x_max":368,"o":"m 240 -50 q 368 -140 368 -58 q 318 -228 368 -203 q 204 -253 268 -253 q 72 -242 132 -253 l 72 -174 l 211 -174 q 253 -166 239 -174 q 268 -140 268 -158 q 256 -115 268 -124 q 214 -107 244 -107 l 143 -107 l 165 14 q 126 67 139 35 q 114 139 114 100 l 114 629 l 25 629 l 25 731 l 115 731 l 142 933 l 236 933 l 236 731 l 360 731 l 360 629 l 236 629 l 236 150 q 297 85 236 85 l 360 85 l 360 4 q 313 -10 342 -4 q 258 -15 283 -15 l 246 -15 l 240 -50 z "},"ț":{"ha":386,"x_min":25,"x_max":360,"o":"m 25 0 m 258 -15 q 149 29 183 -15 q 114 139 114 74 l 114 629 l 25 629 l 25 731 l 115 731 l 142 933 l 236 933 l 236 731 l 360 731 l 360 629 l 236 629 l 236 150 q 297 85 236 85 l 360 85 l 360 4 q 313 -10 342 -4 q 258 -15 283 -15 m 147 -319 l 199 -207 l 147 -207 l 147 -81 l 269 -81 l 269 -197 l 210 -319 l 147 -319 z "},"ṭ":{"ha":386,"x_min":25,"x_max":360,"o":"m 25 0 m 258 -15 q 149 29 183 -15 q 114 139 114 74 l 114 629 l 25 629 l 25 731 l 115 731 l 142 933 l 236 933 l 236 731 l 360 731 l 360 629 l 236 629 l 236 150 q 297 85 236 85 l 360 85 l 360 4 q 313 -10 342 -4 q 258 -15 283 -15 m 147 -240 l 147 -108 l 268 -108 l 268 -240 l 147 -240 z "},"u":{"ha":772,"x_min":89,"x_max":679,"o":"m 317 -17 q 148 42 207 -17 q 89 232 89 101 l 89 731 l 211 731 l 211 240 q 250 119 211 153 q 363 85 289 85 q 460 110 415 85 q 531 185 504 136 q 557 299 557 233 l 557 731 l 679 731 l 679 0 l 586 0 l 572 99 l 563 99 q 317 -17 482 -17 z "},"ú":{"ha":772,"x_min":89,"x_max":679,"o":"m 89 0 m 317 -17 q 148 42 207 -17 q 89 232 89 101 l 89 731 l 211 731 l 211 240 q 250 119 211 153 q 363 85 289 85 q 460 110 415 85 q 531 185 504 136 q 557 299 557 233 l 557 731 l 679 731 l 679 0 l 586 0 l 572 99 l 563 99 q 317 -17 482 -17 m 332 821 l 451 1004 l 585 1004 l 586 1000 l 436 821 l 332 821 z "},"ŭ":{"ha":772,"x_min":89,"x_max":679,"o":"m 89 0 m 317 -17 q 148 42 207 -17 q 89 232 89 101 l 89 731 l 211 731 l 211 240 q 250 119 211 153 q 363 85 289 85 q 460 110 415 85 q 531 185 504 136 q 557 299 557 233 l 557 731 l 679 731 l 679 0 l 586 0 l 572 99 l 563 99 q 317 -17 482 -17 m 383 842 q 229 890 276 842 q 182 1004 182 938 l 267 1004 q 383 931 283 931 q 470 953 443 931 q 501 1004 497 975 l 586 1004 q 538 890 586 938 q 383 842 490 842 z "},"ǔ":{"ha":772,"x_min":89,"x_max":679,"o":"m 89 0 m 317 -17 q 148 42 207 -17 q 89 232 89 101 l 89 731 l 211 731 l 211 240 q 250 119 211 153 q 363 85 289 85 q 460 110 415 85 q 531 185 504 136 q 557 299 557 233 l 557 731 l 679 731 l 679 0 l 586 0 l 572 99 l 563 99 q 317 -17 482 -17 m 326 817 l 179 1004 l 304 1004 l 385 894 l 464 1004 l 589 1004 l 443 817 l 326 817 z "},"û":{"ha":772,"x_min":89,"x_max":679,"o":"m 89 0 m 317 -17 q 148 42 207 -17 q 89 232 89 101 l 89 731 l 211 731 l 211 240 q 250 119 211 153 q 363 85 289 85 q 460 110 415 85 q 531 185 504 136 q 557 299 557 233 l 557 731 l 679 731 l 679 0 l 586 0 l 572 99 l 563 99 q 317 -17 482 -17 m 179 817 l 326 1004 l 443 1004 l 589 817 l 464 817 l 385 926 l 304 817 l 179 817 z "},"ȕ":{"ha":772,"x_min":89,"x_max":679,"o":"m 89 0 m 317 -17 q 148 42 207 -17 q 89 232 89 101 l 89 731 l 211 731 l 211 240 q 250 119 211 153 q 363 85 289 85 q 460 110 415 85 q 531 185 504 136 q 557 299 557 233 l 557 731 l 679 731 l 679 0 l 586 0 l 572 99 l 563 99 q 317 -17 482 -17 m 256 821 l 139 1000 l 140 1004 l 275 1004 l 361 821 l 256 821 m 449 821 l 332 1000 l 333 1004 l 468 1004 l 554 821 l 449 821 z "},"ü":{"ha":772,"x_min":89,"x_max":679,"o":"m 89 0 m 317 -17 q 148 42 207 -17 q 89 232 89 101 l 89 731 l 211 731 l 211 240 q 250 119 211 153 q 363 85 289 85 q 460 110 415 85 q 531 185 504 136 q 557 299 557 233 l 557 731 l 679 731 l 679 0 l 586 0 l 572 99 l 563 99 q 317 -17 482 -17 m 194 872 l 194 1004 l 315 1004 l 315 872 l 194 872 m 454 872 l 454 1004 l 575 1004 l 575 872 l 454 872 z "},"ǘ":{"ha":772,"x_min":89,"x_max":679,"o":"m 89 0 m 317 -17 q 148 42 207 -17 q 89 232 89 101 l 89 731 l 211 731 l 211 240 q 250 119 211 153 q 363 85 289 85 q 460 110 415 85 q 531 185 504 136 q 557 299 557 233 l 557 731 l 679 731 l 679 0 l 586 0 l 572 99 l 563 99 q 317 -17 482 -17 m 194 872 l 194 1004 l 315 1004 l 315 872 l 194 872 m 454 872 l 454 1004 l 575 1004 l 575 872 l 454 872 m 332 1053 l 451 1236 l 585 1236 l 586 1232 l 436 1053 l 332 1053 z "},"ǚ":{"ha":772,"x_min":89,"x_max":679,"o":"m 89 0 m 317 -17 q 148 42 207 -17 q 89 232 89 101 l 89 731 l 211 731 l 211 240 q 250 119 211 153 q 363 85 289 85 q 460 110 415 85 q 531 185 504 136 q 557 299 557 233 l 557 731 l 679 731 l 679 0 l 586 0 l 572 99 l 563 99 q 317 -17 482 -17 m 194 872 l 194 1004 l 315 1004 l 315 872 l 194 872 m 454 872 l 454 1004 l 575 1004 l 575 872 l 454 872 m 326 1049 l 179 1236 l 304 1236 l 385 1126 l 464 1236 l 589 1236 l 443 1049 l 326 1049 z "},"ǜ":{"ha":772,"x_min":89,"x_max":679,"o":"m 89 0 m 317 -17 q 148 42 207 -17 q 89 232 89 101 l 89 731 l 211 731 l 211 240 q 250 119 211 153 q 363 85 289 85 q 460 110 415 85 q 531 185 504 136 q 557 299 557 233 l 557 731 l 679 731 l 679 0 l 586 0 l 572 99 l 563 99 q 317 -17 482 -17 m 194 872 l 194 1004 l 315 1004 l 315 872 l 194 872 m 454 872 l 454 1004 l 575 1004 l 575 872 l 454 872 m 332 1053 l 182 1232 l 183 1236 l 317 1236 l 436 1053 l 332 1053 z "},"ǖ":{"ha":772,"x_min":89,"x_max":679,"o":"m 89 0 m 317 -17 q 148 42 207 -17 q 89 232 89 101 l 89 731 l 211 731 l 211 240 q 250 119 211 153 q 363 85 289 85 q 460 110 415 85 q 531 185 504 136 q 557 299 557 233 l 557 731 l 679 731 l 679 0 l 586 0 l 572 99 l 563 99 q 317 -17 482 -17 m 194 872 l 194 1004 l 315 1004 l 315 872 l 194 872 m 454 872 l 454 1004 l 575 1004 l 575 872 l 454 872 m 172 1103 l 172 1203 l 596 1203 l 596 1103 l 172 1103 z "},"ụ":{"ha":772,"x_min":89,"x_max":679,"o":"m 89 0 m 317 -17 q 148 42 207 -17 q 89 232 89 101 l 89 731 l 211 731 l 211 240 q 250 119 211 153 q 363 85 289 85 q 460 110 415 85 q 531 185 504 136 q 557 299 557 233 l 557 731 l 679 731 l 679 0 l 586 0 l 572 99 l 563 99 q 317 -17 482 -17 m 325 -240 l 325 -108 l 446 -108 l 446 -240 l 325 -240 z "},"ù":{"ha":772,"x_min":89,"x_max":679,"o":"m 89 0 m 317 -17 q 148 42 207 -17 q 89 232 89 101 l 89 731 l 211 731 l 211 240 q 250 119 211 153 q 363 85 289 85 q 460 110 415 85 q 531 185 504 136 q 557 299 557 233 l 557 731 l 679 731 l 679 0 l 586 0 l 572 99 l 563 99 q 317 -17 482 -17 m 332 821 l 182 1000 l 183 1004 l 317 1004 l 436 821 l 332 821 z "},"ủ":{"ha":772,"x_min":89,"x_max":679,"o":"m 89 0 m 317 -17 q 148 42 207 -17 q 89 232 89 101 l 89 731 l 211 731 l 211 240 q 250 119 211 153 q 363 85 289 85 q 460 110 415 85 q 531 185 504 136 q 557 299 557 233 l 557 731 l 679 731 l 679 0 l 586 0 l 572 99 l 563 99 q 317 -17 482 -17 m 346 906 l 364 906 q 404 931 404 906 q 394 950 404 944 q 361 956 383 956 l 278 956 l 278 1010 q 378 1021 325 1021 q 467 1002 429 1021 q 504 938 504 983 q 481 883 504 903 q 424 860 458 863 l 424 821 l 346 821 l 346 906 z "},"ư":{"ha":772,"x_min":89,"x_max":842,"o":"m 842 1004 l 842 929 q 801 777 842 840 q 679 682 760 714 l 679 0 l 586 0 l 572 99 l 563 99 q 317 -17 482 -17 q 148 42 207 -17 q 89 232 89 101 l 89 731 l 211 731 l 211 240 q 250 119 211 153 q 363 85 289 85 q 460 110 415 85 q 531 185 504 136 q 557 299 557 233 l 557 731 l 561 731 q 688 770 640 740 q 749 854 735 800 l 675 854 l 675 1004 l 842 1004 z "},"ứ":{"ha":772,"x_min":89,"x_max":842,"o":"m 89 0 m 842 1004 l 842 929 q 801 777 842 840 q 679 682 760 714 l 679 0 l 586 0 l 572 99 l 563 99 q 317 -17 482 -17 q 148 42 207 -17 q 89 232 89 101 l 89 731 l 211 731 l 211 240 q 250 119 211 153 q 363 85 289 85 q 460 110 415 85 q 531 185 504 136 q 557 299 557 233 l 557 731 l 561 731 q 688 770 640 740 q 749 854 735 800 l 675 854 l 675 1004 l 842 1004 m 332 821 l 451 1004 l 585 1004 l 586 1000 l 436 821 l 332 821 z "},"ự":{"ha":772,"x_min":89,"x_max":842,"o":"m 89 0 m 842 1004 l 842 929 q 801 777 842 840 q 679 682 760 714 l 679 0 l 586 0 l 572 99 l 563 99 q 317 -17 482 -17 q 148 42 207 -17 q 89 232 89 101 l 89 731 l 211 731 l 211 240 q 250 119 211 153 q 363 85 289 85 q 460 110 415 85 q 531 185 504 136 q 557 299 557 233 l 557 731 l 561 731 q 688 770 640 740 q 749 854 735 800 l 675 854 l 675 1004 l 842 1004 m 325 -240 l 325 -108 l 446 -108 l 446 -240 l 325 -240 z "},"ừ":{"ha":772,"x_min":89,"x_max":842,"o":"m 89 0 m 842 1004 l 842 929 q 801 777 842 840 q 679 682 760 714 l 679 0 l 586 0 l 572 99 l 563 99 q 317 -17 482 -17 q 148 42 207 -17 q 89 232 89 101 l 89 731 l 211 731 l 211 240 q 250 119 211 153 q 363 85 289 85 q 460 110 415 85 q 531 185 504 136 q 557 299 557 233 l 557 731 l 561 731 q 688 770 640 740 q 749 854 735 800 l 675 854 l 675 1004 l 842 1004 m 332 821 l 182 1000 l 183 1004 l 317 1004 l 436 821 l 332 821 z "},"ử":{"ha":772,"x_min":89,"x_max":842,"o":"m 89 0 m 842 1004 l 842 929 q 801 777 842 840 q 679 682 760 714 l 679 0 l 586 0 l 572 99 l 563 99 q 317 -17 482 -17 q 148 42 207 -17 q 89 232 89 101 l 89 731 l 211 731 l 211 240 q 250 119 211 153 q 363 85 289 85 q 460 110 415 85 q 531 185 504 136 q 557 299 557 233 l 557 731 l 561 731 q 688 770 640 740 q 749 854 735 800 l 675 854 l 675 1004 l 842 1004 m 346 906 l 364 906 q 404 931 404 906 q 394 950 404 944 q 361 956 383 956 l 278 956 l 278 1010 q 378 1021 325 1021 q 467 1002 429 1021 q 504 938 504 983 q 481 883 504 903 q 424 860 458 863 l 424 821 l 346 821 l 346 906 z "},"ữ":{"ha":772,"x_min":89,"x_max":842,"o":"m 89 0 m 842 1004 l 842 929 q 801 777 842 840 q 679 682 760 714 l 679 0 l 586 0 l 572 99 l 563 99 q 317 -17 482 -17 q 148 42 207 -17 q 89 232 89 101 l 89 731 l 211 731 l 211 240 q 250 119 211 153 q 363 85 289 85 q 460 110 415 85 q 531 185 504 136 q 557 299 557 233 l 557 731 l 561 731 q 688 770 640 740 q 749 854 735 800 l 675 854 l 675 1004 l 842 1004 m 157 860 q 186 963 157 922 q 275 1004 215 1004 q 326 999 301 1004 q 385 982 350 993 q 482 961 444 961 q 521 1004 517 961 l 611 1004 q 582 901 611 942 q 493 860 553 860 q 442 865 467 860 q 383 882 418 871 q 286 903 324 903 q 247 860 251 903 l 157 860 z "},"ű":{"ha":772,"x_min":89,"x_max":679,"o":"m 89 0 m 317 -17 q 148 42 207 -17 q 89 232 89 101 l 89 731 l 211 731 l 211 240 q 250 119 211 153 q 363 85 289 85 q 460 110 415 85 q 531 185 504 136 q 557 299 557 233 l 557 731 l 679 731 l 679 0 l 586 0 l 572 99 l 563 99 q 317 -17 482 -17 m 235 821 l 321 1004 l 456 1004 l 457 1000 l 340 821 l 235 821 m 428 821 l 514 1004 l 649 1004 l 650 1000 l 533 821 l 428 821 z "},"ȗ":{"ha":772,"x_min":89,"x_max":679,"o":"m 89 0 m 317 -17 q 148 42 207 -17 q 89 232 89 101 l 89 731 l 211 731 l 211 240 q 250 119 211 153 q 363 85 289 85 q 460 110 415 85 q 531 185 504 136 q 557 299 557 233 l 557 731 l 679 731 l 679 0 l 586 0 l 572 99 l 563 99 q 317 -17 482 -17 m 182 842 q 229 956 182 908 q 383 1004 276 1004 q 538 956 490 1004 q 586 842 586 908 l 501 842 q 470 893 497 871 q 383 915 443 915 q 267 842 283 915 l 182 842 z "},"ū":{"ha":772,"x_min":89,"x_max":679,"o":"m 89 0 m 317 -17 q 148 42 207 -17 q 89 232 89 101 l 89 731 l 211 731 l 211 240 q 250 119 211 153 q 363 85 289 85 q 460 110 415 85 q 531 185 504 136 q 557 299 557 233 l 557 731 l 679 731 l 679 0 l 586 0 l 572 99 l 563 99 q 317 -17 482 -17 m 172 871 l 172 971 l 596 971 l 596 871 l 172 871 z "},"ų":{"ha":772,"x_min":89,"x_max":679,"o":"m 594 -253 q 496 -225 539 -253 q 453 -139 453 -197 q 488 -47 453 -86 q 585 10 522 -8 l 572 99 l 563 99 q 317 -17 482 -17 q 148 42 207 -17 q 89 232 89 101 l 89 731 l 211 731 l 211 240 q 250 119 211 153 q 363 85 289 85 q 460 110 415 85 q 531 185 504 136 q 557 299 557 233 l 557 731 l 679 731 l 679 0 q 597 -42 632 -14 q 561 -106 561 -71 q 579 -147 561 -131 q 635 -162 597 -162 l 679 -162 l 679 -233 q 594 -253 633 -253 z "},"ů":{"ha":772,"x_min":89,"x_max":679,"o":"m 89 0 m 317 -17 q 148 42 207 -17 q 89 232 89 101 l 89 731 l 211 731 l 211 240 q 250 119 211 153 q 363 85 289 85 q 460 110 415 85 q 531 185 504 136 q 557 299 557 233 l 557 731 l 679 731 l 679 0 l 586 0 l 572 99 l 563 99 q 317 -17 482 -17 m 385 786 q 288 824 324 786 q 251 919 251 863 q 288 1015 251 976 q 385 1053 324 1053 q 482 1015 446 1053 q 518 919 518 976 q 482 824 518 863 q 385 786 446 786 m 385 849 q 435 869 415 849 q 456 919 456 890 q 435 969 456 949 q 385 990 415 990 q 334 969 354 990 q 314 919 314 949 q 334 869 314 890 q 385 849 354 849 z "},"ũ":{"ha":772,"x_min":89,"x_max":679,"o":"m 89 0 m 317 -17 q 148 42 207 -17 q 89 232 89 101 l 89 731 l 211 731 l 211 240 q 250 119 211 153 q 363 85 289 85 q 460 110 415 85 q 531 185 504 136 q 557 299 557 233 l 557 731 l 679 731 l 679 0 l 586 0 l 572 99 l 563 99 q 317 -17 482 -17 m 157 860 q 186 963 157 922 q 275 1004 215 1004 q 326 999 301 1004 q 385 982 350 993 q 482 961 444 961 q 521 1004 517 961 l 611 1004 q 582 901 611 942 q 493 860 553 860 q 442 865 467 860 q 383 882 418 871 q 286 903 324 903 q 247 860 251 903 l 157 860 z "},"v":{"ha":694,"x_min":18,"x_max":676,"o":"m 18 731 l 147 731 l 276 365 q 318 238 294 314 q 349 136 342 161 l 356 136 q 385 234 363 160 q 426 365 407 308 l 554 731 l 676 731 l 408 0 l 286 0 l 18 731 z "},"w":{"ha":1003,"x_min":7,"x_max":994,"o":"m 7 731 l 133 731 l 246 317 q 270 219 257 274 q 289 144 283 165 l 296 144 l 332 317 l 428 731 l 576 731 l 678 317 q 699 219 688 274 q 715 144 711 165 l 722 144 q 739 218 726 165 q 764 317 751 271 l 875 731 l 994 731 l 775 0 l 642 0 l 536 436 l 503 586 l 497 586 q 484 522 493 568 q 465 436 475 476 l 361 0 l 226 0 l 7 731 z "},"ẃ":{"ha":1003,"x_min":7,"x_max":994,"o":"m 7 0 m 7 731 l 133 731 l 246 317 q 270 219 257 274 q 289 144 283 165 l 296 144 l 332 317 l 428 731 l 576 731 l 678 317 q 699 219 688 274 q 715 144 711 165 l 722 144 q 739 218 726 165 q 764 317 751 271 l 875 731 l 994 731 l 775 0 l 642 0 l 536 436 l 503 586 l 497 586 q 484 522 493 568 q 465 436 475 476 l 361 0 l 226 0 l 7 731 m 449 821 l 568 1004 l 701 1004 l 703 1000 l 553 821 l 449 821 z "},"ŵ":{"ha":1003,"x_min":7,"x_max":994,"o":"m 7 0 m 7 731 l 133 731 l 246 317 q 270 219 257 274 q 289 144 283 165 l 296 144 l 332 317 l 428 731 l 576 731 l 678 317 q 699 219 688 274 q 715 144 711 165 l 722 144 q 739 218 726 165 q 764 317 751 271 l 875 731 l 994 731 l 775 0 l 642 0 l 536 436 l 503 586 l 497 586 q 484 522 493 568 q 465 436 475 476 l 361 0 l 226 0 l 7 731 m 296 817 l 443 1004 l 560 1004 l 706 817 l 581 817 l 501 926 l 421 817 l 296 817 z "},"ẅ":{"ha":1003,"x_min":7,"x_max":994,"o":"m 7 0 m 7 731 l 133 731 l 246 317 q 270 219 257 274 q 289 144 283 165 l 296 144 l 332 317 l 428 731 l 576 731 l 678 317 q 699 219 688 274 q 715 144 711 165 l 722 144 q 739 218 726 165 q 764 317 751 271 l 875 731 l 994 731 l 775 0 l 642 0 l 536 436 l 503 586 l 497 586 q 484 522 493 568 q 465 436 475 476 l 361 0 l 226 0 l 7 731 m 311 872 l 311 1004 l 432 1004 l 432 872 l 311 872 m 571 872 l 571 1004 l 692 1004 l 692 872 l 571 872 z "},"ẁ":{"ha":1003,"x_min":7,"x_max":994,"o":"m 7 0 m 7 731 l 133 731 l 246 317 q 270 219 257 274 q 289 144 283 165 l 296 144 l 332 317 l 428 731 l 576 731 l 678 317 q 699 219 688 274 q 715 144 711 165 l 722 144 q 739 218 726 165 q 764 317 751 271 l 875 731 l 994 731 l 775 0 l 642 0 l 536 436 l 503 586 l 497 586 q 484 522 493 568 q 465 436 475 476 l 361 0 l 226 0 l 7 731 m 449 821 l 299 1000 l 300 1004 l 433 1004 l 553 821 l 449 821 z "},"x":{"ha":694,"x_min":10,"x_max":685,"o":"m 10 0 l 281 374 l 22 731 l 171 731 l 344 471 l 353 471 l 531 731 l 672 731 l 414 376 l 685 0 l 538 0 l 350 281 l 342 281 l 151 0 l 10 0 z "},"y":{"ha":694,"x_min":18,"x_max":676,"o":"m 163 -253 q 65 -242 101 -253 l 65 -162 l 114 -162 q 300 0 256 -162 l 18 731 l 147 731 l 283 365 q 328 237 303 314 q 363 136 354 160 l 369 136 q 395 225 376 160 q 438 365 414 290 l 554 731 l 676 731 l 436 38 q 326 -177 388 -101 q 163 -253 264 -253 z "},"ý":{"ha":694,"x_min":18,"x_max":676,"o":"m 18 0 m 163 -253 q 65 -242 101 -253 l 65 -162 l 114 -162 q 300 0 256 -162 l 18 731 l 147 731 l 283 365 q 328 237 303 314 q 363 136 354 160 l 369 136 q 395 225 376 160 q 438 365 414 290 l 554 731 l 676 731 l 436 38 q 326 -177 388 -101 q 163 -253 264 -253 m 294 821 l 414 1004 l 547 1004 l 549 1000 l 399 821 l 294 821 z "},"ŷ":{"ha":694,"x_min":18,"x_max":676,"o":"m 18 0 m 163 -253 q 65 -242 101 -253 l 65 -162 l 114 -162 q 300 0 256 -162 l 18 731 l 147 731 l 283 365 q 328 237 303 314 q 363 136 354 160 l 369 136 q 395 225 376 160 q 438 365 414 290 l 554 731 l 676 731 l 436 38 q 326 -177 388 -101 q 163 -253 264 -253 m 142 817 l 289 1004 l 406 1004 l 551 817 l 426 817 l 347 926 l 267 817 l 142 817 z "},"ÿ":{"ha":694,"x_min":18,"x_max":676,"o":"m 18 0 m 163 -253 q 65 -242 101 -253 l 65 -162 l 114 -162 q 300 0 256 -162 l 18 731 l 147 731 l 283 365 q 328 237 303 314 q 363 136 354 160 l 369 136 q 395 225 376 160 q 438 365 414 290 l 554 731 l 676 731 l 436 38 q 326 -177 388 -101 q 163 -253 264 -253 m 157 872 l 157 1004 l 278 1004 l 278 872 l 157 872 m 417 872 l 417 1004 l 538 1004 l 538 872 l 417 872 z "},"ỵ":{"ha":694,"x_min":18,"x_max":676,"o":"m 18 0 m 163 -253 q 65 -242 101 -253 l 65 -162 l 114 -162 q 300 0 256 -162 l 18 731 l 147 731 l 283 365 q 328 237 303 314 q 363 136 354 160 l 369 136 q 395 225 376 160 q 438 365 414 290 l 554 731 l 676 731 l 436 38 q 326 -177 388 -101 q 163 -253 264 -253 m 439 -240 l 439 -108 l 560 -108 l 560 -240 l 439 -240 z "},"ỳ":{"ha":694,"x_min":18,"x_max":676,"o":"m 18 0 m 163 -253 q 65 -242 101 -253 l 65 -162 l 114 -162 q 300 0 256 -162 l 18 731 l 147 731 l 283 365 q 328 237 303 314 q 363 136 354 160 l 369 136 q 395 225 376 160 q 438 365 414 290 l 554 731 l 676 731 l 436 38 q 326 -177 388 -101 q 163 -253 264 -253 m 294 821 l 144 1000 l 146 1004 l 279 1004 l 399 821 l 294 821 z "},"ỷ":{"ha":694,"x_min":18,"x_max":676,"o":"m 18 0 m 163 -253 q 65 -242 101 -253 l 65 -162 l 114 -162 q 300 0 256 -162 l 18 731 l 147 731 l 283 365 q 328 237 303 314 q 363 136 354 160 l 369 136 q 395 225 376 160 q 438 365 414 290 l 554 731 l 676 731 l 436 38 q 326 -177 388 -101 q 163 -253 264 -253 m 308 906 l 326 906 q 367 931 367 906 q 356 950 367 944 q 324 956 346 956 l 240 956 l 240 1010 q 340 1021 288 1021 q 429 1002 392 1021 q 467 938 467 983 q 444 883 467 903 q 386 860 421 863 l 386 821 l 308 821 l 308 906 z "},"ȳ":{"ha":694,"x_min":18,"x_max":676,"o":"m 18 0 m 163 -253 q 65 -242 101 -253 l 65 -162 l 114 -162 q 300 0 256 -162 l 18 731 l 147 731 l 283 365 q 328 237 303 314 q 363 136 354 160 l 369 136 q 395 225 376 160 q 438 365 414 290 l 554 731 l 676 731 l 436 38 q 326 -177 388 -101 q 163 -253 264 -253 m 135 871 l 135 971 l 558 971 l 558 871 l 135 871 z "},"ỹ":{"ha":694,"x_min":18,"x_max":676,"o":"m 18 0 m 163 -253 q 65 -242 101 -253 l 65 -162 l 114 -162 q 300 0 256 -162 l 18 731 l 147 731 l 283 365 q 328 237 303 314 q 363 136 354 160 l 369 136 q 395 225 376 160 q 438 365 414 290 l 554 731 l 676 731 l 436 38 q 326 -177 388 -101 q 163 -253 264 -253 m 119 860 q 149 963 119 922 q 238 1004 178 1004 q 288 999 264 1004 q 347 982 313 993 q 444 961 407 961 q 483 1004 479 961 l 574 1004 q 544 901 574 942 q 456 860 515 860 q 405 865 429 860 q 346 882 381 871 q 249 903 286 903 q 210 860 214 903 l 119 860 z "},"z":{"ha":694,"x_min":33,"x_max":660,"o":"m 33 0 l 33 65 l 457 629 l 63 629 l 63 731 l 636 731 l 636 667 l 211 101 l 660 101 l 660 0 l 33 0 z "},"ź":{"ha":694,"x_min":33,"x_max":660,"o":"m 33 0 m 33 0 l 33 65 l 457 629 l 63 629 l 63 731 l 636 731 l 636 667 l 211 101 l 660 101 l 660 0 l 33 0 m 294 821 l 414 1004 l 547 1004 l 549 1000 l 399 821 l 294 821 z "},"ž":{"ha":694,"x_min":33,"x_max":660,"o":"m 33 0 m 33 0 l 33 65 l 457 629 l 63 629 l 63 731 l 636 731 l 636 667 l 211 101 l 660 101 l 660 0 l 33 0 m 289 817 l 142 1004 l 267 1004 l 347 894 l 426 1004 l 551 1004 l 406 817 l 289 817 z "},"ż":{"ha":694,"x_min":33,"x_max":660,"o":"m 33 0 m 33 0 l 33 65 l 457 629 l 63 629 l 63 731 l 636 731 l 636 667 l 211 101 l 660 101 l 660 0 l 33 0 m 286 872 l 286 1004 l 407 1004 l 407 872 l 286 872 z "},"ẓ":{"ha":694,"x_min":33,"x_max":660,"o":"m 33 0 m 33 0 l 33 65 l 457 629 l 63 629 l 63 731 l 636 731 l 636 667 l 211 101 l 660 101 l 660 0 l 33 0 m 286 -240 l 286 -108 l 407 -108 l 407 -240 l 286 -240 z "},"ﬁ":{"ha":694,"x_min":13,"x_max":601,"o":"m 13 0 m 119 629 l 13 629 l 13 731 l 119 731 l 119 847 q 156 967 119 919 q 278 1015 192 1015 q 334 1010 306 1015 q 382 999 363 1006 l 382 914 l 310 914 q 242 847 242 914 l 242 731 l 382 731 l 382 629 l 242 629 l 242 0 l 119 0 l 119 629 m 479 868 l 479 1004 l 601 1004 l 601 868 l 479 868 m 479 0 l 479 731 l 601 731 l 601 0 l 479 0 z "},"ﬂ":{"ha":694,"x_min":13,"x_max":601,"o":"m 13 0 m 119 629 l 13 629 l 13 731 l 119 731 l 119 847 q 156 967 119 919 q 278 1015 192 1015 q 334 1010 306 1015 q 382 999 363 1006 l 382 914 l 310 914 q 242 847 242 914 l 242 731 l 382 731 l 382 629 l 242 629 l 242 0 l 119 0 l 119 629 m 479 0 l 479 1004 l 601 1004 l 601 0 l 479 0 z "},"ª":{"ha":514,"x_min":32,"x_max":515,"o":"m 515 576 l 515 519 q 450 507 496 507 q 390 523 415 507 q 357 565 365 539 l 354 565 q 287 519 328 536 q 197 503 246 503 q 83 533 133 503 q 32 643 32 563 q 114 776 32 740 q 350 811 196 811 l 350 871 q 328 928 350 908 q 251 949 306 949 q 175 926 199 949 q 151 872 151 904 l 151 858 l 56 858 l 56 882 q 110 985 56 949 q 256 1021 165 1021 q 398 985 350 1021 q 446 882 446 949 l 446 607 q 455 584 446 592 q 476 576 464 576 l 515 576 m 350 738 q 188 719 243 738 q 132 647 132 700 q 153 592 132 608 q 219 576 175 576 q 310 608 271 576 q 350 694 350 639 l 350 738 z "},"º":{"ha":507,"x_min":31,"x_max":476,"o":"m 254 501 q 31 761 31 501 q 254 1021 31 1021 q 476 761 476 1021 q 254 501 476 501 m 254 575 q 349 619 319 575 q 378 758 378 663 q 348 902 378 857 q 254 947 318 947 q 160 905 189 947 q 132 768 132 863 l 132 761 q 160 619 132 664 q 254 575 189 575 z "},"ⁿ":{"ha":507,"x_min":54,"x_max":454,"o":"m 54 1010 l 131 1010 l 140 943 l 147 943 q 300 1021 197 1021 q 454 853 454 1021 l 454 514 l 358 514 l 358 846 q 335 926 358 903 q 269 949 313 949 q 185 910 219 949 q 150 807 150 871 l 150 514 l 54 514 l 54 1010 z "},"Δ":{"ha":926,"x_min":10,"x_max":917,"o":"m 10 0 l 379 953 l 547 953 l 917 0 l 10 0 m 729 115 l 683 240 l 522 671 l 463 832 l 456 832 l 396 671 l 236 238 l 192 115 l 729 115 z "},"Ω":{"ha":1039,"x_min":51,"x_max":988,"o":"m 988 117 l 988 0 l 560 0 l 560 99 q 712 156 653 118 q 804 269 771 193 q 838 472 838 344 q 754 767 836 676 q 519 857 672 857 q 283 769 365 857 q 201 483 201 681 l 201 476 q 234 270 201 347 q 326 156 267 193 q 478 99 385 118 l 478 0 l 51 0 l 51 117 l 107 117 q 164 114 119 117 q 233 111 206 111 q 65 476 65 240 q 185 844 65 719 q 519 969 304 969 q 854 844 735 969 q 974 476 974 719 q 803 111 974 240 q 850 114 819 111 q 932 117 900 117 l 988 117 z "},"μ":{"ha":800,"x_min":107,"x_max":697,"o":"m 107 731 l 229 731 l 229 240 q 268 119 229 153 q 381 85 307 85 q 478 110 433 85 q 549 185 522 136 q 575 299 575 233 l 575 731 l 697 731 l 697 0 l 604 0 l 590 99 l 581 99 q 485 12 542 40 q 358 -17 428 -17 q 229 17 283 -17 l 229 -71 l 229 -240 l 107 -240 l 107 731 z "},"π":{"ha":958,"x_min":33,"x_max":915,"o":"m 128 0 q 203 298 169 107 q 239 629 236 489 q 54 611 107 629 l 33 689 q 283 731 94 731 l 915 731 l 901 629 l 767 629 l 767 217 q 789 0 767 67 l 669 0 q 650 70 657 17 q 643 204 643 124 l 643 629 l 364 629 q 321 278 353 472 q 250 0 289 85 l 128 0 z "},"¹":{"ha":463,"x_min":71,"x_max":392,"o":"m 71 533 l 193 533 l 193 846 l 71 846 l 71 901 q 157 920 108 906 q 239 953 206 935 l 281 953 l 281 533 l 392 533 l 392 456 l 71 456 l 71 533 z "},"²":{"ha":463,"x_min":57,"x_max":407,"o":"m 57 499 q 76 572 57 539 q 124 628 96 604 q 200 689 151 653 q 239 718 206 693 q 292 768 272 743 q 315 826 315 799 q 298 873 315 853 q 239 893 281 893 q 172 872 193 893 q 151 815 151 850 l 151 781 l 65 781 q 64 793 65 783 q 63 814 63 803 q 113 932 63 893 q 242 971 164 971 q 360 935 315 971 q 404 825 404 899 q 383 746 404 781 q 333 686 363 711 q 253 624 304 661 q 223 601 246 618 q 185 570 200 585 q 165 543 171 556 l 407 543 l 407 465 l 57 465 l 57 499 z "},"³":{"ha":463,"x_min":53,"x_max":413,"o":"m 235 456 q 101 497 149 456 q 53 611 53 539 l 53 629 l 140 629 l 140 608 q 163 551 140 571 q 229 532 186 532 q 297 551 272 532 q 322 608 322 569 q 226 678 322 678 l 185 678 l 185 756 l 229 756 q 290 773 265 756 q 314 824 314 790 q 291 876 314 858 q 233 893 268 893 q 173 875 196 893 q 150 821 150 857 l 150 801 l 63 801 l 63 828 q 110 931 63 892 q 232 969 157 969 q 356 932 310 969 q 401 828 401 894 q 331 724 401 763 l 331 721 q 413 603 413 685 q 363 496 413 536 q 235 456 314 456 z "},"⁄":{"ha":232,"x_min":-314,"x_max":544,"o":"m -314 -17 l 444 969 l 544 969 l -214 -17 l -314 -17 z "},"½":{"ha":1158,"x_min":71,"x_max":1083,"o":"m 150 -17 l 908 969 l 1008 969 l 250 -17 l 150 -17 m 71 533 l 193 533 l 193 846 l 71 846 l 71 901 q 157 920 108 906 q 239 953 206 935 l 281 953 l 281 533 l 392 533 l 392 456 l 71 456 l 71 533 m 733 33 q 753 106 733 74 q 800 163 772 139 q 876 224 828 188 q 940 274 919 256 q 975 313 961 292 q 992 361 992 336 q 974 408 992 388 q 915 428 957 428 q 849 406 869 428 q 828 350 828 385 l 828 315 l 742 315 q 739 349 739 335 q 790 467 739 428 q 918 506 840 506 q 1036 469 992 506 q 1081 360 1081 433 q 1041 256 1081 301 q 929 158 1001 211 q 899 136 922 153 q 862 105 876 119 q 842 78 847 90 l 1083 78 l 1083 0 l 733 0 l 733 33 z "},"⅓":{"ha":1158,"x_min":71,"x_max":1100,"o":"m 150 -17 l 908 969 l 1008 969 l 250 -17 l 150 -17 m 71 533 l 193 533 l 193 846 l 71 846 l 71 901 q 157 920 108 906 q 239 953 206 935 l 281 953 l 281 533 l 392 533 l 392 456 l 71 456 l 71 533 m 922 -17 q 788 25 836 -17 q 740 139 740 67 l 740 157 l 828 157 l 828 136 q 851 79 828 99 q 917 60 874 60 q 985 78 960 60 q 1010 136 1010 97 q 914 206 1010 206 l 872 206 l 872 283 l 917 283 q 977 301 953 283 q 1001 351 1001 318 q 978 403 1001 386 q 921 421 956 421 q 860 403 883 421 q 838 349 838 385 l 838 329 l 750 329 l 750 356 q 797 458 750 419 q 919 497 844 497 q 1043 460 997 497 q 1089 356 1089 422 q 1017 251 1089 290 l 1017 249 q 1100 131 1100 213 q 1051 24 1100 64 q 922 -17 1001 -17 z "},"⅔":{"ha":1158,"x_min":54,"x_max":1100,"o":"m 54 497 q 74 570 54 538 q 121 627 93 603 q 197 688 149 651 q 279 756 258 732 q 313 825 313 789 q 295 872 313 851 q 236 892 278 892 q 169 870 190 892 q 149 814 149 849 l 149 779 l 63 779 q 61 792 63 782 q 60 813 60 801 q 110 931 60 892 q 239 969 161 969 q 357 933 313 969 q 401 824 401 897 q 362 720 401 765 q 250 622 322 675 q 220 600 243 617 q 183 569 197 583 q 163 542 168 554 l 404 542 l 404 464 l 54 464 l 54 497 m 150 -17 l 908 969 l 1008 969 l 250 -17 l 150 -17 m 922 -17 q 788 25 836 -17 q 740 139 740 67 l 740 157 l 828 157 l 828 136 q 851 79 828 99 q 917 60 874 60 q 985 78 960 60 q 1010 136 1010 97 q 914 206 1010 206 l 872 206 l 872 283 l 917 283 q 977 301 953 283 q 1001 351 1001 318 q 978 403 1001 386 q 921 421 956 421 q 860 403 883 421 q 838 349 838 385 l 838 329 l 750 329 l 750 356 q 797 458 750 419 q 919 497 844 497 q 1043 460 997 497 q 1089 356 1089 422 q 1017 251 1089 290 l 1017 249 q 1100 131 1100 213 q 1051 24 1100 64 q 922 -17 1001 -17 z "},"¼":{"ha":1158,"x_min":71,"x_max":1079,"o":"m 150 -17 l 908 969 l 1008 969 l 250 -17 l 150 -17 m 71 533 l 193 533 l 193 846 l 71 846 l 71 901 q 157 920 108 906 q 239 953 206 935 l 281 953 l 281 533 l 392 533 l 392 456 l 71 456 l 71 533 m 929 114 l 710 114 l 710 185 q 829 506 792 338 l 921 506 q 866 335 903 425 q 797 192 829 246 l 929 192 l 929 325 q 960 436 946 372 l 1017 436 l 1017 192 l 1079 192 l 1079 114 l 1017 114 l 1017 0 l 929 0 l 929 114 z "},"¾":{"ha":1158,"x_min":61,"x_max":1079,"o":"m 243 456 q 109 497 157 456 q 61 611 61 539 l 61 629 l 149 629 l 149 608 q 172 551 149 571 q 238 532 194 532 q 306 551 281 532 q 331 608 331 569 q 235 678 331 678 l 193 678 l 193 756 l 238 756 q 298 773 274 756 q 322 824 322 790 q 299 876 322 858 q 242 893 276 893 q 181 875 204 893 q 158 821 158 857 l 158 801 l 71 801 l 71 828 q 118 931 71 892 q 240 969 165 969 q 364 932 318 969 q 410 828 410 894 q 338 724 410 763 l 338 721 q 421 603 421 685 q 372 496 421 536 q 243 456 322 456 m 150 -17 l 908 969 l 1008 969 l 250 -17 l 150 -17 m 929 114 l 710 114 l 710 185 q 829 506 792 338 l 921 506 q 866 335 903 425 q 797 192 829 246 l 929 192 l 929 325 q 960 436 946 372 l 1017 436 l 1017 192 l 1079 192 l 1079 114 l 1017 114 l 1017 0 l 929 0 l 929 114 z "}}}
